{
.appVersion = "895";
classes = (
{
automatic = 1;
code = "A Aacute Aogonek B C Cacute D E Eacute Eogonek F G H I J K L Lslash M N Nacute O Oacute P Q R S Sacute T U Uogonek V W X Y Z Zacute Zdotaccent I.alt J.alt";
name = Uppercase;
}
);
copyright = "Copyright © 2016 by Robert Jarzec. All rights reserved.";
date = "2016-04-19 20:06:13 +0000";
designer = "Robert Jarzec";
designerURL = "https://www.behance.net/robertjarzec";
familyName = Rewir;
featurePrefixes = (
{
automatic = 1;
code = "languagesystem DFLT dflt;\012languagesystem latn dflt;\012";
name = Languagesystems;
}
);
features = (
{
automatic = 1;
code = "feature ccmp;\012feature case;\012feature ss01;\012feature ss02;\012feature salt;\012";
name = aalt;
},
{
automatic = 1;
code = "lookup ccmp_latn_1 {\012	script latn;\012	@Markscomb = [slashshortcomb acute dotaccent];\012	@MarkscombCase = [slashshortcomb.case acute.case dotaccent.case];\012	sub @Markscomb @Markscomb' by @MarkscombCase;\012	sub @Uppercase @Markscomb' by @MarkscombCase;\012} ccmp_latn_1;\012\012lookup ccmp_latn_2 {\012	script latn;\012	sub @Markscomb' @MarkscombCase by @MarkscombCase;\012	sub @MarkscombCase @Markscomb' by @MarkscombCase;\012} ccmp_latn_2;\012";
name = ccmp;
},
{
automatic = 1;
code = "sub slashshortcomb by slashshortcomb.case;\012sub acute by acute.case;\012sub dotaccent by dotaccent.case;\012";
name = case;
},
{
code = "sub I by I.alt;\012sub i by i.alt;\012sub j by j.ss01;";
name = ss01;
},
{
code = "sub J by J.alt;\012sub three by three.alt;\012sub j by j.alt;";
name = ss02;
},
{
automatic = 1;
code = "sub j by j.ss01;\012";
name = salt;
}
);
fontMaster = (
{
alignmentZones = (
"{1377, 24}",
"{1264, 24}",
"{1220, 24}",
"{984, 24}",
"{0, -24}",
"{-367, -24}"
);
ascender = 1530;
capHeight = 1264;
descender = -518;
horizontalStems = (
109,
110
);
id = "785B6CE2-304A-4677-8076-DAC1C502AB09";
userData = {
GSCornerRadius = 15;
};
verticalStems = (
120,
123
);
visible = 1;
weight = Light;
weightValue = 120;
xHeight = 984;
}
);
glyphs = (
{
glyphname = A;
lastChange = "2016-11-10 19:05:30 +0000";
layers = (
{
anchors = (
{
name = bottom;
position = "{576, 0}";
},
{
name = ogonek;
position = "{1025, 0}";
},
{
name = top;
position = "{606, 1264}";
}
);
background = {
anchors = (
{
name = bottom;
position = "{576, 0}";
},
{
name = ogonek;
position = "{1025, 0}";
},
{
name = top;
position = "{606, 1264}";
}
);
paths = (
{
closed = 1;
nodes = (
"883 411 LINE",
"883 514 LINE",
"267 514 LINE",
"267 411 LINE"
);
},
{
closed = 1;
nodes = (
"517 1264 LINE",
"40 0 LINE",
"167 0 LINE",
"505 914 LINE",
"598 1192 LINE",
"542 1193 LINE",
"637 914 LINE",
"981 0 LINE",
"1111 0 LINE",
"633 1264 LINE"
);
}
);
};
layerId = "785B6CE2-304A-4677-8076-DAC1C502AB09";
paths = (
{
closed = 1;
nodes = (
"883 411 LINE",
"883 514 LINE",
"267 514 LINE",
"267 411 LINE"
);
},
{
closed = 1;
nodes = (
"517 1264 LINE",
"40 0 LINE",
"167 0 LINE",
"505 914 LINE",
"598 1192 LINE",
"542 1193 LINE",
"637 914 LINE",
"981 0 LINE",
"1111 0 LINE",
"633 1264 LINE"
);
}
);
width = 1151;
}
);
leftKerningGroup = A;
rightKerningGroup = A;
unicode = 0041;
},
{
glyphname = Aogonek;
lastChange = "2016-11-10 18:25:34 +0000";
layers = (
{
anchors = (
{
name = _ogonek;
position = "{1025, 0}";
}
);
background = {
anchors = (
{
name = _ogonek;
position = "{1025, 0}";
}
);
components = (
{
name = A;
}
);
paths = (
{
closed = 1;
nodes = (
"924 -54 OFFCURVE",
"828 -151 OFFCURVE",
"828 -255 CURVE SMOOTH",
"828 -345 OFFCURVE",
"895 -391 OFFCURVE",
"996 -391 CURVE SMOOTH",
"1064 -391 OFFCURVE",
"1116 -370 OFFCURVE",
"1139 -362 CURVE",
"1139 -267 LINE",
"1110 -282 OFFCURVE",
"1055 -293 OFFCURVE",
"1016 -293 CURVE SMOOTH",
"968 -293 OFFCURVE",
"945 -271 OFFCURVE",
"945 -223 CURVE SMOOTH",
"945 -159 OFFCURVE",
"994 -99 OFFCURVE",
"1111 0 CURVE",
"981 0 LINE"
);
}
);
};
components = (
{
name = A;
}
);
layerId = "785B6CE2-304A-4677-8076-DAC1C502AB09";
paths = (
{
closed = 1;
nodes = (
"924 -54 OFFCURVE",
"828 -151 OFFCURVE",
"828 -255 CURVE SMOOTH",
"828 -345 OFFCURVE",
"895 -391 OFFCURVE",
"996 -391 CURVE SMOOTH",
"1064 -391 OFFCURVE",
"1116 -370 OFFCURVE",
"1139 -362 CURVE",
"1139 -267 LINE",
"1110 -282 OFFCURVE",
"1055 -293 OFFCURVE",
"1016 -293 CURVE SMOOTH",
"968 -293 OFFCURVE",
"945 -271 OFFCURVE",
"945 -223 CURVE SMOOTH",
"945 -159 OFFCURVE",
"994 -99 OFFCURVE",
"1111 0 CURVE",
"981 0 LINE"
);
}
);
width = 1151;
}
);
leftMetricsKey = A;
unicode = 0104;
},
{
glyphname = B;
lastChange = "2016-11-10 18:25:34 +0000";
layers = (
{
background = {
paths = (
{
closed = 1;
nodes = (
"538 610 LINE SMOOTH",
"707 610 OFFCURVE",
"951 744 OFFCURVE",
"951 948 CURVE SMOOTH",
"951 1151 OFFCURVE",
"766 1264 OFFCURVE",
"561 1264 CURVE SMOOTH",
"297 1264 LINE",
"297 1154 LINE",
"520 1154 LINE SMOOTH",
"737 1154 OFFCURVE",
"826 1061 OFFCURVE",
"826 932 CURVE SMOOTH",
"826 807 OFFCURVE",
"727 705 OFFCURVE",
"566 705 CURVE SMOOTH",
"309 705 LINE",
"309 610 LINE"
);
},
{
closed = 1;
nodes = (
"333 0 LINE",
"333 1264 LINE",
"210 1264 LINE",
"210 0 LINE"
);
},
{
closed = 1;
nodes = (
"587 0 LINE SMOOTH",
"852 0 OFFCURVE",
"1027 138 OFFCURVE",
"1027 346 CURVE SMOOTH",
"1027 602 OFFCURVE",
"781 683 OFFCURVE",
"645 683 CURVE SMOOTH",
"297 683 LINE",
"297 600 LINE",
"605 600 LINE SMOOTH",
"748 600 OFFCURVE",
"900 512 OFFCURVE",
"900 349 CURVE SMOOTH",
"900 186 OFFCURVE",
"781 110 OFFCURVE",
"584 110 CURVE SMOOTH",
"309 110 LINE",
"309 0 LINE"
);
}
);
};
layerId = "785B6CE2-304A-4677-8076-DAC1C502AB09";
paths = (
{
closed = 1;
nodes = (
"538 610 LINE SMOOTH",
"707 610 OFFCURVE",
"951 744 OFFCURVE",
"951 948 CURVE SMOOTH",
"951 1151 OFFCURVE",
"766 1264 OFFCURVE",
"561 1264 CURVE SMOOTH",
"297 1264 LINE",
"297 1154 LINE",
"520 1154 LINE SMOOTH",
"737 1154 OFFCURVE",
"826 1061 OFFCURVE",
"826 932 CURVE SMOOTH",
"826 807 OFFCURVE",
"727 705 OFFCURVE",
"566 705 CURVE SMOOTH",
"309 705 LINE",
"309 610 LINE"
);
},
{
closed = 1;
nodes = (
"333 0 LINE",
"333 1264 LINE",
"210 1264 LINE",
"210 0 LINE"
);
},
{
closed = 1;
nodes = (
"587 0 LINE SMOOTH",
"852 0 OFFCURVE",
"1027 138 OFFCURVE",
"1027 346 CURVE SMOOTH",
"1027 602 OFFCURVE",
"781 683 OFFCURVE",
"645 683 CURVE SMOOTH",
"297 683 LINE",
"297 600 LINE",
"605 600 LINE SMOOTH",
"748 600 OFFCURVE",
"900 512 OFFCURVE",
"900 349 CURVE SMOOTH",
"900 186 OFFCURVE",
"781 110 OFFCURVE",
"584 110 CURVE SMOOTH",
"309 110 LINE",
"309 0 LINE"
);
}
);
width = 1147;
},
{
associatedMasterId = "785B6CE2-304A-4677-8076-DAC1C502AB09";
background = {
paths = (
{
closed = 1;
nodes = (
"536 610 LINE SMOOTH",
"705 610 OFFCURVE",
"949 744 OFFCURVE",
"949 948 CURVE SMOOTH",
"949 1151 OFFCURVE",
"764 1264 OFFCURVE",
"559 1264 CURVE SMOOTH",
"295 1264 LINE",
"295 1154 LINE",
"518 1154 LINE SMOOTH",
"735 1154 OFFCURVE",
"824 1061 OFFCURVE",
"824 932 CURVE SMOOTH",
"824 807 OFFCURVE",
"725 705 OFFCURVE",
"564 705 CURVE SMOOTH",
"307 705 LINE",
"307 610 LINE"
);
},
{
closed = 1;
nodes = (
"331 0 LINE",
"331 1264 LINE",
"208 1264 LINE",
"208 0 LINE"
);
},
{
closed = 1;
nodes = (
"585 0 LINE SMOOTH",
"850 0 OFFCURVE",
"1025 138 OFFCURVE",
"1025 346 CURVE SMOOTH",
"1025 602 OFFCURVE",
"779 683 OFFCURVE",
"643 683 CURVE SMOOTH",
"295 683 LINE",
"295 600 LINE",
"603 600 LINE SMOOTH",
"746 600 OFFCURVE",
"898 512 OFFCURVE",
"898 349 CURVE SMOOTH",
"898 186 OFFCURVE",
"779 110 OFFCURVE",
"582 110 CURVE SMOOTH",
"307 110 LINE",
"307 0 LINE"
);
}
);
};
layerId = "84A80B02-186C-4BE5-A503-F5297F852E01";
name = "Bold Aug 10 16, 20:37";
paths = (
{
closed = 1;
nodes = (
"516 627 LINE SMOOTH",
"736 627 OFFCURVE",
"1018 708 OFFCURVE",
"1018 952 CURVE SMOOTH",
"1018 1138 OFFCURVE",
"893 1264 OFFCURVE",
"577 1264 CURVE SMOOTH",
"275 1264 LINE",
"275 1066 LINE",
"594 1066 LINE SMOOTH",
"693 1066 OFFCURVE",
"759 1021 OFFCURVE",
"759 918 CURVE SMOOTH",
"759 805 OFFCURVE",
"699 745 OFFCURVE",
"570 745 CURVE SMOOTH",
"287 745 LINE",
"287 627 LINE"
);
},
{
closed = 1;
nodes = (
"399 0 LINE",
"399 1264 LINE",
"140 1264 LINE",
"140 0 LINE"
);
},
{
closed = 1;
nodes = (
"565 0 LINE SMOOTH",
"927 0 OFFCURVE",
"1087 143 OFFCURVE",
"1087 355 CURVE SMOOTH",
"1087 584 OFFCURVE",
"901 700 OFFCURVE",
"623 700 CURVE SMOOTH",
"275 700 LINE",
"275 555 LINE",
"570 555 LINE SMOOTH",
"751 555 OFFCURVE",
"818 482 OFFCURVE",
"818 371 CURVE SMOOTH",
"818 271 OFFCURVE",
"763 202 OFFCURVE",
"631 202 CURVE SMOOTH",
"287 202 LINE",
"287 0 LINE"
);
}
);
width = 1177;
}
);
leftKerningGroup = H;
leftMetricsKey = H;
unicode = 0042;
},
{
glyphname = C;
lastChange = "2016-11-10 18:33:36 +0000";
layers = (
{
anchors = (
{
name = bottom;
position = "{547, 0}";
},
{
name = top;
position = "{647, 1264}";
}
);
background = {
anchors = (
{
name = bottom;
position = "{547, 0}";
},
{
name = top;
position = "{647, 1264}";
}
);
paths = (
{
closed = 1;
nodes = (
"786 -24 OFFCURVE",
"945 30 OFFCURVE",
"1019 99 CURVE",
"994 12 LINE",
"994 272 LINE",
"1062 202 LINE",
"921 202 LINE",
"1028 235 LINE",
"922 147 OFFCURVE",
"773 90 OFFCURVE",
"636 90 CURVE SMOOTH",
"391 90 OFFCURVE",
"261 272 OFFCURVE",
"261 629 CURVE SMOOTH",
"261 992 OFFCURVE",
"395 1177 OFFCURVE",
"633 1177 CURVE SMOOTH",
"767 1177 OFFCURVE",
"874 1116 OFFCURVE",
"990 1036 CURVE",
"914 1065 LINE",
"1008 1065 LINE",
"939 1007 LINE",
"1000 1205 LINE",
"1030 1144 LINE",
"952 1219 OFFCURVE",
"804 1288 OFFCURVE",
"646 1288 CURVE SMOOTH",
"324 1288 OFFCURVE",
"130 1044 OFFCURVE",
"130 608 CURVE SMOOTH",
"130 188 OFFCURVE",
"308 -24 OFFCURVE",
"629 -24 CURVE SMOOTH"
);
}
);
};
layerId = "785B6CE2-304A-4677-8076-DAC1C502AB09";
paths = (
{
closed = 1;
nodes = (
"786 -24 OFFCURVE",
"945 30 OFFCURVE",
"1019 99 CURVE",
"994 12 LINE",
"994 272 LINE",
"1062 202 LINE",
"921 202 LINE",
"1028 235 LINE",
"922 147 OFFCURVE",
"773 90 OFFCURVE",
"636 90 CURVE SMOOTH",
"391 90 OFFCURVE",
"261 272 OFFCURVE",
"261 629 CURVE SMOOTH",
"261 992 OFFCURVE",
"395 1177 OFFCURVE",
"633 1177 CURVE SMOOTH",
"767 1177 OFFCURVE",
"874 1116 OFFCURVE",
"990 1036 CURVE",
"914 1065 LINE",
"1008 1065 LINE",
"939 1007 LINE",
"1000 1205 LINE",
"1030 1144 LINE",
"952 1219 OFFCURVE",
"804 1288 OFFCURVE",
"646 1288 CURVE SMOOTH",
"324 1288 OFFCURVE",
"130 1044 OFFCURVE",
"130 608 CURVE SMOOTH",
"130 188 OFFCURVE",
"308 -24 OFFCURVE",
"629 -24 CURVE SMOOTH"
);
}
);
width = 1094;
}
);
leftKerningGroup = O;
leftMetricsKey = O;
rightKerningGroup = C;
unicode = 0043;
},
{
glyphname = D;
lastChange = "2016-11-10 18:33:44 +0000";
layers = (
{
background = {
paths = (
{
closed = 1;
nodes = (
"550 0 LINE SMOOTH",
"813 0 OFFCURVE",
"1123 153 OFFCURVE",
"1123 662 CURVE SMOOTH",
"1123 1134 OFFCURVE",
"759 1264 OFFCURVE",
"529 1264 CURVE SMOOTH",
"297 1264 LINE",
"297 1154 LINE",
"503 1154 LINE SMOOTH",
"720 1154 OFFCURVE",
"992 1056 OFFCURVE",
"992 646 CURVE SMOOTH",
"992 189 OFFCURVE",
"737 110 OFFCURVE",
"540 110 CURVE SMOOTH",
"309 110 LINE",
"309 0 LINE"
);
},
{
closed = 1;
nodes = (
"333 0 LINE",
"333 1264 LINE",
"210 1264 LINE",
"210 0 LINE"
);
}
);
};
layerId = "785B6CE2-304A-4677-8076-DAC1C502AB09";
paths = (
{
closed = 1;
nodes = (
"550 0 LINE SMOOTH",
"813 0 OFFCURVE",
"1123 153 OFFCURVE",
"1123 662 CURVE SMOOTH",
"1123 1134 OFFCURVE",
"759 1264 OFFCURVE",
"529 1264 CURVE SMOOTH",
"297 1264 LINE",
"297 1154 LINE",
"503 1154 LINE SMOOTH",
"720 1154 OFFCURVE",
"992 1056 OFFCURVE",
"992 646 CURVE SMOOTH",
"992 189 OFFCURVE",
"737 110 OFFCURVE",
"540 110 CURVE SMOOTH",
"309 110 LINE",
"309 0 LINE"
);
},
{
closed = 1;
nodes = (
"333 0 LINE",
"333 1264 LINE",
"210 1264 LINE",
"210 0 LINE"
);
}
);
width = 1253;
}
);
leftKerningGroup = H;
leftMetricsKey = H;
rightKerningGroup = O;
rightMetricsKey = O;
unicode = 0044;
},
{
glyphname = E;
lastChange = "2016-11-10 18:25:34 +0000";
layers = (
{
anchors = (
{
name = bottom;
position = "{517, 0}";
},
{
name = ogonek;
position = "{831, 0}";
},
{
name = top;
position = "{517, 1264}";
},
{
name = topleft;
position = "{30, 1264}";
}
);
background = {
anchors = (
{
name = bottom;
position = "{517, 0}";
},
{
name = ogonek;
position = "{831, 0}";
},
{
name = top;
position = "{517, 1264}";
},
{
name = topleft;
position = "{30, 1264}";
}
);
paths = (
{
closed = 1;
nodes = (
"893 0 LINE",
"893 110 LINE",
"279 110 LINE",
"333 56 LINE",
"333 650 LINE",
"279 606 LINE",
"792 606 LINE",
"803 712 LINE",
"279 712 LINE",
"333 668 LINE",
"333 1208 LINE",
"279 1154 LINE",
"883 1154 LINE",
"883 1264 LINE",
"210 1264 LINE",
"210 0 LINE"
);
}
);
};
guideLines = (
{
angle = 270;
position = "{863, 1209}";
}
);
layerId = "785B6CE2-304A-4677-8076-DAC1C502AB09";
paths = (
{
closed = 1;
nodes = (
"893 0 LINE",
"893 110 LINE",
"279 110 LINE",
"333 56 LINE",
"333 650 LINE",
"279 606 LINE",
"792 606 LINE",
"803 712 LINE",
"279 712 LINE",
"333 668 LINE",
"333 1208 LINE",
"279 1154 LINE",
"883 1154 LINE",
"883 1264 LINE",
"210 1264 LINE",
"210 0 LINE"
);
}
);
width = 1033;
},
{
anchors = (
{
name = bottom;
position = "{493, 0}";
},
{
name = ogonek;
position = "{783, 0}";
},
{
name = top;
position = "{493, 1277}";
},
{
name = topleft;
position = "{20, 1277}";
}
);
associatedMasterId = "785B6CE2-304A-4677-8076-DAC1C502AB09";
background = {
anchors = (
{
name = bottom;
position = "{493, 0}";
},
{
name = ogonek;
position = "{783, 0}";
},
{
name = top;
position = "{493, 1277}";
},
{
name = topleft;
position = "{20, 1277}";
}
);
paths = (
{
closed = 1;
nodes = (
"896 0 LINE",
"896 207 LINE",
"289 207 LINE",
"403 93 LINE",
"403 626 LINE",
"289 552 LINE",
"791 552 LINE",
"823 754 LINE",
"289 754 LINE",
"403 680 LINE",
"403 1184 LINE",
"289 1070 LINE",
"891 1070 LINE",
"891 1277 LINE",
"140 1277 LINE",
"140 0 LINE"
);
},
{
closed = 1;
nodes = (
"896 0 LINE",
"896 207 LINE",
"289 207 LINE",
"403 93 LINE",
"403 626 LINE",
"289 552 LINE",
"791 552 LINE",
"813 754 LINE",
"289 754 LINE",
"403 680 LINE",
"403 1184 LINE",
"289 1070 LINE",
"891 1070 LINE",
"891 1277 LINE",
"140 1277 LINE",
"140 0 LINE"
);
},
{
closed = 1;
nodes = (
"893 0 LINE",
"893 110 LINE",
"279 110 LINE",
"333 56 LINE",
"333 650 LINE",
"279 606 LINE",
"792 606 LINE",
"803 712 LINE",
"279 712 LINE",
"333 668 LINE",
"333 1208 LINE",
"279 1154 LINE",
"883 1154 LINE",
"883 1264 LINE",
"210 1264 LINE",
"210 0 LINE"
);
}
);
};
layerId = "7D8943A5-5E74-4368-9AD2-D9A2F8E157D6";
name = "Bold Oct 21 16, 15:03";
paths = (
{
closed = 1;
nodes = (
"896 0 LINE",
"896 207 LINE",
"289 207 LINE",
"403 93 LINE",
"403 626 LINE",
"289 552 LINE",
"791 552 LINE",
"813 754 LINE",
"289 754 LINE",
"403 680 LINE",
"403 1184 LINE",
"289 1070 LINE",
"891 1070 LINE",
"891 1277 LINE",
"140 1277 LINE",
"140 0 LINE"
);
}
);
width = 986;
}
);
leftKerningGroup = H;
leftMetricsKey = H;
rightKerningGroup = E;
unicode = 0045;
},
{
glyphname = F;
lastChange = "2016-11-10 18:25:34 +0000";
layers = (
{
background = {
paths = (
{
closed = 1;
nodes = (
"323 0 LINE",
"323 1264 LINE",
"200 1264 LINE",
"200 0 LINE"
);
},
{
closed = 1;
nodes = (
"859 1154 LINE",
"859 1264 LINE",
"287 1264 LINE",
"287 1154 LINE"
);
},
{
closed = 1;
nodes = (
"768 606 LINE",
"789 712 LINE",
"287 712 LINE",
"287 606 LINE"
);
}
);
};
layerId = "785B6CE2-304A-4677-8076-DAC1C502AB09";
paths = (
{
closed = 1;
nodes = (
"323 0 LINE",
"323 1264 LINE",
"200 1264 LINE",
"200 0 LINE"
);
},
{
closed = 1;
nodes = (
"859 1154 LINE",
"859 1264 LINE",
"287 1264 LINE",
"287 1154 LINE"
);
},
{
closed = 1;
nodes = (
"768 606 LINE",
"789 712 LINE",
"287 712 LINE",
"287 606 LINE"
);
}
);
width = 979;
}
);
leftKerningGroup = H;
rightKerningGroup = F;
unicode = 0046;
},
{
glyphname = G;
lastChange = "2016-11-10 18:34:05 +0000";
layers = (
{
background = {
paths = (
{
closed = 1;
nodes = (
"848 -24 OFFCURVE",
"995 35 OFFCURVE",
"1074 110 CURVE",
"1074 12 LINE",
"1074 272 LINE",
"1112 205 LINE",
"971 205 LINE",
"1078 235 LINE",
"974 150 OFFCURVE",
"841 90 OFFCURVE",
"673 90 CURVE SMOOTH",
"396 90 OFFCURVE",
"261 272 OFFCURVE",
"261 631 CURVE SMOOTH",
"261 992 OFFCURVE",
"397 1177 OFFCURVE",
"688 1177 CURVE SMOOTH",
"824 1177 OFFCURVE",
"931 1128 OFFCURVE",
"1056 1042 CURVE",
"980 1066 LINE",
"1074 1066 LINE",
"1005 1013 LINE",
"1084 1211 LINE",
"1096 1150 LINE",
"1018 1224 OFFCURVE",
"871 1288 OFFCURVE",
"699 1288 CURVE SMOOTH",
"329 1288 OFFCURVE",
"130 1044 OFFCURVE",
"130 608 CURVE SMOOTH",
"130 188 OFFCURVE",
"331 -24 OFFCURVE",
"670 -24 CURVE SMOOTH"
);
},
{
closed = 1;
nodes = (
"1074 110 LINE",
"1074 554 LINE",
"951 554 LINE",
"951 110 LINE"
);
},
{
closed = 1;
nodes = (
"1074 552 LINE",
"1074 662 LINE",
"622 662 LINE",
"622 552 LINE"
);
}
);
};
layerId = "785B6CE2-304A-4677-8076-DAC1C502AB09";
paths = (
{
closed = 1;
nodes = (
"848 -24 OFFCURVE",
"995 35 OFFCURVE",
"1074 110 CURVE",
"1074 12 LINE",
"1074 272 LINE",
"1112 205 LINE",
"971 205 LINE",
"1078 235 LINE",
"974 150 OFFCURVE",
"841 90 OFFCURVE",
"673 90 CURVE SMOOTH",
"396 90 OFFCURVE",
"261 272 OFFCURVE",
"261 631 CURVE SMOOTH",
"261 992 OFFCURVE",
"397 1177 OFFCURVE",
"688 1177 CURVE SMOOTH",
"824 1177 OFFCURVE",
"931 1128 OFFCURVE",
"1056 1042 CURVE",
"980 1066 LINE",
"1074 1066 LINE",
"1005 1013 LINE",
"1084 1211 LINE",
"1096 1150 LINE",
"1018 1224 OFFCURVE",
"871 1288 OFFCURVE",
"699 1288 CURVE SMOOTH",
"329 1288 OFFCURVE",
"130 1044 OFFCURVE",
"130 608 CURVE SMOOTH",
"130 188 OFFCURVE",
"331 -24 OFFCURVE",
"670 -24 CURVE SMOOTH"
);
},
{
closed = 1;
nodes = (
"1074 110 LINE",
"1074 554 LINE",
"951 554 LINE",
"951 110 LINE"
);
},
{
closed = 1;
nodes = (
"1074 552 LINE",
"1074 662 LINE",
"622 662 LINE",
"622 552 LINE"
);
}
);
width = 1230;
}
);
leftKerningGroup = O;
leftMetricsKey = O;
rightKerningGroup = G;
unicode = 0047;
},
{
glyphname = H;
lastChange = "2016-11-10 18:34:27 +0000";
layers = (
{
background = {
paths = (
{
closed = 1;
nodes = (
"1066 0 LINE",
"1066 1264 LINE",
"943 1264 LINE",
"943 0 LINE"
);
},
{
closed = 1;
nodes = (
"333 0 LINE",
"333 1264 LINE",
"210 1264 LINE",
"210 0 LINE"
);
},
{
closed = 1;
nodes = (
"983 604 LINE",
"983 714 LINE",
"297 714 LINE",
"297 604 LINE"
);
}
);
};
layerId = "785B6CE2-304A-4677-8076-DAC1C502AB09";
paths = (
{
closed = 1;
nodes = (
"1066 0 LINE",
"1066 1264 LINE",
"943 1264 LINE",
"943 0 LINE"
);
},
{
closed = 1;
nodes = (
"333 0 LINE",
"333 1264 LINE",
"210 1264 LINE",
"210 0 LINE"
);
},
{
closed = 1;
nodes = (
"983 604 LINE",
"983 714 LINE",
"297 714 LINE",
"297 604 LINE"
);
}
);
width = 1276;
}
);
leftKerningGroup = H;
rightKerningGroup = H;
unicode = 0048;
},
{
glyphname = I;
lastChange = "2016-11-10 18:34:51 +0000";
layers = (
{
background = {
paths = (
{
closed = 1;
nodes = (
"333 0 LINE",
"333 1264 LINE",
"210 1264 LINE",
"210 0 LINE"
);
}
);
};
layerId = "785B6CE2-304A-4677-8076-DAC1C502AB09";
paths = (
{
closed = 1;
nodes = (
"333 0 LINE",
"333 1264 LINE",
"210 1264 LINE",
"210 0 LINE"
);
}
);
width = 543;
}
);
leftKerningGroup = H;
leftMetricsKey = H;
rightKerningGroup = H;
rightMetricsKey = H;
unicode = 0049;
},
{
glyphname = J;
lastChange = "2016-11-10 18:35:02 +0000";
layers = (
{
background = {
paths = (
{
closed = 1;
nodes = (
"10 33 LINE",
"74 2 OFFCURVE",
"141 -24 OFFCURVE",
"226 -24 CURVE SMOOTH",
"418 -24 OFFCURVE",
"489 103 OFFCURVE",
"489 232 CURVE SMOOTH",
"489 1264 LINE",
"366 1264 LINE",
"366 257 LINE SMOOTH",
"366 161 OFFCURVE",
"333 80 OFFCURVE",
"224 80 CURVE SMOOTH",
"133 80 OFFCURVE",
"77 121 OFFCURVE",
"20 149 CURVE",
"112 123 LINE",
"31 123 LINE",
"68 155 LINE",
"26 -24 LINE"
);
}
);
};
layerId = "785B6CE2-304A-4677-8076-DAC1C502AB09";
paths = (
{
closed = 1;
nodes = (
"10 33 LINE",
"74 2 OFFCURVE",
"141 -24 OFFCURVE",
"226 -24 CURVE SMOOTH",
"418 -24 OFFCURVE",
"489 103 OFFCURVE",
"489 232 CURVE SMOOTH",
"489 1264 LINE",
"366 1264 LINE",
"366 257 LINE SMOOTH",
"366 161 OFFCURVE",
"333 80 OFFCURVE",
"224 80 CURVE SMOOTH",
"133 80 OFFCURVE",
"77 121 OFFCURVE",
"20 149 CURVE",
"112 123 LINE",
"31 123 LINE",
"68 155 LINE",
"26 -24 LINE"
);
}
);
width = 699;
}
);
leftKerningGroup = J;
rightKerningGroup = H;
rightMetricsKey = H;
unicode = 004A;
},
{
glyphname = K;
lastChange = "2016-11-10 18:35:09 +0000";
layers = (
{
background = {
paths = (
{
closed = 1;
nodes = (
"333 0 LINE",
"333 1264 LINE",
"210 1264 LINE",
"210 0 LINE"
);
},
{
closed = 1;
nodes = (
"1099 0 LINE",
"1045 -54 LINE",
"1045 62 LINE",
"1078 -35 LINE",
"684 508 LINE SMOOTH",
"629 583 OFFCURVE",
"583 639 OFFCURVE",
"554 675 CURVE",
"452 609 LINE",
"902 0 LINE"
);
},
{
closed = 1;
nodes = (
"512 577 LINE",
"500 691 LINE",
"286 656 LINE",
"298 542 LINE"
);
},
{
closed = 1;
nodes = (
"552 658 OFFCURVE",
"604 714 OFFCURVE",
"634 755 CURVE SMOOTH",
"1034 1300 LINE",
"1001 1203 LINE",
"1001 1318 LINE",
"1055 1264 LINE",
"867 1264 LINE",
"393 612 LINE",
"513 609 LINE"
);
}
);
};
layerId = "785B6CE2-304A-4677-8076-DAC1C502AB09";
paths = (
{
closed = 1;
nodes = (
"333 0 LINE",
"333 1264 LINE",
"210 1264 LINE",
"210 0 LINE"
);
},
{
closed = 1;
nodes = (
"1099 0 LINE",
"1045 -54 LINE",
"1045 62 LINE",
"1078 -35 LINE",
"684 508 LINE SMOOTH",
"629 583 OFFCURVE",
"583 639 OFFCURVE",
"554 675 CURVE",
"452 609 LINE",
"902 0 LINE"
);
},
{
closed = 1;
nodes = (
"512 577 LINE",
"500 691 LINE",
"286 656 LINE",
"298 542 LINE"
);
},
{
closed = 1;
nodes = (
"552 658 OFFCURVE",
"604 714 OFFCURVE",
"634 755 CURVE SMOOTH",
"1034 1300 LINE",
"1001 1203 LINE",
"1001 1318 LINE",
"1055 1264 LINE",
"867 1264 LINE",
"393 612 LINE",
"513 609 LINE"
);
}
);
width = 1085;
}
);
leftKerningGroup = H;
leftMetricsKey = H;
unicode = 004B;
},
{
glyphname = L;
lastChange = "2016-11-10 18:35:15 +0000";
layers = (
{
anchors = (
{
name = bottom;
position = "{447, 0}";
},
{
name = center;
position = "{447, 632}";
},
{
name = top;
position = "{447, 1264}";
},
{
name = topright;
position = "{863, 1264}";
}
);
background = {
anchors = (
{
name = bottom;
position = "{447, 0}";
},
{
name = center;
position = "{447, 632}";
},
{
name = top;
position = "{447, 1264}";
},
{
name = topright;
position = "{863, 1264}";
}
);
paths = (
{
closed = 1;
nodes = (
"333 0 LINE",
"333 1264 LINE",
"210 1264 LINE",
"210 0 LINE"
);
},
{
closed = 1;
nodes = (
"883 0 LINE",
"883 112 LINE",
"297 112 LINE",
"297 0 LINE"
);
}
);
};
layerId = "785B6CE2-304A-4677-8076-DAC1C502AB09";
paths = (
{
closed = 1;
nodes = (
"333 0 LINE",
"333 1264 LINE",
"210 1264 LINE",
"210 0 LINE"
);
},
{
closed = 1;
nodes = (
"883 0 LINE",
"883 112 LINE",
"297 112 LINE",
"297 0 LINE"
);
}
);
width = 913;
}
);
leftKerningGroup = H;
leftMetricsKey = H;
rightKerningGroup = L;
unicode = 004C;
},
{
glyphname = M;
lastChange = "2016-11-10 18:35:53 +0000";
layers = (
{
background = {
paths = (
{
closed = 1;
nodes = (
"282 0 LINE",
"362 794 LINE",
"389 1234 LINE",
"335 1194 LINE",
"479 795 LINE",
"729 176 LINE",
"845 176 LINE",
"1096 802 LINE",
"1249 1226 LINE",
"1181 1220 LINE",
"1209 793 LINE",
"1293 0 LINE",
"1423 0 LINE",
"1280 1264 LINE",
"1162 1264 LINE",
"833 434 LINE",
"765 262 LINE",
"813 262 LINE",
"743 437 LINE",
"414 1264 LINE",
"296 1264 LINE",
"160 0 LINE"
);
}
);
};
guideLines = (
{
position = "{783, 800}";
},
{
position = "{776, 500}";
}
);
layerId = "785B6CE2-304A-4677-8076-DAC1C502AB09";
paths = (
{
closed = 1;
nodes = (
"282 0 LINE",
"362 794 LINE",
"389 1234 LINE",
"335 1194 LINE",
"479 795 LINE",
"729 176 LINE",
"845 176 LINE",
"1096 802 LINE",
"1249 1226 LINE",
"1181 1220 LINE",
"1209 793 LINE",
"1293 0 LINE",
"1423 0 LINE",
"1280 1264 LINE",
"1162 1264 LINE",
"833 434 LINE",
"765 262 LINE",
"813 262 LINE",
"743 437 LINE",
"414 1264 LINE",
"296 1264 LINE",
"160 0 LINE"
);
}
);
width = 1583;
}
);
unicode = 004D;
},
{
glyphname = N;
lastChange = "2016-11-10 18:36:06 +0000";
layers = (
{
anchors = (
{
name = bottom;
position = "{648, 0}";
},
{
name = top;
position = "{668, 1264}";
}
);
background = {
anchors = (
{
name = bottom;
position = "{648, 0}";
},
{
name = top;
position = "{668, 1264}";
}
);
paths = (
{
closed = 1;
nodes = (
"333 0 LINE",
"333 877 LINE",
"328 993 OFFCURVE",
"323 1110 OFFCURVE",
"318 1226 CURVE",
"273 1151 LINE",
"315 1077 OFFCURVE",
"357 1002 OFFCURVE",
"399 928 CURVE",
"970 0 LINE",
"1086 0 LINE",
"1086 1264 LINE",
"963 1264 LINE",
"963 409 LINE",
"968 315 OFFCURVE",
"973 222 OFFCURVE",
"978 128 CURVE",
"1014 126 LINE",
"973 201 OFFCURVE",
"931 276 OFFCURVE",
"890 351 CURVE",
"328 1264 LINE",
"210 1264 LINE",
"210 0 LINE"
);
}
);
};
layerId = "785B6CE2-304A-4677-8076-DAC1C502AB09";
paths = (
{
closed = 1;
nodes = (
"333 0 LINE",
"333 877 LINE",
"328 993 OFFCURVE",
"323 1110 OFFCURVE",
"318 1226 CURVE",
"273 1151 LINE",
"315 1077 OFFCURVE",
"357 1002 OFFCURVE",
"399 928 CURVE",
"970 0 LINE",
"1086 0 LINE",
"1086 1264 LINE",
"963 1264 LINE",
"963 409 LINE",
"968 315 OFFCURVE",
"973 222 OFFCURVE",
"978 128 CURVE",
"1014 126 LINE",
"973 201 OFFCURVE",
"931 276 OFFCURVE",
"890 351 CURVE",
"328 1264 LINE",
"210 1264 LINE",
"210 0 LINE"
);
}
);
width = 1296;
}
);
leftKerningGroup = H;
leftMetricsKey = H;
rightKerningGroup = H;
rightMetricsKey = H;
unicode = 004E;
},
{
glyphname = O;
lastChange = "2016-11-10 18:36:09 +0000";
layers = (
{
anchors = (
{
name = bottom;
position = "{648, 0}";
},
{
name = center;
position = "{648, 632}";
},
{
name = ogonek;
position = "{1166, 10}";
},
{
name = top;
position = "{648, 1264}";
},
{
name = topleft;
position = "{20, 1264}";
},
{
name = topright;
position = "{1276, 1264}";
}
);
background = {
anchors = (
{
name = bottom;
position = "{648, 0}";
},
{
name = center;
position = "{648, 632}";
},
{
name = ogonek;
position = "{1166, 10}";
},
{
name = top;
position = "{648, 1264}";
},
{
name = topleft;
position = "{20, 1264}";
},
{
name = topright;
position = "{1276, 1264}";
}
);
paths = (
{
closed = 1;
nodes = (
"976 -24 OFFCURVE",
"1166 229 OFFCURVE",
"1166 647 CURVE SMOOTH",
"1166 1046 OFFCURVE",
"996 1288 OFFCURVE",
"662 1288 CURVE SMOOTH",
"321 1288 OFFCURVE",
"130 1038 OFFCURVE",
"130 618 CURVE SMOOTH",
"130 221 OFFCURVE",
"300 -24 OFFCURVE",
"634 -24 CURVE SMOOTH"
);
},
{
closed = 1;
nodes = (
"413 86 OFFCURVE",
"261 256 OFFCURVE",
"261 631 CURVE SMOOTH",
"261 1012 OFFCURVE",
"418 1178 OFFCURVE",
"648 1178 CURVE SMOOTH",
"879 1178 OFFCURVE",
"1035 1010 OFFCURVE",
"1035 629 CURVE SMOOTH",
"1035 255 OFFCURVE",
"884 86 OFFCURVE",
"650 86 CURVE SMOOTH"
);
}
);
};
layerId = "785B6CE2-304A-4677-8076-DAC1C502AB09";
paths = (
{
closed = 1;
nodes = (
"976 -24 OFFCURVE",
"1166 229 OFFCURVE",
"1166 647 CURVE SMOOTH",
"1166 1046 OFFCURVE",
"996 1288 OFFCURVE",
"662 1288 CURVE SMOOTH",
"321 1288 OFFCURVE",
"130 1038 OFFCURVE",
"130 618 CURVE SMOOTH",
"130 221 OFFCURVE",
"300 -24 OFFCURVE",
"634 -24 CURVE SMOOTH"
);
},
{
closed = 1;
nodes = (
"413 86 OFFCURVE",
"261 256 OFFCURVE",
"261 631 CURVE SMOOTH",
"261 1012 OFFCURVE",
"418 1178 OFFCURVE",
"648 1178 CURVE SMOOTH",
"879 1178 OFFCURVE",
"1035 1010 OFFCURVE",
"1035 629 CURVE SMOOTH",
"1035 255 OFFCURVE",
"884 86 OFFCURVE",
"650 86 CURVE SMOOTH"
);
}
);
width = 1296;
}
);
leftKerningGroup = O;
rightKerningGroup = O;
unicode = 004F;
},
{
glyphname = P;
lastChange = "2016-11-10 18:36:14 +0000";
layers = (
{
background = {
paths = (
{
closed = 1;
nodes = (
"560 505 LINE SMOOTH",
"807 505 OFFCURVE",
"993 663 OFFCURVE",
"993 899 CURVE SMOOTH",
"993 1149 OFFCURVE",
"801 1264 OFFCURVE",
"569 1264 CURVE SMOOTH",
"297 1264 LINE",
"297 1154 LINE",
"543 1154 LINE SMOOTH",
"760 1154 OFFCURVE",
"863 1061 OFFCURVE",
"863 883 CURVE SMOOTH",
"863 699 OFFCURVE",
"739 614 OFFCURVE",
"550 614 CURVE SMOOTH",
"309 614 LINE",
"309 505 LINE"
);
},
{
closed = 1;
nodes = (
"333 0 LINE",
"333 1264 LINE",
"210 1264 LINE",
"210 0 LINE"
);
}
);
};
layerId = "785B6CE2-304A-4677-8076-DAC1C502AB09";
paths = (
{
closed = 1;
nodes = (
"560 505 LINE SMOOTH",
"807 505 OFFCURVE",
"993 663 OFFCURVE",
"993 899 CURVE SMOOTH",
"993 1149 OFFCURVE",
"801 1264 OFFCURVE",
"569 1264 CURVE SMOOTH",
"297 1264 LINE",
"297 1154 LINE",
"543 1154 LINE SMOOTH",
"760 1154 OFFCURVE",
"863 1061 OFFCURVE",
"863 883 CURVE SMOOTH",
"863 699 OFFCURVE",
"739 614 OFFCURVE",
"550 614 CURVE SMOOTH",
"309 614 LINE",
"309 505 LINE"
);
},
{
closed = 1;
nodes = (
"333 0 LINE",
"333 1264 LINE",
"210 1264 LINE",
"210 0 LINE"
);
}
);
width = 1093;
}
);
leftKerningGroup = H;
leftMetricsKey = H;
rightKerningGroup = P;
unicode = 0050;
},
{
glyphname = Q;
lastChange = "2016-11-10 18:36:17 +0000";
layers = (
{
background = {
paths = (
{
closed = 1;
nodes = (
"949 -24 OFFCURVE",
"1166 216 OFFCURVE",
"1166 647 CURVE SMOOTH",
"1166 1046 OFFCURVE",
"996 1288 OFFCURVE",
"662 1288 CURVE SMOOTH",
"321 1288 OFFCURVE",
"130 1038 OFFCURVE",
"130 618 CURVE SMOOTH",
"130 221 OFFCURVE",
"300 -24 OFFCURVE",
"634 -24 CURVE SMOOTH"
);
},
{
closed = 1;
nodes = (
"1134 -220 LINE",
"1134 -213 LINE",
"780 414 LINE",
"653 414 LINE",
"653 407 LINE",
"1007 -220 LINE"
);
},
{
closed = 1;
nodes = (
"413 86 OFFCURVE",
"261 256 OFFCURVE",
"261 631 CURVE SMOOTH",
"261 1012 OFFCURVE",
"418 1178 OFFCURVE",
"648 1178 CURVE SMOOTH",
"879 1178 OFFCURVE",
"1035 1010 OFFCURVE",
"1035 629 CURVE SMOOTH",
"1035 255 OFFCURVE",
"892 86 OFFCURVE",
"650 86 CURVE SMOOTH"
);
}
);
};
layerId = "785B6CE2-304A-4677-8076-DAC1C502AB09";
paths = (
{
closed = 1;
nodes = (
"949 -24 OFFCURVE",
"1166 216 OFFCURVE",
"1166 647 CURVE SMOOTH",
"1166 1046 OFFCURVE",
"996 1288 OFFCURVE",
"662 1288 CURVE SMOOTH",
"321 1288 OFFCURVE",
"130 1038 OFFCURVE",
"130 618 CURVE SMOOTH",
"130 221 OFFCURVE",
"300 -24 OFFCURVE",
"634 -24 CURVE SMOOTH"
);
},
{
closed = 1;
nodes = (
"1134 -220 LINE",
"1134 -213 LINE",
"780 414 LINE",
"653 414 LINE",
"653 407 LINE",
"1007 -220 LINE"
);
},
{
closed = 1;
nodes = (
"413 86 OFFCURVE",
"261 256 OFFCURVE",
"261 631 CURVE SMOOTH",
"261 1012 OFFCURVE",
"418 1178 OFFCURVE",
"648 1178 CURVE SMOOTH",
"879 1178 OFFCURVE",
"1035 1010 OFFCURVE",
"1035 629 CURVE SMOOTH",
"1035 255 OFFCURVE",
"892 86 OFFCURVE",
"650 86 CURVE SMOOTH"
);
}
);
width = 1296;
}
);
leftKerningGroup = O;
rightKerningGroup = O;
unicode = 0051;
},
{
glyphname = R;
lastChange = "2016-11-10 18:36:22 +0000";
layers = (
{
background = {
paths = (
{
closed = 1;
nodes = (
"506 585 LINE",
"560 600 LINE",
"807 600 OFFCURVE",
"973 744 OFFCURVE",
"973 944 CURVE SMOOTH",
"973 1162 OFFCURVE",
"799 1264 OFFCURVE",
"569 1264 CURVE SMOOTH",
"297 1264 LINE",
"297 1154 LINE",
"543 1154 LINE SMOOTH",
"760 1154 OFFCURVE",
"843 1077 OFFCURVE",
"843 928 CURVE SMOOTH",
"843 779 OFFCURVE",
"739 694 OFFCURVE",
"550 694 CURVE SMOOTH",
"309 694 LINE",
"309 585 LINE"
);
},
{
closed = 1;
nodes = (
"333 0 LINE",
"333 1264 LINE",
"210 1264 LINE",
"210 0 LINE"
);
},
{
closed = 1;
nodes = (
"1115 0 LINE",
"1061 -54 LINE",
"1061 62 LINE",
"1094 -35 LINE",
"728 482 LINE SMOOTH",
"686 541 OFFCURVE",
"629 613 OFFCURVE",
"579 679 CURVE",
"487 609 LINE",
"924 0 LINE"
);
}
);
};
layerId = "785B6CE2-304A-4677-8076-DAC1C502AB09";
paths = (
{
closed = 1;
nodes = (
"506 585 LINE",
"560 600 LINE",
"807 600 OFFCURVE",
"973 744 OFFCURVE",
"973 944 CURVE SMOOTH",
"973 1162 OFFCURVE",
"799 1264 OFFCURVE",
"569 1264 CURVE SMOOTH",
"297 1264 LINE",
"297 1154 LINE",
"543 1154 LINE SMOOTH",
"760 1154 OFFCURVE",
"843 1077 OFFCURVE",
"843 928 CURVE SMOOTH",
"843 779 OFFCURVE",
"739 694 OFFCURVE",
"550 694 CURVE SMOOTH",
"309 694 LINE",
"309 585 LINE"
);
},
{
closed = 1;
nodes = (
"333 0 LINE",
"333 1264 LINE",
"210 1264 LINE",
"210 0 LINE"
);
},
{
closed = 1;
nodes = (
"1115 0 LINE",
"1061 -54 LINE",
"1061 62 LINE",
"1094 -35 LINE",
"728 482 LINE SMOOTH",
"686 541 OFFCURVE",
"629 613 OFFCURVE",
"579 679 CURVE",
"487 609 LINE",
"924 0 LINE"
);
}
);
width = 1124;
}
);
leftKerningGroup = H;
leftMetricsKey = H;
rightKerningGroup = R;
unicode = 0052;
},
{
glyphname = S;
lastChange = "2016-11-10 18:36:40 +0000";
layers = (
{
anchors = (
{
name = bottom;
position = "{515, 0}";
},
{
name = top;
position = "{515, 1264}";
}
);
background = {
anchors = (
{
name = bottom;
position = "{515, 0}";
},
{
name = top;
position = "{515, 1264}";
}
);
paths = (
{
closed = 1;
nodes = (
"761 -24 OFFCURVE",
"915 134 OFFCURVE",
"915 332 CURVE SMOOTH",
"915 554 OFFCURVE",
"723 631 OFFCURVE",
"542 715 CURVE SMOOTH",
"354 802 OFFCURVE",
"277 847 OFFCURVE",
"277 966 CURVE SMOOTH",
"277 1073 OFFCURVE",
"340 1180 OFFCURVE",
"509 1180 CURVE SMOOTH",
"618 1180 OFFCURVE",
"738 1136 OFFCURVE",
"866 1049 CURVE",
"797 1078 LINE",
"915 1078 LINE",
"812 1034 LINE",
"869 1218 LINE",
"912 1164 LINE",
"809 1247 OFFCURVE",
"661 1288 OFFCURVE",
"533 1288 CURVE SMOOTH",
"293 1288 OFFCURVE",
"153 1143 OFFCURVE",
"153 951 CURVE SMOOTH",
"153 720 OFFCURVE",
"354 661 OFFCURVE",
"526 588 CURVE SMOOTH",
"705 512 OFFCURVE",
"791 442 OFFCURVE",
"791 313 CURVE SMOOTH",
"791 168 OFFCURVE",
"681 83 OFFCURVE",
"520 83 CURVE SMOOTH",
"346 83 OFFCURVE",
"207 182 OFFCURVE",
"85 270 CURVE",
"192 233 LINE",
"51 233 LINE",
"120 307 LINE",
"120 30 LINE",
"94 121 LINE",
"171 43 OFFCURVE",
"322 -24 OFFCURVE",
"495 -24 CURVE SMOOTH"
);
}
);
};
layerId = "785B6CE2-304A-4677-8076-DAC1C502AB09";
paths = (
{
closed = 1;
nodes = (
"761 -24 OFFCURVE",
"915 134 OFFCURVE",
"915 332 CURVE SMOOTH",
"915 554 OFFCURVE",
"723 631 OFFCURVE",
"542 715 CURVE SMOOTH",
"354 802 OFFCURVE",
"277 847 OFFCURVE",
"277 966 CURVE SMOOTH",
"277 1073 OFFCURVE",
"340 1180 OFFCURVE",
"509 1180 CURVE SMOOTH",
"618 1180 OFFCURVE",
"738 1136 OFFCURVE",
"866 1049 CURVE",
"797 1078 LINE",
"915 1078 LINE",
"812 1034 LINE",
"869 1218 LINE",
"912 1164 LINE",
"809 1247 OFFCURVE",
"661 1288 OFFCURVE",
"533 1288 CURVE SMOOTH",
"293 1288 OFFCURVE",
"153 1143 OFFCURVE",
"153 951 CURVE SMOOTH",
"153 720 OFFCURVE",
"354 661 OFFCURVE",
"526 588 CURVE SMOOTH",
"705 512 OFFCURVE",
"791 442 OFFCURVE",
"791 313 CURVE SMOOTH",
"791 168 OFFCURVE",
"681 83 OFFCURVE",
"520 83 CURVE SMOOTH",
"346 83 OFFCURVE",
"207 182 OFFCURVE",
"85 270 CURVE",
"192 233 LINE",
"51 233 LINE",
"120 307 LINE",
"120 30 LINE",
"94 121 LINE",
"171 43 OFFCURVE",
"322 -24 OFFCURVE",
"495 -24 CURVE SMOOTH"
);
}
);
width = 1030;
}
);
leftKerningGroup = S;
rightKerningGroup = S;
unicode = 0053;
},
{
glyphname = T;
lastChange = "2016-11-10 18:36:44 +0000";
layers = (
{
background = {
paths = (
{
closed = 1;
nodes = (
"533 0 LINE",
"533 1264 LINE",
"410 1264 LINE",
"410 0 LINE"
);
},
{
closed = 1;
nodes = (
"906 1155 LINE",
"917 1264 LINE",
"28 1264 LINE",
"28 1155 LINE"
);
}
);
};
layerId = "785B6CE2-304A-4677-8076-DAC1C502AB09";
paths = (
{
closed = 1;
nodes = (
"533 0 LINE",
"533 1264 LINE",
"410 1264 LINE",
"410 0 LINE"
);
},
{
closed = 1;
nodes = (
"906 1155 LINE",
"917 1264 LINE",
"28 1264 LINE",
"28 1155 LINE"
);
}
);
width = 939;
}
);
leftKerningGroup = T;
rightKerningGroup = T;
unicode = 0054;
},
{
glyphname = U;
lastChange = "2016-11-10 18:25:34 +0000";
layers = (
{
anchors = (
{
name = bottom;
position = "{640, 0}";
},
{
name = ogonek;
position = "{730, 0}";
},
{
name = top;
position = "{640, 1264}";
},
{
name = topright;
position = "{1250, 1264}";
}
);
background = {
anchors = (
{
name = bottom;
position = "{640, 0}";
},
{
name = ogonek;
position = "{730, 0}";
},
{
name = top;
position = "{640, 1264}";
},
{
name = topright;
position = "{1250, 1264}";
}
);
paths = (
{
closed = 1;
nodes = (
"898 -24 OFFCURVE",
"1070 141 OFFCURVE",
"1070 419 CURVE SMOOTH",
"1070 1264 LINE",
"947 1264 LINE",
"947 430 LINE SMOOTH",
"947 174 OFFCURVE",
"805 86 OFFCURVE",
"640 86 CURVE SMOOTH",
"475 86 OFFCURVE",
"333 176 OFFCURVE",
"333 432 CURVE SMOOTH",
"333 1264 LINE",
"210 1264 LINE",
"210 419 LINE SMOOTH",
"210 127 OFFCURVE",
"372 -24 OFFCURVE",
"640 -24 CURVE SMOOTH"
);
}
);
};
layerId = "785B6CE2-304A-4677-8076-DAC1C502AB09";
paths = (
{
closed = 1;
nodes = (
"898 -24 OFFCURVE",
"1070 141 OFFCURVE",
"1070 419 CURVE SMOOTH",
"1070 1264 LINE",
"947 1264 LINE",
"947 430 LINE SMOOTH",
"947 174 OFFCURVE",
"805 86 OFFCURVE",
"640 86 CURVE SMOOTH",
"475 86 OFFCURVE",
"333 176 OFFCURVE",
"333 432 CURVE SMOOTH",
"333 1264 LINE",
"210 1264 LINE",
"210 419 LINE SMOOTH",
"210 127 OFFCURVE",
"372 -24 OFFCURVE",
"640 -24 CURVE SMOOTH"
);
}
);
width = 1280;
}
);
leftMetricsKey = H;
rightMetricsKey = H;
unicode = 0055;
},
{
glyphname = V;
lastChange = "2016-11-10 18:36:54 +0000";
layers = (
{
background = {
paths = (
{
closed = 1;
nodes = (
"634 0 LINE",
"1101 1264 LINE",
"974 1264 LINE",
"635 348 LINE",
"553 82 LINE",
"608 81 LINE",
"522 352 LINE",
"180 1264 LINE",
"50 1264 LINE",
"518 0 LINE"
);
}
);
};
layerId = "785B6CE2-304A-4677-8076-DAC1C502AB09";
paths = (
{
closed = 1;
nodes = (
"634 0 LINE",
"1101 1264 LINE",
"974 1264 LINE",
"635 348 LINE",
"553 82 LINE",
"608 81 LINE",
"522 352 LINE",
"180 1264 LINE",
"50 1264 LINE",
"518 0 LINE"
);
}
);
width = 1151;
}
);
leftKerningGroup = V;
rightKerningGroup = V;
unicode = 0056;
},
{
glyphname = W;
lastChange = "2016-11-10 18:37:28 +0000";
layers = (
{
background = {
paths = (
{
closed = 1;
nodes = (
"540 0 LINE",
"780 847 LINE SMOOTH",
"791 886 OFFCURVE",
"850 1125 OFFCURVE",
"885 1264 CURVE",
"784 1264 LINE",
"565 496 LINE SMOOTH",
"551 445 OFFCURVE",
"498 221 OFFCURVE",
"465 84 CURVE",
"517 82 LINE",
"424 493 LINE",
"220 1264 LINE",
"90 1264 LINE",
"424 0 LINE"
);
},
{
closed = 1;
nodes = (
"1259 0 LINE",
"1592 1264 LINE",
"1470 1264 LINE",
"1267 492 LINE",
"1174 83 LINE",
"1220 84 LINE",
"1186 220 OFFCURVE",
"1132 446 OFFCURVE",
"1119 493 CURVE SMOOTH",
"900 1264 LINE",
"794 1264 LINE",
"830 1125 OFFCURVE",
"891 886 OFFCURVE",
"902 848 CURVE SMOOTH",
"1142 0 LINE"
);
}
);
};
guideLines = (
{
position = "{529, 494}";
},
{
position = "{710, 850}";
}
);
layerId = "785B6CE2-304A-4677-8076-DAC1C502AB09";
paths = (
{
closed = 1;
nodes = (
"540 0 LINE",
"780 847 LINE SMOOTH",
"791 886 OFFCURVE",
"850 1125 OFFCURVE",
"885 1264 CURVE",
"784 1264 LINE",
"565 496 LINE SMOOTH",
"551 445 OFFCURVE",
"498 221 OFFCURVE",
"465 84 CURVE",
"517 82 LINE",
"424 493 LINE",
"220 1264 LINE",
"90 1264 LINE",
"424 0 LINE"
);
},
{
closed = 1;
nodes = (
"1259 0 LINE",
"1592 1264 LINE",
"1470 1264 LINE",
"1267 492 LINE",
"1174 83 LINE",
"1220 84 LINE",
"1186 220 OFFCURVE",
"1132 446 OFFCURVE",
"1119 493 CURVE SMOOTH",
"900 1264 LINE",
"794 1264 LINE",
"830 1125 OFFCURVE",
"891 886 OFFCURVE",
"902 848 CURVE SMOOTH",
"1142 0 LINE"
);
}
);
width = 1682;
}
);
leftKerningGroup = W;
rightKerningGroup = W;
unicode = 0057;
},
{
glyphname = X;
lastChange = "2016-11-10 18:25:34 +0000";
layers = (
{
background = {
paths = (
{
closed = 1;
nodes = (
"198 0 LINE",
"570 637 LINE",
"510 755 LINE",
"60 0 LINE"
);
},
{
closed = 1;
nodes = (
"1018 0 LINE",
"612 694 LINE",
"533 590 LINE",
"880 0 LINE"
);
},
{
closed = 1;
nodes = (
"588 694 LINE",
"254 1264 LINE",
"116 1264 LINE",
"510 590 LINE"
);
},
{
closed = 1;
nodes = (
"980 1264 LINE",
"843 1264 LINE",
"511 696 LINE",
"569 578 LINE"
);
}
);
};
layerId = "785B6CE2-304A-4677-8076-DAC1C502AB09";
paths = (
{
closed = 1;
nodes = (
"198 0 LINE",
"570 637 LINE",
"510 755 LINE",
"60 0 LINE"
);
},
{
closed = 1;
nodes = (
"1018 0 LINE",
"612 694 LINE",
"533 590 LINE",
"880 0 LINE"
);
},
{
closed = 1;
nodes = (
"588 694 LINE",
"254 1264 LINE",
"116 1264 LINE",
"510 590 LINE"
);
},
{
closed = 1;
nodes = (
"980 1264 LINE",
"843 1264 LINE",
"511 696 LINE",
"569 578 LINE"
);
}
);
width = 1078;
},
{
associatedMasterId = "785B6CE2-304A-4677-8076-DAC1C502AB09";
background = {
paths = (
{
closed = 1;
nodes = (
"992 0 LINE",
"992 1264 LINE",
"869 1264 LINE",
"869 0 LINE"
);
},
{
closed = 1;
nodes = (
"259 0 LINE",
"259 1264 LINE",
"136 1264 LINE",
"136 0 LINE"
);
},
{
closed = 1;
nodes = (
"909 604 LINE",
"909 714 LINE",
"223 714 LINE",
"223 604 LINE"
);
}
);
};
layerId = "DA21A985-1995-441E-8D17-A32FDA04858E";
name = "Light Aug 5 16, 17:37";
paths = (
{
closed = 1;
nodes = (
"174 0 LINE",
"586 637 LINE",
"532 755 LINE",
"34 0 LINE"
);
},
{
closed = 1;
nodes = (
"1063 0 LINE",
"613 694 LINE",
"540 590 LINE",
"923 0 LINE"
);
},
{
closed = 1;
nodes = (
"588 694 LINE",
"218 1264 LINE",
"78 1264 LINE",
"514 590 LINE"
);
},
{
closed = 1;
nodes = (
"1040 1264 LINE",
"902 1264 LINE",
"534 696 LINE",
"585 578 LINE"
);
}
);
width = 1097;
},
{
associatedMasterId = "785B6CE2-304A-4677-8076-DAC1C502AB09";
background = {
paths = (
{
closed = 1;
nodes = (
"232 0 LINE",
"604 637 LINE",
"544 755 LINE",
"94 0 LINE"
);
},
{
closed = 1;
nodes = (
"1052 0 LINE",
"646 694 LINE",
"567 590 LINE",
"914 0 LINE"
);
},
{
closed = 1;
nodes = (
"622 694 LINE",
"288 1264 LINE",
"150 1264 LINE",
"544 590 LINE"
);
},
{
closed = 1;
nodes = (
"1014 1264 LINE",
"877 1264 LINE",
"545 696 LINE",
"603 578 LINE"
);
},
{
closed = 1;
nodes = (
"273 0 LINE",
"564 496 LINE",
"388 588 LINE",
"30 0 LINE"
);
},
{
closed = 1;
nodes = (
"969 0 LINE",
"649 540 LINE",
"443 459 LINE",
"711 0 LINE"
);
},
{
closed = 1;
nodes = (
"579 540 LINE",
"313 997 LINE",
"55 997 LINE",
"373 459 LINE"
);
},
{
closed = 1;
nodes = (
"935 997 LINE",
"704 997 LINE",
"439 542 LINE",
"603 450 LINE"
);
}
);
};
layerId = "6E92C141-D3B3-4D83-B200-20F56ED7984B";
name = "Bold Aug 9 16, 21:01";
paths = (
{
closed = 1;
nodes = (
"273 0 LINE",
"676 686 LINE",
"480 778 LINE",
"10 0 LINE"
);
},
{
closed = 1;
nodes = (
"1141 0 LINE",
"734 690 LINE",
"510 609 LINE",
"865 0 LINE"
);
},
{
closed = 1;
nodes = (
"655 717 LINE",
"328 1277 LINE",
"52 1277 LINE",
"431 636 LINE"
);
},
{
closed = 1;
nodes = (
"1101 1277 LINE",
"850 1277 LINE",
"513 699 LINE",
"697 607 LINE"
);
}
);
width = 1151;
}
);
leftKerningGroup = X;
rightKerningGroup = X;
unicode = 0058;
},
{
glyphname = Y;
lastChange = "2016-11-10 18:37:39 +0000";
layers = (
{
anchors = (
{
name = bottom;
position = "{527, 0}";
},
{
name = top;
position = "{527, 1264}";
},
{
name = topleft;
position = "{30, 1264}";
}
);
background = {
anchors = (
{
name = bottom;
position = "{527, 0}";
},
{
name = top;
position = "{527, 1264}";
},
{
name = topleft;
position = "{30, 1264}";
}
);
paths = (
{
closed = 1;
nodes = (
"583 0 LINE",
"583 532 LINE",
"558 430 LINE",
"1004 1264 LINE",
"867 1264 LINE",
"576 694 LINE",
"506 543 LINE",
"550 543 LINE",
"480 694 LINE",
"188 1264 LINE",
"50 1264 LINE",
"485 431 LINE",
"460 533 LINE",
"460 0 LINE"
);
}
);
};
layerId = "785B6CE2-304A-4677-8076-DAC1C502AB09";
paths = (
{
closed = 1;
nodes = (
"583 0 LINE",
"583 532 LINE",
"558 430 LINE",
"1004 1264 LINE",
"867 1264 LINE",
"576 694 LINE",
"506 543 LINE",
"550 543 LINE",
"480 694 LINE",
"188 1264 LINE",
"50 1264 LINE",
"485 431 LINE",
"460 533 LINE",
"460 0 LINE"
);
}
);
width = 1054;
}
);
leftKerningGroup = Y;
rightKerningGroup = Y;
unicode = 0059;
},
{
glyphname = Z;
lastChange = "2016-11-10 18:37:46 +0000";
layers = (
{
anchors = (
{
name = bottom;
position = "{499, 0}";
},
{
name = top;
position = "{499, 1264}";
}
);
background = {
anchors = (
{
name = bottom;
position = "{499, 0}";
},
{
name = top;
position = "{499, 1264}";
}
);
paths = (
{
closed = 1;
nodes = (
"914 0 LINE",
"914 110 LINE",
"189 110 LINE",
"215 64 LINE",
"915 1200 LINE",
"890 1100 LINE",
"890 1318 LINE",
"941 1264 LINE",
"126 1264 LINE",
"126 1154 LINE",
"811 1154 LINE",
"785 1200 LINE",
"85 64 LINE",
"110 164 LINE",
"110 -54 LINE",
"59 0 LINE"
);
}
);
};
layerId = "785B6CE2-304A-4677-8076-DAC1C502AB09";
paths = (
{
closed = 1;
nodes = (
"914 0 LINE",
"914 110 LINE",
"189 110 LINE",
"215 64 LINE",
"915 1200 LINE",
"890 1100 LINE",
"890 1318 LINE",
"941 1264 LINE",
"126 1264 LINE",
"126 1154 LINE",
"811 1154 LINE",
"785 1200 LINE",
"85 64 LINE",
"110 164 LINE",
"110 -54 LINE",
"59 0 LINE"
);
}
);
width = 994;
}
);
leftKerningGroup = Z;
rightKerningGroup = Z;
unicode = 005A;
},
{
glyphname = I.alt;
lastChange = "2016-11-10 18:25:34 +0000";
layers = (
{
background = {
paths = (
{
closed = 1;
nodes = (
"443 0 LINE",
"443 1264 LINE",
"320 1264 LINE",
"320 0 LINE"
);
},
{
closed = 1;
nodes = (
"603 1155 LINE",
"603 1264 LINE",
"160 1264 LINE",
"160 1155 LINE"
);
},
{
closed = 1;
nodes = (
"603 0 LINE",
"603 109 LINE",
"160 109 LINE",
"160 0 LINE"
);
}
);
};
layerId = "785B6CE2-304A-4677-8076-DAC1C502AB09";
paths = (
{
closed = 1;
nodes = (
"443 0 LINE",
"443 1264 LINE",
"320 1264 LINE",
"320 0 LINE"
);
},
{
closed = 1;
nodes = (
"603 1155 LINE",
"603 1264 LINE",
"160 1264 LINE",
"160 1155 LINE"
);
},
{
closed = 1;
nodes = (
"603 0 LINE",
"603 109 LINE",
"160 109 LINE",
"160 0 LINE"
);
}
);
width = 763;
}
);
},
{
glyphname = J.alt;
lastChange = "2016-11-10 18:37:52 +0000";
layers = (
{
background = {
paths = (
{
closed = 1;
nodes = (
"590 -24 OFFCURVE",
"700 103 OFFCURVE",
"700 288 CURVE SMOOTH",
"700 1264 LINE",
"577 1264 LINE",
"577 309 LINE SMOOTH",
"577 157 OFFCURVE",
"514 86 OFFCURVE",
"350 86 CURVE SMOOTH",
"182 86 OFFCURVE",
"107 145 OFFCURVE",
"48 171 CURVE",
"138 154 LINE",
"24 154 LINE",
"81 186 LINE",
"35 -4 LINE",
"6 62 LINE",
"99 14 OFFCURVE",
"168 -24 OFFCURVE",
"348 -24 CURVE SMOOTH"
);
},
{
closed = 1;
nodes = (
"689 1154 LINE",
"700 1264 LINE",
"94 1264 LINE",
"94 1154 LINE"
);
}
);
};
layerId = "785B6CE2-304A-4677-8076-DAC1C502AB09";
paths = (
{
closed = 1;
nodes = (
"590 -24 OFFCURVE",
"700 103 OFFCURVE",
"700 288 CURVE SMOOTH",
"700 1264 LINE",
"577 1264 LINE",
"577 309 LINE SMOOTH",
"577 157 OFFCURVE",
"514 86 OFFCURVE",
"350 86 CURVE SMOOTH",
"182 86 OFFCURVE",
"107 145 OFFCURVE",
"48 171 CURVE",
"138 154 LINE",
"24 154 LINE",
"81 186 LINE",
"35 -4 LINE",
"6 62 LINE",
"99 14 OFFCURVE",
"168 -24 OFFCURVE",
"348 -24 CURVE SMOOTH"
);
},
{
closed = 1;
nodes = (
"689 1154 LINE",
"700 1264 LINE",
"94 1264 LINE",
"94 1154 LINE"
);
}
);
width = 910;
}
);
rightMetricsKey = H;
},
{
glyphname = a;
lastChange = "2016-11-10 18:40:43 +0000";
layers = (
{
anchors = (
{
name = bottom;
position = "{522, 0}";
},
{
name = ogonek;
position = "{789, 0}";
},
{
name = top;
position = "{522, 984}";
}
);
background = {
anchors = (
{
name = bottom;
position = "{522, 0}";
},
{
name = ogonek;
position = "{789, 0}";
},
{
name = top;
position = "{522, 984}";
}
);
paths = (
{
closed = 1;
nodes = (
"851 0 LINE",
"851 679 LINE SMOOTH",
"851 907 OFFCURVE",
"719 1008 OFFCURVE",
"506 1008 CURVE SMOOTH",
"352 1008 OFFCURVE",
"230 974 OFFCURVE",
"137 911 CURVE",
"162 970 LINE",
"162 765 LINE",
"108 817 LINE",
"222 817 LINE",
"152 806 LINE",
"255 870 OFFCURVE",
"378 902 OFFCURVE",
"491 902 CURVE SMOOTH",
"645 902 OFFCURVE",
"731 834 OFFCURVE",
"731 677 CURVE SMOOTH",
"731 181 LINE",
"745 167 LINE",
"745 0 LINE"
);
},
{
closed = 1;
nodes = (
"548 -24 OFFCURVE",
"646 31 OFFCURVE",
"803 186 CURVE",
"745 265 LINE",
"635 147 OFFCURVE",
"552 81 OFFCURVE",
"434 81 CURVE SMOOTH",
"303 81 OFFCURVE",
"242 162 OFFCURVE",
"242 267 CURVE SMOOTH",
"242 395 OFFCURVE",
"332 463 OFFCURVE",
"485 463 CURVE SMOOTH",
"530 463 OFFCURVE",
"634 457 OFFCURVE",
"743 448 CURVE",
"743 547 LINE",
"603 556 OFFCURVE",
"532 560 OFFCURVE",
"491 560 CURVE SMOOTH",
"276 560 OFFCURVE",
"115 461 OFFCURVE",
"115 261 CURVE SMOOTH",
"115 110 OFFCURVE",
"212 -24 OFFCURVE",
"417 -24 CURVE SMOOTH"
);
}
);
};
layerId = "785B6CE2-304A-4677-8076-DAC1C502AB09";
paths = (
{
closed = 1;
nodes = (
"851 0 LINE",
"851 679 LINE SMOOTH",
"851 907 OFFCURVE",
"719 1008 OFFCURVE",
"506 1008 CURVE SMOOTH",
"352 1008 OFFCURVE",
"230 974 OFFCURVE",
"137 911 CURVE",
"162 970 LINE",
"162 765 LINE",
"108 817 LINE",
"222 817 LINE",
"152 806 LINE",
"255 870 OFFCURVE",
"378 902 OFFCURVE",
"491 902 CURVE SMOOTH",
"645 902 OFFCURVE",
"731 834 OFFCURVE",
"731 677 CURVE SMOOTH",
"731 181 LINE",
"745 167 LINE",
"745 0 LINE"
);
},
{
closed = 1;
nodes = (
"548 -24 OFFCURVE",
"646 31 OFFCURVE",
"803 186 CURVE",
"745 265 LINE",
"635 147 OFFCURVE",
"552 81 OFFCURVE",
"434 81 CURVE SMOOTH",
"303 81 OFFCURVE",
"242 162 OFFCURVE",
"242 267 CURVE SMOOTH",
"242 395 OFFCURVE",
"332 463 OFFCURVE",
"485 463 CURVE SMOOTH",
"530 463 OFFCURVE",
"634 457 OFFCURVE",
"743 448 CURVE",
"743 547 LINE",
"603 556 OFFCURVE",
"532 560 OFFCURVE",
"491 560 CURVE SMOOTH",
"276 560 OFFCURVE",
"115 461 OFFCURVE",
"115 261 CURVE SMOOTH",
"115 110 OFFCURVE",
"212 -24 OFFCURVE",
"417 -24 CURVE SMOOTH"
);
}
);
width = 1043;
}
);
leftKerningGroup = a;
unicode = 0061;
},
{
glyphname = b;
lastChange = "2016-11-10 18:41:05 +0000";
layers = (
{
background = {
paths = (
{
closed = 1;
nodes = (
"848 -24 OFFCURVE",
"995 177 OFFCURVE",
"995 511 CURVE SMOOTH",
"995 828 OFFCURVE",
"864 1008 OFFCURVE",
"638 1008 CURVE SMOOTH",
"507 1008 OFFCURVE",
"409 943 OFFCURVE",
"266 779 CURVE",
"312 695 LINE",
"436 844 OFFCURVE",
"521 904 OFFCURVE",
"623 904 CURVE SMOOTH",
"777 904 OFFCURVE",
"868 768 OFFCURVE",
"868 497 CURVE SMOOTH",
"868 205 OFFCURVE",
"764 80 OFFCURVE",
"538 80 CURVE SMOOTH",
"448 80 OFFCURVE",
"345 112 OFFCURVE",
"261 161 CURVE",
"200 54 LINE",
"282 12 OFFCURVE",
"416 -24 OFFCURVE",
"526 -24 CURVE SMOOTH"
);
},
{
closed = 1;
nodes = (
"320 54 LINE",
"320 1377 LINE",
"200 1377 LINE",
"200 54 LINE"
);
}
);
};
layerId = "785B6CE2-304A-4677-8076-DAC1C502AB09";
paths = (
{
closed = 1;
nodes = (
"848 -24 OFFCURVE",
"995 177 OFFCURVE",
"995 511 CURVE SMOOTH",
"995 828 OFFCURVE",
"864 1008 OFFCURVE",
"638 1008 CURVE SMOOTH",
"507 1008 OFFCURVE",
"409 943 OFFCURVE",
"266 779 CURVE",
"312 695 LINE",
"436 844 OFFCURVE",
"521 904 OFFCURVE",
"623 904 CURVE SMOOTH",
"777 904 OFFCURVE",
"868 768 OFFCURVE",
"868 497 CURVE SMOOTH",
"868 205 OFFCURVE",
"764 80 OFFCURVE",
"538 80 CURVE SMOOTH",
"448 80 OFFCURVE",
"345 112 OFFCURVE",
"261 161 CURVE",
"200 54 LINE",
"282 12 OFFCURVE",
"416 -24 OFFCURVE",
"526 -24 CURVE SMOOTH"
);
},
{
closed = 1;
nodes = (
"320 54 LINE",
"320 1377 LINE",
"200 1377 LINE",
"200 54 LINE"
);
}
);
width = 1117;
}
);
leftKerningGroup = h;
rightKerningGroup = o;
rightMetricsKey = o;
unicode = 0062;
},
{
glyphname = c;
lastChange = "2016-11-10 18:41:49 +0000";
layers = (
{
anchors = (
{
name = bottom;
position = "{453, 0}";
},
{
name = top;
position = "{543, 984}";
}
);
background = {
anchors = (
{
name = bottom;
position = "{453, 0}";
},
{
name = top;
position = "{543, 984}";
}
);
paths = (
{
closed = 1;
nodes = (
"643 -24 OFFCURVE",
"777 7 OFFCURVE",
"837 69 CURVE",
"817 0 LINE",
"817 222 LINE",
"871 164 LINE",
"760 164 LINE",
"844 193 LINE",
"749 109 OFFCURVE",
"638 82 OFFCURVE",
"549 82 CURVE SMOOTH",
"345 82 OFFCURVE",
"249 223 OFFCURVE",
"249 486 CURVE SMOOTH",
"249 780 OFFCURVE",
"369 901 OFFCURVE",
"524 901 CURVE SMOOTH",
"633 901 OFFCURVE",
"757 846 OFFCURVE",
"816 790 CURVE",
"743 807 LINE",
"854 807 LINE",
"800 773 LINE",
"838 971 LINE",
"848 898 LINE",
"771 977 OFFCURVE",
"640 1008 OFFCURVE",
"539 1008 CURVE SMOOTH",
"277 1008 OFFCURVE",
"122 816 OFFCURVE",
"122 473 CURVE SMOOTH",
"122 142 OFFCURVE",
"271 -24 OFFCURVE",
"529 -24 CURVE SMOOTH"
);
}
);
};
guideLines = (
{
angle = 90;
position = "{563, 238}";
},
{
position = "{835, 703}";
},
{
position = "{835, 862}";
},
{
position = "{875, 275}";
},
{
position = "{874, 148}";
}
);
layerId = "785B6CE2-304A-4677-8076-DAC1C502AB09";
paths = (
{
closed = 1;
nodes = (
"643 -24 OFFCURVE",
"777 7 OFFCURVE",
"837 69 CURVE",
"817 0 LINE",
"817 222 LINE",
"871 164 LINE",
"760 164 LINE",
"844 193 LINE",
"749 109 OFFCURVE",
"638 82 OFFCURVE",
"549 82 CURVE SMOOTH",
"345 82 OFFCURVE",
"249 223 OFFCURVE",
"249 486 CURVE SMOOTH",
"249 780 OFFCURVE",
"369 901 OFFCURVE",
"524 901 CURVE SMOOTH",
"633 901 OFFCURVE",
"757 846 OFFCURVE",
"816 790 CURVE",
"743 807 LINE",
"854 807 LINE",
"800 773 LINE",
"838 971 LINE",
"848 898 LINE",
"771 977 OFFCURVE",
"640 1008 OFFCURVE",
"539 1008 CURVE SMOOTH",
"277 1008 OFFCURVE",
"122 816 OFFCURVE",
"122 473 CURVE SMOOTH",
"122 142 OFFCURVE",
"271 -24 OFFCURVE",
"529 -24 CURVE SMOOTH"
);
}
);
width = 913;
}
);
leftKerningGroup = o;
leftMetricsKey = o;
rightKerningGroup = c;
unicode = 0063;
},
{
glyphname = d;
lastChange = "2016-11-10 18:42:07 +0000";
layers = (
{
background = {
paths = (
{
closed = 1;
nodes = (
"618 -24 OFFCURVE",
"727 53 OFFCURVE",
"851 205 CURVE",
"806 286 LINE",
"686 147 OFFCURVE",
"599 80 OFFCURVE",
"495 80 CURVE SMOOTH",
"350 80 OFFCURVE",
"249 211 OFFCURVE",
"249 491 CURVE SMOOTH",
"249 777 OFFCURVE",
"354 904 OFFCURVE",
"552 904 CURVE SMOOTH",
"641 904 OFFCURVE",
"730 871 OFFCURVE",
"809 828 CURVE",
"857 927 LINE",
"795 956 OFFCURVE",
"681 1008 OFFCURVE",
"552 1008 CURVE SMOOTH",
"270 1008 OFFCURVE",
"122 807 OFFCURVE",
"122 476 CURVE SMOOTH",
"122 154 OFFCURVE",
"259 -24 OFFCURVE",
"480 -24 CURVE SMOOTH"
);
},
{
closed = 1;
nodes = (
"917 0 LINE",
"917 1377 LINE",
"797 1377 LINE",
"797 196 LINE",
"807 175 LINE",
"807 0 LINE"
);
}
);
};
guideLines = (
{
position = "{839, 704}";
},
{
position = "{853, 838}";
}
);
layerId = "785B6CE2-304A-4677-8076-DAC1C502AB09";
paths = (
{
closed = 1;
nodes = (
"618 -24 OFFCURVE",
"727 53 OFFCURVE",
"851 205 CURVE",
"806 286 LINE",
"686 147 OFFCURVE",
"599 80 OFFCURVE",
"495 80 CURVE SMOOTH",
"350 80 OFFCURVE",
"249 211 OFFCURVE",
"249 491 CURVE SMOOTH",
"249 777 OFFCURVE",
"354 904 OFFCURVE",
"552 904 CURVE SMOOTH",
"641 904 OFFCURVE",
"730 871 OFFCURVE",
"809 828 CURVE",
"857 927 LINE",
"795 956 OFFCURVE",
"681 1008 OFFCURVE",
"552 1008 CURVE SMOOTH",
"270 1008 OFFCURVE",
"122 807 OFFCURVE",
"122 476 CURVE SMOOTH",
"122 154 OFFCURVE",
"259 -24 OFFCURVE",
"480 -24 CURVE SMOOTH"
);
},
{
closed = 1;
nodes = (
"917 0 LINE",
"917 1377 LINE",
"797 1377 LINE",
"797 196 LINE",
"807 175 LINE",
"807 0 LINE"
);
}
);
width = 1117;
}
);
leftKerningGroup = o;
leftMetricsKey = o;
unicode = 0064;
},
{
glyphname = e;
lastChange = "2016-11-10 18:42:28 +0000";
layers = (
{
anchors = (
{
name = bottom;
position = "{515, 0}";
},
{
name = ogonek;
position = "{789, 10}";
},
{
name = top;
position = "{526, 984}";
}
);
background = {
anchors = (
{
name = bottom;
position = "{515, 0}";
},
{
name = ogonek;
position = "{789, 10}";
},
{
name = top;
position = "{526, 984}";
}
);
paths = (
{
closed = 1;
nodes = (
"711 -24 OFFCURVE",
"820 9 OFFCURVE",
"886 59 CURVE",
"865 -11 LINE",
"865 209 LINE",
"919 155 LINE",
"804 155 LINE",
"891 178 LINE",
"777 104 OFFCURVE",
"693 79 OFFCURVE",
"580 79 CURVE SMOOTH",
"331 79 OFFCURVE",
"249 226 OFFCURVE",
"249 511 CURVE SMOOTH",
"249 764 OFFCURVE",
"357 904 OFFCURVE",
"530 904 CURVE SMOOTH",
"714 904 OFFCURVE",
"792 774 OFFCURVE",
"789 512 CURVE",
"842 564 LINE",
"204 564 LINE",
"204 466 LINE",
"907 466 LINE",
"907 528 LINE SMOOTH",
"907 840 OFFCURVE",
"787 1008 OFFCURVE",
"541 1008 CURVE SMOOTH",
"283 1008 OFFCURVE",
"122 816 OFFCURVE",
"122 470 CURVE SMOOTH",
"122 163 OFFCURVE",
"255 -24 OFFCURVE",
"560 -24 CURVE SMOOTH"
);
}
);
};
guideLines = (
{
position = "{864, 498}";
},
{
position = "{865, 588}";
},
{
angle = 270;
position = "{907, 656}";
}
);
layerId = "785B6CE2-304A-4677-8076-DAC1C502AB09";
paths = (
{
closed = 1;
nodes = (
"711 -24 OFFCURVE",
"820 9 OFFCURVE",
"886 59 CURVE",
"865 -11 LINE",
"865 209 LINE",
"919 155 LINE",
"804 155 LINE",
"891 178 LINE",
"777 104 OFFCURVE",
"693 79 OFFCURVE",
"580 79 CURVE SMOOTH",
"331 79 OFFCURVE",
"249 226 OFFCURVE",
"249 511 CURVE SMOOTH",
"249 764 OFFCURVE",
"357 904 OFFCURVE",
"530 904 CURVE SMOOTH",
"714 904 OFFCURVE",
"792 774 OFFCURVE",
"789 512 CURVE",
"842 564 LINE",
"204 564 LINE",
"204 466 LINE",
"907 466 LINE",
"907 528 LINE SMOOTH",
"907 840 OFFCURVE",
"787 1008 OFFCURVE",
"541 1008 CURVE SMOOTH",
"283 1008 OFFCURVE",
"122 816 OFFCURVE",
"122 470 CURVE SMOOTH",
"122 163 OFFCURVE",
"255 -24 OFFCURVE",
"560 -24 CURVE SMOOTH"
);
}
);
width = 1037;
}
);
leftKerningGroup = o;
leftMetricsKey = o;
unicode = 0065;
},
{
glyphname = eogonek;
lastChange = "2016-11-10 18:51:21 +0000";
layers = (
{
anchors = (
{
name = _ogonek;
position = "{797, 10}";
}
);
background = {
anchors = (
{
name = _ogonek;
position = "{797, 10}";
}
);
components = (
{
name = e;
}
);
paths = (
{
closed = 1;
nodes = (
"668 -54 OFFCURVE",
"572 -151 OFFCURVE",
"572 -255 CURVE SMOOTH",
"572 -345 OFFCURVE",
"639 -391 OFFCURVE",
"740 -391 CURVE SMOOTH",
"808 -391 OFFCURVE",
"860 -370 OFFCURVE",
"883 -362 CURVE",
"883 -267 LINE",
"854 -282 OFFCURVE",
"799 -293 OFFCURVE",
"760 -293 CURVE SMOOTH",
"712 -293 OFFCURVE",
"689 -271 OFFCURVE",
"689 -223 CURVE SMOOTH",
"689 -159 OFFCURVE",
"739 -84 OFFCURVE",
"865 45 CURVE",
"731 -2 LINE"
);
}
);
};
components = (
{
name = e;
}
);
guideLines = (
{
angle = 270;
position = "{915, 435}";
}
);
layerId = "785B6CE2-304A-4677-8076-DAC1C502AB09";
paths = (
{
closed = 1;
nodes = (
"668 -54 OFFCURVE",
"572 -151 OFFCURVE",
"572 -255 CURVE SMOOTH",
"572 -345 OFFCURVE",
"639 -391 OFFCURVE",
"740 -391 CURVE SMOOTH",
"808 -391 OFFCURVE",
"860 -370 OFFCURVE",
"883 -362 CURVE",
"883 -267 LINE",
"854 -282 OFFCURVE",
"799 -293 OFFCURVE",
"760 -293 CURVE SMOOTH",
"712 -293 OFFCURVE",
"689 -271 OFFCURVE",
"689 -223 CURVE SMOOTH",
"689 -159 OFFCURVE",
"739 -84 OFFCURVE",
"865 45 CURVE",
"731 -2 LINE"
);
}
);
width = 1037;
}
);
leftKerningGroup = o;
leftMetricsKey = e;
rightKerningGroup = o;
rightMetricsKey = e;
unicode = 0119;
},
{
glyphname = f;
lastChange = "2016-11-10 18:42:47 +0000";
layers = (
{
background = {
paths = (
{
closed = 1;
nodes = (
"575 875 LINE",
"575 984 LINE",
"50 984 LINE",
"50 875 LINE"
);
},
{
closed = 1;
nodes = (
"636 1337 LINE",
"541 1391 OFFCURVE",
"487 1401 OFFCURVE",
"431 1401 CURVE SMOOTH",
"278 1401 OFFCURVE",
"183 1309 OFFCURVE",
"183 1152 CURVE SMOOTH",
"183 1099 OFFCURVE",
"199 1033 OFFCURVE",
"215 971 CURVE",
"210 935 LINE",
"210 1 LINE",
"330 1 LINE",
"330 965 LINE",
"323 994 OFFCURVE",
"303 1061 OFFCURVE",
"303 1143 CURVE SMOOTH",
"303 1256 OFFCURVE",
"347 1297 OFFCURVE",
"417 1297 CURVE SMOOTH",
"489 1297 OFFCURVE",
"541 1271 OFFCURVE",
"597 1239 CURVE",
"498 1256 LINE",
"614 1256 LINE",
"560 1211 LINE",
"621 1423 LINE"
);
}
);
};
layerId = "785B6CE2-304A-4677-8076-DAC1C502AB09";
paths = (
{
closed = 1;
nodes = (
"575 875 LINE",
"575 984 LINE",
"50 984 LINE",
"50 875 LINE"
);
},
{
closed = 1;
nodes = (
"636 1337 LINE",
"541 1391 OFFCURVE",
"487 1401 OFFCURVE",
"431 1401 CURVE SMOOTH",
"278 1401 OFFCURVE",
"183 1309 OFFCURVE",
"183 1152 CURVE SMOOTH",
"183 1099 OFFCURVE",
"199 1033 OFFCURVE",
"215 971 CURVE",
"210 935 LINE",
"210 1 LINE",
"330 1 LINE",
"330 965 LINE",
"323 994 OFFCURVE",
"303 1061 OFFCURVE",
"303 1143 CURVE SMOOTH",
"303 1256 OFFCURVE",
"347 1297 OFFCURVE",
"417 1297 CURVE SMOOTH",
"489 1297 OFFCURVE",
"541 1271 OFFCURVE",
"597 1239 CURVE",
"498 1256 LINE",
"614 1256 LINE",
"560 1211 LINE",
"621 1423 LINE"
);
}
);
width = 606;
}
);
leftKerningGroup = f;
rightKerningGroup = f;
unicode = 0066;
},
{
glyphname = g;
lastChange = "2016-11-10 18:43:42 +0000";
layers = (
{
background = {
paths = (
{
closed = 1;
nodes = (
"795 -391 OFFCURVE",
"984 -265 OFFCURVE",
"984 -72 CURVE SMOOTH",
"984 139 OFFCURVE",
"757 168 OFFCURVE",
"562 168 CURVE SMOOTH",
"388 168 OFFCURVE",
"285 189 OFFCURVE",
"285 281 CURVE SMOOTH",
"285 331 OFFCURVE",
"322 359 OFFCURVE",
"387 396 CURVE",
"295 450 LINE",
"230 398 OFFCURVE",
"176 347 OFFCURVE",
"176 256 CURVE SMOOTH",
"176 126 OFFCURVE",
"289 64 OFFCURVE",
"552 64 CURVE SMOOTH",
"679 64 OFFCURVE",
"865 62 OFFCURVE",
"865 -101 CURVE SMOOTH",
"865 -231 OFFCURVE",
"719 -290 OFFCURVE",
"538 -290 CURVE SMOOTH",
"367 -290 OFFCURVE",
"259 -246 OFFCURVE",
"259 -128 CURVE SMOOTH",
"259 -51 OFFCURVE",
"326 27 OFFCURVE",
"472 91 CURVE",
"375 126 LINE",
"239 69 OFFCURVE",
"140 -16 OFFCURVE",
"140 -148 CURVE SMOOTH",
"140 -327 OFFCURVE",
"309 -391 OFFCURVE",
"515 -391 CURVE SMOOTH"
);
},
{
closed = 1;
nodes = (
"738 343 OFFCURVE",
"880 503 OFFCURVE",
"880 683 CURVE SMOOTH",
"880 787 OFFCURVE",
"825 859 OFFCURVE",
"747 914 CURVE",
"758 938 LINE",
"677 988 OFFCURVE",
"610 1008 OFFCURVE",
"539 1008 CURVE SMOOTH",
"331 1008 OFFCURVE",
"186 846 OFFCURVE",
"186 664 CURVE SMOOTH",
"186 498 OFFCURVE",
"314 343 OFFCURVE",
"524 343 CURVE SMOOTH"
);
},
{
closed = 1;
nodes = (
"394 444 OFFCURVE",
"310 531 OFFCURVE",
"310 671 CURVE SMOOTH",
"310 819 OFFCURVE",
"398 907 OFFCURVE",
"534 907 CURVE SMOOTH",
"669 907 OFFCURVE",
"756 819 OFFCURVE",
"756 670 CURVE SMOOTH",
"756 529 OFFCURVE",
"673 444 OFFCURVE",
"534 444 CURVE SMOOTH"
);
},
{
closed = 1;
nodes = (
"819 875 OFFCURVE",
"881 904 OFFCURVE",
"934 934 CURVE SMOOTH",
"944 939 OFFCURVE",
"953 945 OFFCURVE",
"962 950 CURVE",
"962 1113 LINE",
"1016 1059 LINE",
"900 1059 LINE",
"1003 1082 LINE",
"719 949 LINE",
"779 861 LINE"
);
}
);
};
guideLines = (
{
angle = 90;
position = "{188, 946}";
},
{
angle = 90;
position = "{247, 944}";
},
{
angle = 90;
position = "{921, 946}";
}
);
layerId = "785B6CE2-304A-4677-8076-DAC1C502AB09";
paths = (
{
closed = 1;
nodes = (
"795 -391 OFFCURVE",
"984 -265 OFFCURVE",
"984 -72 CURVE SMOOTH",
"984 139 OFFCURVE",
"757 168 OFFCURVE",
"562 168 CURVE SMOOTH",
"388 168 OFFCURVE",
"285 189 OFFCURVE",
"285 281 CURVE SMOOTH",
"285 331 OFFCURVE",
"322 359 OFFCURVE",
"387 396 CURVE",
"295 450 LINE",
"230 398 OFFCURVE",
"176 347 OFFCURVE",
"176 256 CURVE SMOOTH",
"176 126 OFFCURVE",
"289 64 OFFCURVE",
"552 64 CURVE SMOOTH",
"679 64 OFFCURVE",
"865 62 OFFCURVE",
"865 -101 CURVE SMOOTH",
"865 -231 OFFCURVE",
"719 -290 OFFCURVE",
"538 -290 CURVE SMOOTH",
"367 -290 OFFCURVE",
"259 -246 OFFCURVE",
"259 -128 CURVE SMOOTH",
"259 -51 OFFCURVE",
"326 27 OFFCURVE",
"472 91 CURVE",
"375 126 LINE",
"239 69 OFFCURVE",
"140 -16 OFFCURVE",
"140 -148 CURVE SMOOTH",
"140 -327 OFFCURVE",
"309 -391 OFFCURVE",
"515 -391 CURVE SMOOTH"
);
},
{
closed = 1;
nodes = (
"738 343 OFFCURVE",
"880 503 OFFCURVE",
"880 683 CURVE SMOOTH",
"880 787 OFFCURVE",
"825 859 OFFCURVE",
"747 914 CURVE",
"758 938 LINE",
"677 988 OFFCURVE",
"610 1008 OFFCURVE",
"539 1008 CURVE SMOOTH",
"331 1008 OFFCURVE",
"186 846 OFFCURVE",
"186 664 CURVE SMOOTH",
"186 498 OFFCURVE",
"314 343 OFFCURVE",
"524 343 CURVE SMOOTH"
);
},
{
closed = 1;
nodes = (
"394 444 OFFCURVE",
"310 531 OFFCURVE",
"310 671 CURVE SMOOTH",
"310 819 OFFCURVE",
"398 907 OFFCURVE",
"534 907 CURVE SMOOTH",
"669 907 OFFCURVE",
"756 819 OFFCURVE",
"756 670 CURVE SMOOTH",
"756 529 OFFCURVE",
"673 444 OFFCURVE",
"534 444 CURVE SMOOTH"
);
},
{
closed = 1;
nodes = (
"819 875 OFFCURVE",
"881 904 OFFCURVE",
"934 934 CURVE SMOOTH",
"944 939 OFFCURVE",
"953 945 OFFCURVE",
"962 950 CURVE",
"962 1113 LINE",
"1016 1059 LINE",
"900 1059 LINE",
"1003 1082 LINE",
"719 949 LINE",
"779 861 LINE"
);
}
);
width = 1074;
}
);
leftKerningGroup = g;
rightKerningGroup = g;
unicode = 0067;
},
{
glyphname = h;
lastChange = "2016-11-10 18:43:58 +0000";
layers = (
{
background = {
paths = (
{
closed = 1;
nodes = (
"928 0 LINE",
"928 692 LINE SMOOTH",
"928 877 OFFCURVE",
"835 1008 OFFCURVE",
"638 1008 CURVE SMOOTH",
"526 1008 OFFCURVE",
"433 966 OFFCURVE",
"266 779 CURVE",
"312 693 LINE",
"444 853 OFFCURVE",
"530 904 OFFCURVE",
"624 904 CURVE SMOOTH",
"756 904 OFFCURVE",
"808 804 OFFCURVE",
"808 685 CURVE SMOOTH",
"808 0 LINE"
);
},
{
closed = 1;
nodes = (
"320 0 LINE",
"320 1377 LINE",
"200 1377 LINE",
"200 0 LINE"
);
}
);
};
layerId = "785B6CE2-304A-4677-8076-DAC1C502AB09";
paths = (
{
closed = 1;
nodes = (
"928 0 LINE",
"928 692 LINE SMOOTH",
"928 877 OFFCURVE",
"835 1008 OFFCURVE",
"638 1008 CURVE SMOOTH",
"526 1008 OFFCURVE",
"433 966 OFFCURVE",
"266 779 CURVE",
"312 693 LINE",
"444 853 OFFCURVE",
"530 904 OFFCURVE",
"624 904 CURVE SMOOTH",
"756 904 OFFCURVE",
"808 804 OFFCURVE",
"808 685 CURVE SMOOTH",
"808 0 LINE"
);
},
{
closed = 1;
nodes = (
"320 0 LINE",
"320 1377 LINE",
"200 1377 LINE",
"200 0 LINE"
);
}
);
width = 1120;
}
);
leftKerningGroup = h;
leftMetricsKey = n;
rightKerningGroup = n;
rightMetricsKey = n;
unicode = 0068;
},
{
glyphname = i;
lastChange = "2016-11-10 18:51:19 +0000";
layers = (
{
background = {
components = (
{
name = idotless;
},
{
alignment = -1;
name = dotaccent;
}
);
};
components = (
{
name = idotless;
},
{
alignment = -1;
name = dotaccent;
}
);
layerId = "785B6CE2-304A-4677-8076-DAC1C502AB09";
width = 520;
},
{
associatedMasterId = "785B6CE2-304A-4677-8076-DAC1C502AB09";
background = {
paths = (
{
closed = 1;
nodes = (
"487 0 LINE",
"487 984 LINE",
"367 984 LINE",
"367 0 LINE"
);
},
{
closed = 1;
nodes = (
"399 875 LINE",
"399 984 LINE",
"205 984 LINE",
"205 875 LINE"
);
},
{
closed = 1;
nodes = (
"472 1238 OFFCURVE",
"512 1272 OFFCURVE",
"512 1332 CURVE SMOOTH",
"512 1389 OFFCURVE",
"476 1423 OFFCURVE",
"421 1423 CURVE SMOOTH",
"363 1423 OFFCURVE",
"325 1388 OFFCURVE",
"325 1328 CURVE SMOOTH",
"325 1271 OFFCURVE",
"360 1238 OFFCURVE",
"416 1238 CURVE SMOOTH"
);
}
);
};
layerId = "22C79DB8-EC78-422F-8546-90DB8F966F2C";
name = "Bold May 26 16, 16:55";
paths = (
{
closed = 1;
nodes = (
"592 0 LINE",
"592 1004 LINE",
"262 1004 LINE",
"262 0 LINE"
);
},
{
closed = 1;
nodes = (
"294 737 LINE",
"294 1004 LINE",
"130 1004 LINE",
"130 737 LINE"
);
},
{
closed = 1;
nodes = (
"532 1167 OFFCURVE",
"617 1239 OFFCURVE",
"617 1367 CURVE SMOOTH",
"617 1488 OFFCURVE",
"541 1560 OFFCURVE",
"424 1560 CURVE SMOOTH",
"301 1560 OFFCURVE",
"220 1486 OFFCURVE",
"220 1358 CURVE SMOOTH",
"220 1237 OFFCURVE",
"294 1167 OFFCURVE",
"413 1167 CURVE SMOOTH"
);
}
);
width = 732;
},
{
associatedMasterId = "785B6CE2-304A-4677-8076-DAC1C502AB09";
background = {
paths = (
{
closed = 1;
nodes = (
"487 0 LINE",
"487 984 LINE",
"367 984 LINE",
"367 0 LINE"
);
},
{
closed = 1;
nodes = (
"399 875 LINE",
"399 984 LINE",
"205 984 LINE",
"205 875 LINE"
);
},
{
closed = 1;
nodes = (
"472 1238 OFFCURVE",
"512 1272 OFFCURVE",
"512 1332 CURVE SMOOTH",
"512 1389 OFFCURVE",
"476 1423 OFFCURVE",
"421 1423 CURVE SMOOTH",
"363 1423 OFFCURVE",
"325 1388 OFFCURVE",
"325 1328 CURVE SMOOTH",
"325 1271 OFFCURVE",
"360 1238 OFFCURVE",
"416 1238 CURVE SMOOTH"
);
}
);
};
layerId = "66F12B81-050E-46FB-8F94-B9E66E14CA7C";
name = "Bold May 26 16, 17:13";
paths = (
{
closed = 1;
nodes = (
"592 0 LINE",
"592 1004 LINE",
"262 1004 LINE",
"262 0 LINE"
);
},
{
closed = 1;
nodes = (
"294 737 LINE",
"294 1004 LINE",
"100 1004 LINE",
"100 737 LINE"
);
},
{
closed = 1;
nodes = (
"532 1167 OFFCURVE",
"617 1239 OFFCURVE",
"617 1367 CURVE SMOOTH",
"617 1488 OFFCURVE",
"541 1560 OFFCURVE",
"424 1560 CURVE SMOOTH",
"301 1560 OFFCURVE",
"220 1486 OFFCURVE",
"220 1358 CURVE SMOOTH",
"220 1237 OFFCURVE",
"294 1167 OFFCURVE",
"413 1167 CURVE SMOOTH"
);
}
);
width = 732;
},
{
associatedMasterId = "785B6CE2-304A-4677-8076-DAC1C502AB09";
background = {
paths = (
{
closed = 1;
nodes = (
"437 0 LINE",
"437 984 LINE",
"317 984 LINE",
"317 0 LINE"
);
},
{
closed = 1;
nodes = (
"349 875 LINE",
"349 984 LINE",
"155 984 LINE",
"155 875 LINE"
);
},
{
closed = 1;
nodes = (
"422 1238 OFFCURVE",
"462 1272 OFFCURVE",
"462 1332 CURVE SMOOTH",
"462 1389 OFFCURVE",
"426 1423 OFFCURVE",
"371 1423 CURVE SMOOTH",
"313 1423 OFFCURVE",
"275 1388 OFFCURVE",
"275 1328 CURVE SMOOTH",
"275 1271 OFFCURVE",
"310 1238 OFFCURVE",
"366 1238 CURVE SMOOTH"
);
},
{
closed = 1;
nodes = (
"542 0 LINE",
"542 1004 LINE",
"212 1004 LINE",
"212 0 LINE"
);
},
{
closed = 1;
nodes = (
"244 737 LINE",
"244 1004 LINE",
"50 1004 LINE",
"50 737 LINE"
);
},
{
closed = 1;
nodes = (
"482 1167 OFFCURVE",
"567 1239 OFFCURVE",
"567 1367 CURVE SMOOTH",
"567 1488 OFFCURVE",
"491 1560 OFFCURVE",
"374 1560 CURVE SMOOTH",
"251 1560 OFFCURVE",
"170 1486 OFFCURVE",
"170 1358 CURVE SMOOTH",
"170 1237 OFFCURVE",
"244 1167 OFFCURVE",
"363 1167 CURVE SMOOTH"
);
}
);
};
layerId = "7B857F96-5DA9-451E-8E2E-06DB3A98786C";
name = "Bold May 27 16, 11:31";
paths = (
{
closed = 1;
nodes = (
"542 0 LINE",
"542 1004 LINE",
"212 1004 LINE",
"212 0 LINE"
);
},
{
closed = 1;
nodes = (
"244 737 LINE",
"244 1004 LINE",
"80 1004 LINE",
"80 737 LINE"
);
},
{
closed = 1;
nodes = (
"482 1167 OFFCURVE",
"567 1239 OFFCURVE",
"567 1367 CURVE SMOOTH",
"567 1488 OFFCURVE",
"491 1560 OFFCURVE",
"374 1560 CURVE SMOOTH",
"251 1560 OFFCURVE",
"170 1486 OFFCURVE",
"170 1358 CURVE SMOOTH",
"170 1237 OFFCURVE",
"244 1167 OFFCURVE",
"363 1167 CURVE SMOOTH"
);
}
);
width = 657;
},
{
associatedMasterId = "785B6CE2-304A-4677-8076-DAC1C502AB09";
layerId = "86F058FC-17B7-4AA1-9E88-1E76A07ADF51";
name = "Bold Jun 11 16, 22:53";
paths = (
{
closed = 1;
nodes = (
"483 0 LINE",
"483 997 LINE",
"234 997 LINE",
"234 0 LINE"
);
},
{
closed = 1;
nodes = (
"250 787 LINE",
"250 997 LINE",
"91 997 LINE",
"91 787 LINE"
);
},
{
closed = 1;
nodes = (
"444 1193 OFFCURVE",
"513 1251 OFFCURVE",
"513 1354 CURVE SMOOTH",
"513 1452 OFFCURVE",
"451 1510 OFFCURVE",
"357 1510 CURVE SMOOTH",
"257 1510 OFFCURVE",
"192 1451 OFFCURVE",
"192 1347 CURVE SMOOTH",
"192 1249 OFFCURVE",
"252 1193 OFFCURVE",
"348 1193 CURVE SMOOTH"
);
}
);
width = 635;
}
);
unicode = 0069;
},
{
glyphname = idotless;
lastChange = "2016-11-10 18:44:05 +0000";
layers = (
{
anchors = (
{
name = bottom;
position = "{233, 0}";
},
{
name = ogonek;
position = "{476, 10}";
},
{
name = top;
position = "{233, 984}";
}
);
background = {
anchors = (
{
name = bottom;
position = "{233, 0}";
},
{
name = ogonek;
position = "{476, 10}";
},
{
name = top;
position = "{233, 984}";
}
);
paths = (
{
closed = 1;
nodes = (
"320 0 LINE",
"320 984 LINE",
"200 984 LINE",
"200 0 LINE"
);
}
);
};
layerId = "785B6CE2-304A-4677-8076-DAC1C502AB09";
paths = (
{
closed = 1;
nodes = (
"320 0 LINE",
"320 984 LINE",
"200 984 LINE",
"200 0 LINE"
);
}
);
width = 520;
}
);
unicode = 0131;
},
{
glyphname = j;
lastChange = "2016-11-10 18:51:19 +0000";
layers = (
{
background = {
components = (
{
name = dotaccent;
}
);
paths = (
{
closed = 1;
nodes = (
"252 -391 OFFCURVE",
"320 -296 OFFCURVE",
"320 -159 CURVE SMOOTH",
"320 984 LINE",
"200 984 LINE",
"200 -134 LINE SMOOTH",
"200 -230 OFFCURVE",
"167 -287 OFFCURVE",
"100 -287 CURVE SMOOTH",
"76 -287 OFFCURVE",
"54 -288 OFFCURVE",
"-10 -258 CURVE",
"43 -271 LINE",
"-15 -271 LINE",
"17 -250 LINE",
"-15 -382 LINE",
"-26 -363 LINE",
"22 -387 OFFCURVE",
"72 -391 OFFCURVE",
"109 -391 CURVE SMOOTH"
);
}
);
};
components = (
{
name = dotaccent;
}
);
guideLines = (
{
angle = 90;
position = "{93, 930}";
}
);
layerId = "785B6CE2-304A-4677-8076-DAC1C502AB09";
paths = (
{
closed = 1;
nodes = (
"252 -391 OFFCURVE",
"320 -296 OFFCURVE",
"320 -159 CURVE SMOOTH",
"320 984 LINE",
"200 984 LINE",
"200 -134 LINE SMOOTH",
"200 -230 OFFCURVE",
"167 -287 OFFCURVE",
"100 -287 CURVE SMOOTH",
"76 -287 OFFCURVE",
"54 -288 OFFCURVE",
"-10 -258 CURVE",
"43 -271 LINE",
"-15 -271 LINE",
"17 -250 LINE",
"-15 -382 LINE",
"-26 -363 LINE",
"22 -387 OFFCURVE",
"72 -391 OFFCURVE",
"109 -391 CURVE SMOOTH"
);
}
);
width = 520;
}
);
leftKerningGroup = j;
unicode = 006A;
},
{
glyphname = k;
lastChange = "2016-11-10 18:45:02 +0000";
layers = (
{
background = {
paths = (
{
closed = 1;
nodes = (
"975 0 LINE",
"921 -54 LINE",
"921 62 LINE",
"954 -35 LINE",
"648 369 LINE SMOOTH",
"592 443 OFFCURVE",
"544 502 OFFCURVE",
"515 536 CURVE",
"420 470 LINE",
"782 0 LINE"
);
},
{
closed = 1;
nodes = (
"476 442 LINE",
"464 552 LINE",
"266 521 LINE",
"278 411 LINE"
);
},
{
closed = 1;
nodes = (
"320 0 LINE",
"320 1377 LINE",
"200 1377 LINE",
"200 0 LINE"
);
},
{
closed = 1;
nodes = (
"516 519 OFFCURVE",
"567 575 OFFCURVE",
"598 616 CURVE SMOOTH",
"906 1020 LINE",
"873 923 LINE",
"873 1038 LINE",
"927 984 LINE",
"743 984 LINE",
"361 473 LINE",
"477 470 LINE"
);
}
);
};
layerId = "785B6CE2-304A-4677-8076-DAC1C502AB09";
paths = (
{
closed = 1;
nodes = (
"975 0 LINE",
"921 -54 LINE",
"921 62 LINE",
"954 -35 LINE",
"648 369 LINE SMOOTH",
"592 443 OFFCURVE",
"544 502 OFFCURVE",
"515 536 CURVE",
"420 470 LINE",
"782 0 LINE"
);
},
{
closed = 1;
nodes = (
"476 442 LINE",
"464 552 LINE",
"266 521 LINE",
"278 411 LINE"
);
},
{
closed = 1;
nodes = (
"320 0 LINE",
"320 1377 LINE",
"200 1377 LINE",
"200 0 LINE"
);
},
{
closed = 1;
nodes = (
"516 519 OFFCURVE",
"567 575 OFFCURVE",
"598 616 CURVE SMOOTH",
"906 1020 LINE",
"873 923 LINE",
"873 1038 LINE",
"927 984 LINE",
"743 984 LINE",
"361 473 LINE",
"477 470 LINE"
);
}
);
width = 931;
}
);
leftMetricsKey = n;
rightKerningGroup = k;
unicode = 006B;
},
{
glyphname = l;
lastChange = "2016-11-10 18:45:07 +0000";
layers = (
{
anchors = (
{
name = bottom;
position = "{294, 0}";
},
{
name = center;
position = "{294, 492}";
},
{
name = top;
position = "{294, 984}";
},
{
name = topright;
position = "{568, 984}";
}
);
background = {
anchors = (
{
name = bottom;
position = "{294, 0}";
},
{
name = center;
position = "{294, 492}";
},
{
name = top;
position = "{294, 984}";
},
{
name = topright;
position = "{568, 984}";
}
);
paths = (
{
closed = 1;
nodes = (
"506 156 LINE",
"560 106 LINE",
"444 106 LINE",
"543 132 LINE",
"479 89 OFFCURVE",
"425 84 OFFCURVE",
"392 84 CURVE SMOOTH",
"341 84 OFFCURVE",
"320 125 OFFCURVE",
"320 205 CURVE SMOOTH",
"320 1377 LINE",
"200 1377 LINE",
"200 178 LINE SMOOTH",
"200 45 OFFCURVE",
"249 -24 OFFCURVE",
"370 -24 CURVE SMOOTH",
"410 -24 OFFCURVE",
"482 -23 OFFCURVE",
"546 21 CURVE",
"506 -56 LINE"
);
}
);
};
layerId = "785B6CE2-304A-4677-8076-DAC1C502AB09";
paths = (
{
closed = 1;
nodes = (
"506 156 LINE",
"560 106 LINE",
"444 106 LINE",
"543 132 LINE",
"479 89 OFFCURVE",
"425 84 OFFCURVE",
"392 84 CURVE SMOOTH",
"341 84 OFFCURVE",
"320 125 OFFCURVE",
"320 205 CURVE SMOOTH",
"320 1377 LINE",
"200 1377 LINE",
"200 178 LINE SMOOTH",
"200 45 OFFCURVE",
"249 -24 OFFCURVE",
"370 -24 CURVE SMOOTH",
"410 -24 OFFCURVE",
"482 -23 OFFCURVE",
"546 21 CURVE",
"506 -56 LINE"
);
}
);
width = 588;
}
);
leftMetricsKey = n;
unicode = 006C;
},
{
glyphname = m;
lastChange = "2016-11-10 18:45:21 +0000";
layers = (
{
background = {
paths = (
{
closed = 1;
nodes = (
"1468 0 LINE",
"1468 692 LINE SMOOTH",
"1468 877 OFFCURVE",
"1375 1008 OFFCURVE",
"1193 1008 CURVE SMOOTH",
"1092 1008 OFFCURVE",
"1019 968 OFFCURVE",
"840 779 CURVE",
"886 693 LINE",
"1022 846 OFFCURVE",
"1091 904 OFFCURVE",
"1180 904 CURVE SMOOTH",
"1296 904 OFFCURVE",
"1348 805 OFFCURVE",
"1348 685 CURVE SMOOTH",
"1348 0 LINE"
);
},
{
closed = 1;
nodes = (
"320 0 LINE",
"320 794 LINE",
"316 794 LINE",
"316 984 LINE",
"200 984 LINE",
"200 0 LINE"
);
},
{
closed = 1;
nodes = (
"894 0 LINE",
"894 692 LINE SMOOTH",
"894 877 OFFCURVE",
"801 1008 OFFCURVE",
"619 1008 CURVE SMOOTH",
"518 1008 OFFCURVE",
"445 968 OFFCURVE",
"266 779 CURVE",
"312 693 LINE",
"455 854 OFFCURVE",
"521 904 OFFCURVE",
"605 904 CURVE SMOOTH",
"723 904 OFFCURVE",
"774 805 OFFCURVE",
"774 685 CURVE SMOOTH",
"774 0 LINE"
);
}
);
};
layerId = "785B6CE2-304A-4677-8076-DAC1C502AB09";
paths = (
{
closed = 1;
nodes = (
"1468 0 LINE",
"1468 692 LINE SMOOTH",
"1468 877 OFFCURVE",
"1375 1008 OFFCURVE",
"1193 1008 CURVE SMOOTH",
"1092 1008 OFFCURVE",
"1019 968 OFFCURVE",
"840 779 CURVE",
"886 693 LINE",
"1022 846 OFFCURVE",
"1091 904 OFFCURVE",
"1180 904 CURVE SMOOTH",
"1296 904 OFFCURVE",
"1348 805 OFFCURVE",
"1348 685 CURVE SMOOTH",
"1348 0 LINE"
);
},
{
closed = 1;
nodes = (
"320 0 LINE",
"320 794 LINE",
"316 794 LINE",
"316 984 LINE",
"200 984 LINE",
"200 0 LINE"
);
},
{
closed = 1;
nodes = (
"894 0 LINE",
"894 692 LINE SMOOTH",
"894 877 OFFCURVE",
"801 1008 OFFCURVE",
"619 1008 CURVE SMOOTH",
"518 1008 OFFCURVE",
"445 968 OFFCURVE",
"266 779 CURVE",
"312 693 LINE",
"455 854 OFFCURVE",
"521 904 OFFCURVE",
"605 904 CURVE SMOOTH",
"723 904 OFFCURVE",
"774 805 OFFCURVE",
"774 685 CURVE SMOOTH",
"774 0 LINE"
);
}
);
width = 1660;
}
);
leftKerningGroup = n;
leftMetricsKey = n;
rightKerningGroup = n;
rightMetricsKey = n;
unicode = 006D;
},
{
glyphname = n;
lastChange = "2016-11-10 18:45:27 +0000";
layers = (
{
anchors = (
{
name = bottom;
position = "{560, 0}";
},
{
name = top;
position = "{580, 984}";
}
);
background = {
anchors = (
{
name = bottom;
position = "{560, 0}";
},
{
name = top;
position = "{580, 984}";
}
);
guideLines = (
{
angle = 90;
position = "{638, 874}";
}
);
paths = (
{
closed = 1;
nodes = (
"928 0 LINE",
"928 692 LINE SMOOTH",
"928 877 OFFCURVE",
"835 1008 OFFCURVE",
"638 1008 CURVE SMOOTH",
"526 1008 OFFCURVE",
"433 966 OFFCURVE",
"266 779 CURVE",
"312 693 LINE",
"444 853 OFFCURVE",
"530 904 OFFCURVE",
"624 904 CURVE SMOOTH",
"756 904 OFFCURVE",
"808 804 OFFCURVE",
"808 685 CURVE SMOOTH",
"808 0 LINE"
);
},
{
closed = 1;
nodes = (
"320 0 LINE",
"320 794 LINE",
"316 794 LINE",
"316 984 LINE",
"200 984 LINE",
"200 0 LINE"
);
}
);
};
guideLines = (
{
position = "{613, 1006}";
},
{
position = "{-1603, 1387}";
},
{
position = "{-823, 802}";
},
{
angle = 90;
position = "{638, 874}";
}
);
layerId = "785B6CE2-304A-4677-8076-DAC1C502AB09";
paths = (
{
closed = 1;
nodes = (
"928 0 LINE",
"928 692 LINE SMOOTH",
"928 877 OFFCURVE",
"835 1008 OFFCURVE",
"638 1008 CURVE SMOOTH",
"526 1008 OFFCURVE",
"433 966 OFFCURVE",
"266 779 CURVE",
"312 693 LINE",
"444 853 OFFCURVE",
"530 904 OFFCURVE",
"624 904 CURVE SMOOTH",
"756 904 OFFCURVE",
"808 804 OFFCURVE",
"808 685 CURVE SMOOTH",
"808 0 LINE"
);
},
{
closed = 1;
nodes = (
"320 0 LINE",
"320 794 LINE",
"316 794 LINE",
"316 984 LINE",
"200 984 LINE",
"200 0 LINE"
);
}
);
width = 1120;
}
);
leftKerningGroup = n;
rightKerningGroup = n;
unicode = 006E;
},
{
glyphname = o;
lastChange = "2016-11-10 18:45:50 +0000";
layers = (
{
anchors = (
{
name = bottom;
position = "{552, 0}";
},
{
name = center;
position = "{552, 492}";
},
{
name = ogonek;
position = "{1000, 10}";
},
{
name = top;
position = "{552, 984}";
},
{
name = topright;
position = "{1092, 984}";
}
);
background = {
anchors = (
{
name = bottom;
position = "{552, 0}";
},
{
name = center;
position = "{552, 492}";
},
{
name = ogonek;
position = "{1000, 10}";
},
{
name = top;
position = "{552, 984}";
},
{
name = topright;
position = "{1092, 984}";
}
);
paths = (
{
closed = 1;
nodes = (
"817 -24 OFFCURVE",
"982 175 OFFCURVE",
"982 504 CURVE SMOOTH",
"982 818 OFFCURVE",
"833 1008 OFFCURVE",
"563 1008 CURVE SMOOTH",
"288 1008 OFFCURVE",
"122 812 OFFCURVE",
"122 481 CURVE SMOOTH",
"122 169 OFFCURVE",
"269 -24 OFFCURVE",
"541 -24 CURVE SMOOTH"
);
},
{
closed = 1;
nodes = (
"369 80 OFFCURVE",
"249 214 OFFCURVE",
"249 491 CURVE SMOOTH",
"249 773 OFFCURVE",
"373 904 OFFCURVE",
"552 904 CURVE SMOOTH",
"732 904 OFFCURVE",
"855 772 OFFCURVE",
"855 490 CURVE SMOOTH",
"855 213 OFFCURVE",
"736 80 OFFCURVE",
"553 80 CURVE SMOOTH"
);
}
);
};
layerId = "785B6CE2-304A-4677-8076-DAC1C502AB09";
paths = (
{
closed = 1;
nodes = (
"817 -24 OFFCURVE",
"982 175 OFFCURVE",
"982 504 CURVE SMOOTH",
"982 818 OFFCURVE",
"833 1008 OFFCURVE",
"563 1008 CURVE SMOOTH",
"288 1008 OFFCURVE",
"122 812 OFFCURVE",
"122 481 CURVE SMOOTH",
"122 169 OFFCURVE",
"269 -24 OFFCURVE",
"541 -24 CURVE SMOOTH"
);
},
{
closed = 1;
nodes = (
"369 80 OFFCURVE",
"249 214 OFFCURVE",
"249 491 CURVE SMOOTH",
"249 773 OFFCURVE",
"373 904 OFFCURVE",
"552 904 CURVE SMOOTH",
"732 904 OFFCURVE",
"855 772 OFFCURVE",
"855 490 CURVE SMOOTH",
"855 213 OFFCURVE",
"736 80 OFFCURVE",
"553 80 CURVE SMOOTH"
);
}
);
width = 1104;
}
);
leftKerningGroup = o;
rightKerningGroup = o;
unicode = 006F;
},
{
glyphname = p;
lastChange = "2016-11-10 18:46:09 +0000";
layers = (
{
background = {
paths = (
{
closed = 1;
nodes = (
"841 -24 OFFCURVE",
"995 176 OFFCURVE",
"995 511 CURVE SMOOTH",
"995 827 OFFCURVE",
"868 1008 OFFCURVE",
"638 1008 CURVE SMOOTH",
"507 1008 OFFCURVE",
"409 943 OFFCURVE",
"266 779 CURVE",
"312 695 LINE",
"436 844 OFFCURVE",
"521 904 OFFCURVE",
"623 904 CURVE SMOOTH",
"777 904 OFFCURVE",
"868 769 OFFCURVE",
"868 495 CURVE SMOOTH",
"868 194 OFFCURVE",
"748 80 OFFCURVE",
"573 80 CURVE SMOOTH",
"475 80 OFFCURVE",
"378 107 OFFCURVE",
"303 145 CURVE",
"258 56 LINE",
"318 17 OFFCURVE",
"442 -24 OFFCURVE",
"571 -24 CURVE SMOOTH"
);
},
{
closed = 1;
nodes = (
"320 -367 LINE",
"320 794 LINE",
"316 794 LINE",
"316 984 LINE",
"200 984 LINE",
"200 -367 LINE"
);
}
);
};
layerId = "785B6CE2-304A-4677-8076-DAC1C502AB09";
paths = (
{
closed = 1;
nodes = (
"841 -24 OFFCURVE",
"995 176 OFFCURVE",
"995 511 CURVE SMOOTH",
"995 827 OFFCURVE",
"868 1008 OFFCURVE",
"638 1008 CURVE SMOOTH",
"507 1008 OFFCURVE",
"409 943 OFFCURVE",
"266 779 CURVE",
"312 695 LINE",
"436 844 OFFCURVE",
"521 904 OFFCURVE",
"623 904 CURVE SMOOTH",
"777 904 OFFCURVE",
"868 769 OFFCURVE",
"868 495 CURVE SMOOTH",
"868 194 OFFCURVE",
"748 80 OFFCURVE",
"573 80 CURVE SMOOTH",
"475 80 OFFCURVE",
"378 107 OFFCURVE",
"303 145 CURVE",
"258 56 LINE",
"318 17 OFFCURVE",
"442 -24 OFFCURVE",
"571 -24 CURVE SMOOTH"
);
},
{
closed = 1;
nodes = (
"320 -367 LINE",
"320 794 LINE",
"316 794 LINE",
"316 984 LINE",
"200 984 LINE",
"200 -367 LINE"
);
}
);
width = 1117;
}
);
leftKerningGroup = n;
leftMetricsKey = n;
rightKerningGroup = o;
rightMetricsKey = o;
unicode = 0070;
},
{
glyphname = q;
lastChange = "2016-11-10 18:46:19 +0000";
layers = (
{
background = {
paths = (
{
closed = 1;
nodes = (
"610 -24 OFFCURVE",
"708 41 OFFCURVE",
"851 205 CURVE",
"805 289 LINE",
"681 140 OFFCURVE",
"596 80 OFFCURVE",
"494 80 CURVE SMOOTH",
"340 80 OFFCURVE",
"249 217 OFFCURVE",
"249 486 CURVE SMOOTH",
"249 773 OFFCURVE",
"353 904 OFFCURVE",
"553 904 CURVE SMOOTH",
"651 904 OFFCURVE",
"769 873 OFFCURVE",
"856 828 CURVE",
"917 936 LINE",
"839 971 OFFCURVE",
"688 1008 OFFCURVE",
"569 1008 CURVE SMOOTH",
"267 1008 OFFCURVE",
"122 807 OFFCURVE",
"122 472 CURVE SMOOTH",
"122 157 OFFCURVE",
"249 -24 OFFCURVE",
"479 -24 CURVE SMOOTH"
);
},
{
closed = 1;
nodes = (
"917 -367 LINE",
"917 936 LINE",
"797 937 LINE",
"797 -367 LINE"
);
}
);
};
layerId = "785B6CE2-304A-4677-8076-DAC1C502AB09";
paths = (
{
closed = 1;
nodes = (
"610 -24 OFFCURVE",
"708 41 OFFCURVE",
"851 205 CURVE",
"805 289 LINE",
"681 140 OFFCURVE",
"596 80 OFFCURVE",
"494 80 CURVE SMOOTH",
"340 80 OFFCURVE",
"249 217 OFFCURVE",
"249 486 CURVE SMOOTH",
"249 773 OFFCURVE",
"353 904 OFFCURVE",
"553 904 CURVE SMOOTH",
"651 904 OFFCURVE",
"769 873 OFFCURVE",
"856 828 CURVE",
"917 936 LINE",
"839 971 OFFCURVE",
"688 1008 OFFCURVE",
"569 1008 CURVE SMOOTH",
"267 1008 OFFCURVE",
"122 807 OFFCURVE",
"122 472 CURVE SMOOTH",
"122 157 OFFCURVE",
"249 -24 OFFCURVE",
"479 -24 CURVE SMOOTH"
);
},
{
closed = 1;
nodes = (
"917 -367 LINE",
"917 936 LINE",
"797 937 LINE",
"797 -367 LINE"
);
}
);
width = 1109;
}
);
leftKerningGroup = o;
leftMetricsKey = o;
rightMetricsKey = n;
unicode = 0071;
},
{
glyphname = r;
lastChange = "2016-11-10 18:46:41 +0000";
layers = (
{
background = {
paths = (
{
closed = 1;
nodes = (
"320 0 LINE",
"320 774 LINE",
"316 774 LINE",
"316 984 LINE",
"200 984 LINE",
"200 0 LINE"
);
},
{
closed = 1;
nodes = (
"404 788 OFFCURVE",
"476 884 OFFCURVE",
"582 884 CURVE SMOOTH",
"626 884 OFFCURVE",
"671 872 OFFCURVE",
"721 847 CURVE",
"647 861 LINE",
"746 861 LINE",
"690 817 LINE",
"729 1009 LINE",
"791 930 LINE",
"745 968 OFFCURVE",
"672 1008 OFFCURVE",
"598 1008 CURVE SMOOTH",
"483 1008 OFFCURVE",
"393 916 OFFCURVE",
"266 729 CURVE",
"312 630 LINE"
);
}
);
};
layerId = "785B6CE2-304A-4677-8076-DAC1C502AB09";
paths = (
{
closed = 1;
nodes = (
"320 0 LINE",
"320 774 LINE",
"316 774 LINE",
"316 984 LINE",
"200 984 LINE",
"200 0 LINE"
);
},
{
closed = 1;
nodes = (
"404 788 OFFCURVE",
"476 884 OFFCURVE",
"582 884 CURVE SMOOTH",
"626 884 OFFCURVE",
"671 872 OFFCURVE",
"721 847 CURVE",
"647 861 LINE",
"746 861 LINE",
"690 817 LINE",
"729 1009 LINE",
"791 930 LINE",
"745 968 OFFCURVE",
"672 1008 OFFCURVE",
"598 1008 CURVE SMOOTH",
"483 1008 OFFCURVE",
"393 916 OFFCURVE",
"266 729 CURVE",
"312 630 LINE"
);
}
);
width = 720;
}
);
leftKerningGroup = n;
leftMetricsKey = n;
rightKerningGroup = r;
unicode = 0072;
},
{
glyphname = s;
lastChange = "2016-11-10 18:47:20 +0000";
layers = (
{
anchors = (
{
name = bottom;
position = "{421, 0}";
},
{
name = top;
position = "{441, 984}";
}
);
background = {
anchors = (
{
name = bottom;
position = "{421, 0}";
},
{
name = top;
position = "{441, 984}";
}
);
paths = (
{
closed = 1;
nodes = (
"642 -24 OFFCURVE",
"762 98 OFFCURVE",
"762 264 CURVE SMOOTH",
"762 432 OFFCURVE",
"649 487 OFFCURVE",
"482 556 CURVE SMOOTH",
"324 621 OFFCURVE",
"265 662 OFFCURVE",
"265 748 CURVE SMOOTH",
"265 815 OFFCURVE",
"301 904 OFFCURVE",
"437 904 CURVE SMOOTH",
"526 904 OFFCURVE",
"635 879 OFFCURVE",
"712 813 CURVE",
"661 832 LINE",
"728 832 LINE",
"692 800 LINE",
"726 978 LINE",
"732 931 LINE",
"665 978 OFFCURVE",
"574 1008 OFFCURVE",
"455 1008 CURVE SMOOTH",
"260 1008 OFFCURVE",
"145 892 OFFCURVE",
"145 734 CURVE SMOOTH",
"145 550 OFFCURVE",
"303 503 OFFCURVE",
"424 456 CURVE SMOOTH",
"582 395 OFFCURVE",
"642 347 OFFCURVE",
"642 249 CURVE SMOOTH",
"642 148 OFFCURVE",
"567 78 OFFCURVE",
"418 79 CURVE SMOOTH",
"292 80 OFFCURVE",
"183 147 OFFCURVE",
"93 214 CURVE",
"177 188 LINE",
"66 188 LINE",
"120 234 LINE",
"120 9 LINE",
"100 81 LINE",
"160 23 OFFCURVE",
"279 -24 OFFCURVE",
"401 -24 CURVE SMOOTH"
);
}
);
};
layerId = "785B6CE2-304A-4677-8076-DAC1C502AB09";
paths = (
{
closed = 1;
nodes = (
"642 -24 OFFCURVE",
"762 98 OFFCURVE",
"762 264 CURVE SMOOTH",
"762 432 OFFCURVE",
"649 487 OFFCURVE",
"482 556 CURVE SMOOTH",
"324 621 OFFCURVE",
"265 662 OFFCURVE",
"265 748 CURVE SMOOTH",
"265 815 OFFCURVE",
"301 904 OFFCURVE",
"437 904 CURVE SMOOTH",
"526 904 OFFCURVE",
"635 879 OFFCURVE",
"712 813 CURVE",
"661 832 LINE",
"728 832 LINE",
"692 800 LINE",
"726 978 LINE",
"732 931 LINE",
"665 978 OFFCURVE",
"574 1008 OFFCURVE",
"455 1008 CURVE SMOOTH",
"260 1008 OFFCURVE",
"145 892 OFFCURVE",
"145 734 CURVE SMOOTH",
"145 550 OFFCURVE",
"303 503 OFFCURVE",
"424 456 CURVE SMOOTH",
"582 395 OFFCURVE",
"642 347 OFFCURVE",
"642 249 CURVE SMOOTH",
"642 148 OFFCURVE",
"567 78 OFFCURVE",
"418 79 CURVE SMOOTH",
"292 80 OFFCURVE",
"183 147 OFFCURVE",
"93 214 CURVE",
"177 188 LINE",
"66 188 LINE",
"120 234 LINE",
"120 9 LINE",
"100 81 LINE",
"160 23 OFFCURVE",
"279 -24 OFFCURVE",
"401 -24 CURVE SMOOTH"
);
}
);
width = 862;
}
);
leftKerningGroup = s;
unicode = 0073;
},
{
glyphname = t;
lastChange = "2016-11-10 18:47:28 +0000";
layers = (
{
background = {
paths = (
{
closed = 1;
nodes = (
"626 172 LINE",
"680 117 LINE",
"566 117 LINE",
"651 139 LINE",
"594 98 OFFCURVE",
"538 84 OFFCURVE",
"467 84 CURVE SMOOTH",
"366 84 OFFCURVE",
"350 153 OFFCURVE",
"350 235 CURVE SMOOTH",
"350 1273 LINE",
"404 1219 LINE",
"288 1219 LINE",
"395 1228 LINE",
"177 1191 LINE",
"230 1254 LINE",
"230 208 LINE SMOOTH",
"230 75 OFFCURVE",
"279 -24 OFFCURVE",
"445 -24 CURVE SMOOTH",
"526 -24 OFFCURVE",
"594 -11 OFFCURVE",
"656 28 CURVE",
"626 -44 LINE"
);
},
{
closed = 1;
nodes = (
"625 875 LINE",
"625 984 LINE",
"70 984 LINE",
"70 875 LINE"
);
}
);
};
layerId = "785B6CE2-304A-4677-8076-DAC1C502AB09";
paths = (
{
closed = 1;
nodes = (
"626 172 LINE",
"680 117 LINE",
"566 117 LINE",
"651 139 LINE",
"594 98 OFFCURVE",
"538 84 OFFCURVE",
"467 84 CURVE SMOOTH",
"366 84 OFFCURVE",
"350 153 OFFCURVE",
"350 235 CURVE SMOOTH",
"350 1273 LINE",
"404 1219 LINE",
"288 1219 LINE",
"395 1228 LINE",
"177 1191 LINE",
"230 1254 LINE",
"230 208 LINE SMOOTH",
"230 75 OFFCURVE",
"279 -24 OFFCURVE",
"445 -24 CURVE SMOOTH",
"526 -24 OFFCURVE",
"594 -11 OFFCURVE",
"656 28 CURVE",
"626 -44 LINE"
);
},
{
closed = 1;
nodes = (
"625 875 LINE",
"625 984 LINE",
"70 984 LINE",
"70 875 LINE"
);
}
);
width = 726;
}
);
leftKerningGroup = t;
rightKerningGroup = t;
unicode = 0074;
},
{
glyphname = u;
lastChange = "2016-11-10 18:47:34 +0000";
layers = (
{
anchors = (
{
name = bottom;
position = "{556, 0}";
},
{
name = ogonek;
position = "{858, 0}";
},
{
name = top;
position = "{556, 984}";
},
{
name = topright;
position = "{1092, 984}";
}
);
background = {
anchors = (
{
name = bottom;
position = "{556, 0}";
},
{
name = ogonek;
position = "{858, 0}";
},
{
name = top;
position = "{556, 984}";
},
{
name = topright;
position = "{1092, 984}";
}
);
paths = (
{
closed = 1;
nodes = (
"590 -24 OFFCURVE",
"683 18 OFFCURVE",
"850 205 CURVE",
"804 291 LINE",
"672 131 OFFCURVE",
"586 80 OFFCURVE",
"492 80 CURVE SMOOTH",
"364 80 OFFCURVE",
"312 180 OFFCURVE",
"312 299 CURVE SMOOTH",
"312 984 LINE",
"192 984 LINE",
"192 292 LINE SMOOTH",
"192 107 OFFCURVE",
"285 -24 OFFCURVE",
"478 -24 CURVE SMOOTH"
);
},
{
closed = 1;
nodes = (
"916 0 LINE",
"916 984 LINE",
"796 984 LINE",
"796 190 LINE",
"806 190 LINE",
"806 0 LINE"
);
}
);
};
layerId = "785B6CE2-304A-4677-8076-DAC1C502AB09";
paths = (
{
closed = 1;
nodes = (
"590 -24 OFFCURVE",
"683 18 OFFCURVE",
"850 205 CURVE",
"804 291 LINE",
"672 131 OFFCURVE",
"586 80 OFFCURVE",
"492 80 CURVE SMOOTH",
"364 80 OFFCURVE",
"312 180 OFFCURVE",
"312 299 CURVE SMOOTH",
"312 984 LINE",
"192 984 LINE",
"192 292 LINE SMOOTH",
"192 107 OFFCURVE",
"285 -24 OFFCURVE",
"478 -24 CURVE SMOOTH"
);
},
{
closed = 1;
nodes = (
"916 0 LINE",
"916 984 LINE",
"796 984 LINE",
"796 190 LINE",
"806 190 LINE",
"806 0 LINE"
);
}
);
width = 1108;
}
);
rightMetricsKey = n;
unicode = 0075;
},
{
glyphname = v;
lastChange = "2016-11-10 18:48:04 +0000";
layers = (
{
background = {
paths = (
{
closed = 1;
nodes = (
"509 0 LINE",
"879 984 LINE",
"756 984 LINE",
"526 352 LINE SMOOTH",
"509 304 OFFCURVE",
"463 155 OFFCURVE",
"432 57 CURVE",
"485 56 LINE",
"454 155 OFFCURVE",
"411 304 OFFCURVE",
"392 354 CURVE SMOOTH",
"159 984 LINE",
"30 984 LINE",
"399 0 LINE"
);
}
);
};
guideLines = (
{
position = "{430, 354}";
}
);
layerId = "785B6CE2-304A-4677-8076-DAC1C502AB09";
paths = (
{
closed = 1;
nodes = (
"509 0 LINE",
"879 984 LINE",
"756 984 LINE",
"526 352 LINE SMOOTH",
"509 304 OFFCURVE",
"463 155 OFFCURVE",
"432 57 CURVE",
"485 56 LINE",
"454 155 OFFCURVE",
"411 304 OFFCURVE",
"392 354 CURVE SMOOTH",
"159 984 LINE",
"30 984 LINE",
"399 0 LINE"
);
}
);
width = 909;
}
);
leftKerningGroup = v;
rightKerningGroup = v;
unicode = 0076;
},
{
glyphname = w;
lastChange = "2016-11-10 18:48:28 +0000";
layers = (
{
anchors = (
{
name = bottom;
position = "{687, 0}";
},
{
name = top;
position = "{687, 984}";
}
);
background = {
anchors = (
{
name = bottom;
position = "{687, 0}";
},
{
name = top;
position = "{687, 984}";
}
);
paths = (
{
closed = 1;
nodes = (
"451 0 LINE",
"651 646 LINE SMOOTH",
"662 680 OFFCURVE",
"690 809 OFFCURVE",
"710 890 CURVE",
"730 984 LINE",
"647 984 LINE",
"451 352 LINE SMOOTH",
"443 327 OFFCURVE",
"404 150 OFFCURVE",
"381 49 CURVE",
"428 49 LINE",
"406 150 OFFCURVE",
"369 323 OFFCURVE",
"361 352 CURVE SMOOTH",
"188 984 LINE",
"60 984 LINE",
"341 0 LINE"
);
},
{
closed = 1;
nodes = (
"1032 0 LINE",
"1313 984 LINE",
"1193 984 LINE",
"1020 352 LINE SMOOTH",
"1011 319 OFFCURVE",
"976 150 OFFCURVE",
"954 49 CURVE",
"1001 49 LINE",
"978 150 OFFCURVE",
"942 319 OFFCURVE",
"932 352 CURVE SMOOTH",
"747 984 LINE",
"662 984 LINE",
"676 877 LINE",
"693 800 OFFCURVE",
"718 675 OFFCURVE",
"727 646 CURVE SMOOTH",
"922 0 LINE"
);
}
);
};
guideLines = (
{
position = "{386, 352}";
}
);
layerId = "785B6CE2-304A-4677-8076-DAC1C502AB09";
paths = (
{
closed = 1;
nodes = (
"451 0 LINE",
"651 646 LINE SMOOTH",
"662 680 OFFCURVE",
"690 809 OFFCURVE",
"710 890 CURVE",
"730 984 LINE",
"647 984 LINE",
"451 352 LINE SMOOTH",
"443 327 OFFCURVE",
"404 150 OFFCURVE",
"381 49 CURVE",
"428 49 LINE",
"406 150 OFFCURVE",
"369 323 OFFCURVE",
"361 352 CURVE SMOOTH",
"188 984 LINE",
"60 984 LINE",
"341 0 LINE"
);
},
{
closed = 1;
nodes = (
"1032 0 LINE",
"1313 984 LINE",
"1193 984 LINE",
"1020 352 LINE SMOOTH",
"1011 319 OFFCURVE",
"976 150 OFFCURVE",
"954 49 CURVE",
"1001 49 LINE",
"978 150 OFFCURVE",
"942 319 OFFCURVE",
"932 352 CURVE SMOOTH",
"747 984 LINE",
"662 984 LINE",
"676 877 LINE",
"693 800 OFFCURVE",
"718 675 OFFCURVE",
"727 646 CURVE SMOOTH",
"922 0 LINE"
);
}
);
width = 1373;
}
);
leftKerningGroup = w;
rightKerningGroup = w;
unicode = 0077;
},
{
glyphname = x;
lastChange = "2016-11-10 18:48:31 +0000";
layers = (
{
background = {
paths = (
{
closed = 1;
nodes = (
"167 0 LINE",
"488 496 LINE",
"418 588 LINE",
"30 0 LINE"
);
},
{
closed = 1;
nodes = (
"859 0 LINE",
"509 540 LINE",
"424 459 LINE",
"722 0 LINE"
);
},
{
closed = 1;
nodes = (
"489 540 LINE",
"201 984 LINE",
"64 984 LINE",
"404 459 LINE"
);
},
{
closed = 1;
nodes = (
"841 984 LINE",
"706 984 LINE",
"419 542 LINE",
"487 450 LINE"
);
}
);
};
layerId = "785B6CE2-304A-4677-8076-DAC1C502AB09";
paths = (
{
closed = 1;
nodes = (
"167 0 LINE",
"488 496 LINE",
"418 588 LINE",
"30 0 LINE"
);
},
{
closed = 1;
nodes = (
"859 0 LINE",
"509 540 LINE",
"424 459 LINE",
"722 0 LINE"
);
},
{
closed = 1;
nodes = (
"489 540 LINE",
"201 984 LINE",
"64 984 LINE",
"404 459 LINE"
);
},
{
closed = 1;
nodes = (
"841 984 LINE",
"706 984 LINE",
"419 542 LINE",
"487 450 LINE"
);
}
);
width = 889;
}
);
leftKerningGroup = x;
rightKerningGroup = x;
unicode = 0078;
},
{
glyphname = y;
lastChange = "2016-11-10 18:48:54 +0000";
layers = (
{
anchors = (
{
name = bottom;
position = "{474, 0}";
},
{
name = top;
position = "{474, 984}";
}
);
background = {
anchors = (
{
name = bottom;
position = "{474, 0}";
},
{
name = top;
position = "{474, 984}";
}
);
paths = (
{
closed = 1;
nodes = (
"419 51 LINE",
"395 -133 LINE SMOOTH",
"381 -238 OFFCURVE",
"318 -289 OFFCURVE",
"239 -287 CURVE SMOOTH",
"189 -286 OFFCURVE",
"162 -275 OFFCURVE",
"90 -235 CURVE",
"189 -263 LINE",
"73 -263 LINE",
"145 -226 LINE",
"101 -399 LINE",
"85 -346 LINE",
"153 -383 OFFCURVE",
"203 -391 OFFCURVE",
"246 -391 CURVE SMOOTH",
"387 -391 OFFCURVE",
"480 -296 OFFCURVE",
"501 -167 CURVE SMOOTH",
"534 32 LINE"
);
},
{
closed = 1;
nodes = (
"526 0 LINE",
"899 984 LINE",
"776 984 LINE",
"515 274 LINE SMOOTH",
"503 242 OFFCURVE",
"468 116 OFFCURVE",
"444 39 CURVE",
"509 39 LINE",
"484 116 OFFCURVE",
"445 245 OFFCURVE",
"434 274 CURVE SMOOTH",
"159 984 LINE",
"30 984 LINE",
"417 -1 LINE"
);
}
);
};
guideLines = (
{
position = "{399, 13}";
}
);
layerId = "785B6CE2-304A-4677-8076-DAC1C502AB09";
paths = (
{
closed = 1;
nodes = (
"419 51 LINE",
"395 -133 LINE SMOOTH",
"381 -238 OFFCURVE",
"318 -289 OFFCURVE",
"239 -287 CURVE SMOOTH",
"189 -286 OFFCURVE",
"162 -275 OFFCURVE",
"90 -235 CURVE",
"189 -263 LINE",
"73 -263 LINE",
"145 -226 LINE",
"101 -399 LINE",
"85 -346 LINE",
"153 -383 OFFCURVE",
"203 -391 OFFCURVE",
"246 -391 CURVE SMOOTH",
"387 -391 OFFCURVE",
"480 -296 OFFCURVE",
"501 -167 CURVE SMOOTH",
"534 32 LINE"
);
},
{
closed = 1;
nodes = (
"526 0 LINE",
"899 984 LINE",
"776 984 LINE",
"515 274 LINE SMOOTH",
"503 242 OFFCURVE",
"468 116 OFFCURVE",
"444 39 CURVE",
"509 39 LINE",
"484 116 OFFCURVE",
"445 245 OFFCURVE",
"434 274 CURVE SMOOTH",
"159 984 LINE",
"30 984 LINE",
"417 -1 LINE"
);
}
);
width = 919;
}
);
leftKerningGroup = v;
rightKerningGroup = v;
unicode = 0079;
},
{
glyphname = z;
lastChange = "2016-11-10 18:48:59 +0000";
layers = (
{
anchors = (
{
name = bottom;
position = "{417, 0}";
},
{
name = top;
position = "{434, 984}";
}
);
background = {
anchors = (
{
name = bottom;
position = "{417, 0}";
},
{
name = top;
position = "{434, 984}";
}
);
paths = (
{
closed = 1;
nodes = (
"756 0 LINE",
"767 109 LINE",
"179 109 LINE",
"203 64 LINE",
"764 920 LINE",
"737 821 LINE",
"737 1038 LINE",
"788 984 LINE",
"116 984 LINE",
"116 875 LINE",
"658 875 LINE",
"634 920 LINE",
"73 64 LINE",
"100 163 LINE",
"100 -54 LINE",
"49 0 LINE"
);
}
);
};
layerId = "785B6CE2-304A-4677-8076-DAC1C502AB09";
paths = (
{
closed = 1;
nodes = (
"756 0 LINE",
"767 109 LINE",
"179 109 LINE",
"203 64 LINE",
"764 920 LINE",
"737 821 LINE",
"737 1038 LINE",
"788 984 LINE",
"116 984 LINE",
"116 875 LINE",
"658 875 LINE",
"634 920 LINE",
"73 64 LINE",
"100 163 LINE",
"100 -54 LINE",
"49 0 LINE"
);
}
);
width = 847;
}
);
leftKerningGroup = z;
rightKerningGroup = z;
unicode = 007A;
},
{
glyphname = i.alt;
lastChange = "2016-11-10 18:51:19 +0000";
layers = (
{
anchors = (
{
name = _top;
position = "{305, 984}";
},
{
name = bottom;
position = "{305, 0}";
},
{
name = ogonek;
position = "{548, 10}";
},
{
name = top;
position = "{305, 984}";
}
);
background = {
anchors = (
{
name = _top;
position = "{305, 984}";
},
{
name = bottom;
position = "{305, 0}";
},
{
name = ogonek;
position = "{548, 10}";
},
{
name = top;
position = "{305, 984}";
}
);
components = (
{
name = dotaccent;
transform = "{1, 0, 0, 1, 64, 0}";
}
);
paths = (
{
closed = 1;
nodes = (
"392 0 LINE",
"392 984 LINE",
"272 984 LINE",
"272 0 LINE"
);
},
{
closed = 1;
nodes = (
"304 875 LINE",
"304 984 LINE",
"110 984 LINE",
"110 875 LINE"
);
}
);
};
components = (
{
name = dotaccent;
transform = "{1, 0, 0, 1, 64, 0}";
}
);
layerId = "785B6CE2-304A-4677-8076-DAC1C502AB09";
paths = (
{
closed = 1;
nodes = (
"392 0 LINE",
"392 984 LINE",
"272 984 LINE",
"272 0 LINE"
);
},
{
closed = 1;
nodes = (
"304 875 LINE",
"304 984 LINE",
"110 984 LINE",
"110 875 LINE"
);
}
);
width = 592;
}
);
leftKerningGroup = i.alt;
},
{
glyphname = j.alt;
lastChange = "2016-11-10 18:51:19 +0000";
layers = (
{
background = {
components = (
{
name = dotaccent;
transform = "{1, 0, 0, 1, 72, 0}";
}
);
paths = (
{
closed = 1;
nodes = (
"21 -338 LINE",
"107 -387 OFFCURVE",
"182 -391 OFFCURVE",
"219 -391 CURVE SMOOTH",
"369 -391 OFFCURVE",
"439 -325 OFFCURVE",
"439 -199 CURVE SMOOTH",
"439 -93 OFFCURVE",
"392 -63 OFFCURVE",
"392 100 CURVE SMOOTH",
"392 984 LINE",
"272 984 LINE",
"272 30 LINE SMOOTH",
"272 -86 OFFCURVE",
"315 -99 OFFCURVE",
"315 -190 CURVE SMOOTH",
"315 -270 OFFCURVE",
"281 -287 OFFCURVE",
"222 -287 CURVE SMOOTH",
"169 -287 OFFCURVE",
"102 -278 OFFCURVE",
"44 -234 CURVE",
"138 -255 LINE",
"22 -255 LINE",
"84 -216 LINE",
"26 -407 LINE"
);
},
{
closed = 1;
nodes = (
"304 875 LINE",
"304 984 LINE",
"110 984 LINE",
"110 875 LINE"
);
}
);
};
components = (
{
name = dotaccent;
transform = "{1, 0, 0, 1, 72, 0}";
}
);
layerId = "785B6CE2-304A-4677-8076-DAC1C502AB09";
paths = (
{
closed = 1;
nodes = (
"21 -338 LINE",
"107 -387 OFFCURVE",
"182 -391 OFFCURVE",
"219 -391 CURVE SMOOTH",
"369 -391 OFFCURVE",
"439 -325 OFFCURVE",
"439 -199 CURVE SMOOTH",
"439 -93 OFFCURVE",
"392 -63 OFFCURVE",
"392 100 CURVE SMOOTH",
"392 984 LINE",
"272 984 LINE",
"272 30 LINE SMOOTH",
"272 -86 OFFCURVE",
"315 -99 OFFCURVE",
"315 -190 CURVE SMOOTH",
"315 -270 OFFCURVE",
"281 -287 OFFCURVE",
"222 -287 CURVE SMOOTH",
"169 -287 OFFCURVE",
"102 -278 OFFCURVE",
"44 -234 CURVE",
"138 -255 LINE",
"22 -255 LINE",
"84 -216 LINE",
"26 -407 LINE"
);
},
{
closed = 1;
nodes = (
"304 875 LINE",
"304 984 LINE",
"110 984 LINE",
"110 875 LINE"
);
}
);
width = 592;
}
);
},
{
glyphname = j.ss01;
lastChange = "2016-11-10 18:51:19 +0000";
layers = (
{
background = {
components = (
{
name = dotaccent;
transform = "{1, 0, 0, 1, 64, 0}";
}
);
paths = (
{
closed = 1;
nodes = (
"324 -391 OFFCURVE",
"392 -292 OFFCURVE",
"392 -159 CURVE SMOOTH",
"392 984 LINE",
"272 984 LINE",
"272 -134 LINE SMOOTH",
"272 -230 OFFCURVE",
"239 -287 OFFCURVE",
"172 -287 CURVE SMOOTH",
"148 -287 OFFCURVE",
"126 -288 OFFCURVE",
"62 -258 CURVE",
"115 -271 LINE",
"57 -271 LINE",
"89 -250 LINE",
"51 -407 LINE",
"46 -363 LINE",
"94 -387 OFFCURVE",
"144 -391 OFFCURVE",
"189 -391 CURVE SMOOTH"
);
},
{
closed = 1;
nodes = (
"304 875 LINE",
"304 984 LINE",
"110 984 LINE",
"110 875 LINE"
);
}
);
};
components = (
{
name = dotaccent;
transform = "{1, 0, 0, 1, 64, 0}";
}
);
layerId = "785B6CE2-304A-4677-8076-DAC1C502AB09";
paths = (
{
closed = 1;
nodes = (
"324 -391 OFFCURVE",
"392 -292 OFFCURVE",
"392 -159 CURVE SMOOTH",
"392 984 LINE",
"272 984 LINE",
"272 -134 LINE SMOOTH",
"272 -230 OFFCURVE",
"239 -287 OFFCURVE",
"172 -287 CURVE SMOOTH",
"148 -287 OFFCURVE",
"126 -288 OFFCURVE",
"62 -258 CURVE",
"115 -271 LINE",
"57 -271 LINE",
"89 -250 LINE",
"51 -407 LINE",
"46 -363 LINE",
"94 -387 OFFCURVE",
"144 -391 OFFCURVE",
"189 -391 CURVE SMOOTH"
);
},
{
closed = 1;
nodes = (
"304 875 LINE",
"304 984 LINE",
"110 984 LINE",
"110 875 LINE"
);
}
);
width = 584;
}
);
},
{
glyphname = mu;
lastChange = "2016-11-10 18:25:34 +0000";
layers = (
{
background = {
paths = (
{
closed = 1;
nodes = (
"594 -24 OFFCURVE",
"687 18 OFFCURVE",
"854 205 CURVE",
"808 291 LINE",
"676 131 OFFCURVE",
"590 80 OFFCURVE",
"496 80 CURVE SMOOTH",
"364 80 OFFCURVE",
"312 176 OFFCURVE",
"312 295 CURVE",
"192 325 LINE",
"192 140 OFFCURVE",
"285 -24 OFFCURVE",
"482 -24 CURVE SMOOTH"
);
},
{
closed = 1;
nodes = (
"312 -367 LINE",
"312 -140 LINE SMOOTH",
"312 -87 OFFCURVE",
"305 3 OFFCURVE",
"302 75 CURVE",
"312 102 LINE",
"312 984 LINE",
"192 984 LINE",
"192 -367 LINE SMOOTH"
);
},
{
closed = 1;
nodes = (
"1106 136 LINE",
"1160 106 LINE",
"1084 106 LINE",
"1143 132 LINE",
"1079 89 OFFCURVE",
"1025 84 OFFCURVE",
"992 84 CURVE SMOOTH",
"936 84 OFFCURVE",
"920 123 OFFCURVE",
"920 205 CURVE",
"806 178 LINE",
"806 45 OFFCURVE",
"849 -24 OFFCURVE",
"970 -24 CURVE SMOOTH",
"1010 -24 OFFCURVE",
"1082 -23 OFFCURVE",
"1146 21 CURVE",
"1106 -56 LINE"
);
},
{
closed = 1;
nodes = (
"920 173 LINE",
"920 984 LINE",
"800 984 LINE",
"800 173 LINE"
);
}
);
};
layerId = "785B6CE2-304A-4677-8076-DAC1C502AB09";
paths = (
{
closed = 1;
nodes = (
"594 -24 OFFCURVE",
"687 18 OFFCURVE",
"854 205 CURVE",
"808 291 LINE",
"676 131 OFFCURVE",
"590 80 OFFCURVE",
"496 80 CURVE SMOOTH",
"364 80 OFFCURVE",
"312 176 OFFCURVE",
"312 295 CURVE",
"192 325 LINE",
"192 140 OFFCURVE",
"285 -24 OFFCURVE",
"482 -24 CURVE SMOOTH"
);
},
{
closed = 1;
nodes = (
"312 -367 LINE",
"312 -140 LINE SMOOTH",
"312 -87 OFFCURVE",
"305 3 OFFCURVE",
"302 75 CURVE",
"312 102 LINE",
"312 984 LINE",
"192 984 LINE",
"192 -367 LINE SMOOTH"
);
},
{
closed = 1;
nodes = (
"1106 136 LINE",
"1160 106 LINE",
"1084 106 LINE",
"1143 132 LINE",
"1079 89 OFFCURVE",
"1025 84 OFFCURVE",
"992 84 CURVE SMOOTH",
"936 84 OFFCURVE",
"920 123 OFFCURVE",
"920 205 CURVE",
"806 178 LINE",
"806 45 OFFCURVE",
"849 -24 OFFCURVE",
"970 -24 CURVE SMOOTH",
"1010 -24 OFFCURVE",
"1082 -23 OFFCURVE",
"1146 21 CURVE",
"1106 -56 LINE"
);
},
{
closed = 1;
nodes = (
"920 173 LINE",
"920 984 LINE",
"800 984 LINE",
"800 173 LINE"
);
}
);
width = 1112;
}
);
unicode = 03BC;
},
{
glyphname = zero;
lastChange = "2016-11-10 18:25:34 +0000";
layers = (
{
background = {
paths = (
{
closed = 1;
nodes = (
"824 -24 OFFCURVE",
"956 229 OFFCURVE",
"956 625 CURVE SMOOTH",
"956 1002 OFFCURVE",
"836 1244 OFFCURVE",
"557 1244 CURVE SMOOTH",
"261 1244 OFFCURVE",
"130 994 OFFCURVE",
"130 596 CURVE SMOOTH",
"130 221 OFFCURVE",
"253 -24 OFFCURVE",
"529 -24 CURVE SMOOTH"
);
},
{
closed = 1;
nodes = (
"351 80 OFFCURVE",
"259 250 OFFCURVE",
"259 609 CURVE SMOOTH",
"259 974 OFFCURVE",
"356 1140 OFFCURVE",
"543 1140 CURVE SMOOTH",
"731 1140 OFFCURVE",
"827 972 OFFCURVE",
"827 607 CURVE SMOOTH",
"827 249 OFFCURVE",
"736 80 OFFCURVE",
"545 80 CURVE SMOOTH"
);
}
);
};
layerId = "785B6CE2-304A-4677-8076-DAC1C502AB09";
paths = (
{
closed = 1;
nodes = (
"824 -24 OFFCURVE",
"956 229 OFFCURVE",
"956 625 CURVE SMOOTH",
"956 1002 OFFCURVE",
"836 1244 OFFCURVE",
"557 1244 CURVE SMOOTH",
"261 1244 OFFCURVE",
"130 994 OFFCURVE",
"130 596 CURVE SMOOTH",
"130 221 OFFCURVE",
"253 -24 OFFCURVE",
"529 -24 CURVE SMOOTH"
);
},
{
closed = 1;
nodes = (
"351 80 OFFCURVE",
"259 250 OFFCURVE",
"259 609 CURVE SMOOTH",
"259 974 OFFCURVE",
"356 1140 OFFCURVE",
"543 1140 CURVE SMOOTH",
"731 1140 OFFCURVE",
"827 972 OFFCURVE",
"827 607 CURVE SMOOTH",
"827 249 OFFCURVE",
"736 80 OFFCURVE",
"545 80 CURVE SMOOTH"
);
}
);
width = 1086;
}
);
unicode = 0030;
},
{
glyphname = one;
lastChange = "2016-11-10 18:49:46 +0000";
layers = (
{
background = {
paths = (
{
closed = 1;
nodes = (
"913 0 LINE",
"913 109 LINE",
"190 109 LINE",
"190 0 LINE"
);
},
{
closed = 1;
nodes = (
"231 858 LINE",
"138 821 LINE",
"552 1151 LINE",
"510 1169 LINE",
"510 50 LINE",
"633 50 LINE",
"633 1264 LINE",
"456 1264 LINE",
"556 1297 LINE",
"131 965 LINE",
"170 1056 LINE",
"170 804 LINE",
"116 858 LINE"
);
}
);
};
guideLines = (
{
angle = 90;
position = "{190, 894}";
}
);
layerId = "785B6CE2-304A-4677-8076-DAC1C502AB09";
paths = (
{
closed = 1;
nodes = (
"913 0 LINE",
"913 109 LINE",
"190 109 LINE",
"190 0 LINE"
);
},
{
closed = 1;
nodes = (
"231 858 LINE",
"138 821 LINE",
"552 1151 LINE",
"510 1169 LINE",
"510 50 LINE",
"633 50 LINE",
"633 1264 LINE",
"456 1264 LINE",
"556 1297 LINE",
"131 965 LINE",
"170 1056 LINE",
"170 804 LINE",
"116 858 LINE"
);
}
);
width = 1033;
}
);
unicode = 0031;
},
{
glyphname = two;
lastChange = "2016-11-10 18:49:53 +0000";
layers = (
{
background = {
paths = (
{
closed = 1;
nodes = (
"130 164 LINE",
"130 -54 LINE",
"79 0 LINE",
"911 0 LINE",
"911 110 LINE",
"209 110 LINE",
"252 64 LINE",
"361 155 OFFCURVE",
"832 598 OFFCURVE",
"832 922 CURVE SMOOTH",
"832 1105 OFFCURVE",
"711 1244 OFFCURVE",
"473 1244 CURVE SMOOTH",
"325 1244 OFFCURVE",
"179 1168 OFFCURVE",
"118 1101 CURVE",
"138 1173 LINE",
"138 946 LINE",
"84 999 LINE",
"195 999 LINE",
"111 975 LINE",
"207 1050 OFFCURVE",
"335 1137 OFFCURVE",
"471 1137 CURVE SMOOTH",
"628 1137 OFFCURVE",
"703 1031 OFFCURVE",
"703 908 CURVE SMOOTH",
"703 630 OFFCURVE",
"220 145 OFFCURVE",
"105 64 CURVE"
);
}
);
};
layerId = "785B6CE2-304A-4677-8076-DAC1C502AB09";
paths = (
{
closed = 1;
nodes = (
"130 164 LINE",
"130 -54 LINE",
"79 0 LINE",
"911 0 LINE",
"911 110 LINE",
"209 110 LINE",
"252 64 LINE",
"361 155 OFFCURVE",
"832 598 OFFCURVE",
"832 922 CURVE SMOOTH",
"832 1105 OFFCURVE",
"711 1244 OFFCURVE",
"473 1244 CURVE SMOOTH",
"325 1244 OFFCURVE",
"179 1168 OFFCURVE",
"118 1101 CURVE",
"138 1173 LINE",
"138 946 LINE",
"84 999 LINE",
"195 999 LINE",
"111 975 LINE",
"207 1050 OFFCURVE",
"335 1137 OFFCURVE",
"471 1137 CURVE SMOOTH",
"628 1137 OFFCURVE",
"703 1031 OFFCURVE",
"703 908 CURVE SMOOTH",
"703 630 OFFCURVE",
"220 145 OFFCURVE",
"105 64 CURVE"
);
}
);
width = 1033;
}
);
unicode = 0032;
},
{
glyphname = three;
lastChange = "2016-11-10 18:49:59 +0000";
layers = (
{
background = {
paths = (
{
closed = 1;
nodes = (
"708 -24 OFFCURVE",
"869 126 OFFCURVE",
"869 308 CURVE SMOOTH",
"869 535 OFFCURVE",
"713 667 OFFCURVE",
"447 671 CURVE",
"426 687 LINE",
"386 687 OFFCURVE",
"298 679 OFFCURVE",
"262 674 CURVE",
"262 574 LINE",
"302 577 OFFCURVE",
"381 581 OFFCURVE",
"437 581 CURVE SMOOTH",
"631 581 OFFCURVE",
"738 471 OFFCURVE",
"738 322 CURVE SMOOTH",
"738 169 OFFCURVE",
"625 83 OFFCURVE",
"450 83 CURVE SMOOTH",
"310 83 OFFCURVE",
"190 147 OFFCURVE",
"82 233 CURVE",
"166 202 LINE",
"55 202 LINE",
"134 249 LINE",
"83 60 LINE",
"87 96 LINE",
"147 33 OFFCURVE",
"292 -24 OFFCURVE",
"450 -24 CURVE SMOOTH"
);
},
{
closed = 1;
nodes = (
"636 658 OFFCURVE",
"809 744 OFFCURVE",
"809 938 CURVE SMOOTH",
"809 1105 OFFCURVE",
"688 1244 OFFCURVE",
"450 1244 CURVE SMOOTH",
"315 1244 OFFCURVE",
"197 1190 OFFCURVE",
"136 1129 CURVE",
"156 1201 LINE",
"156 978 LINE",
"102 1031 LINE",
"213 1031 LINE",
"129 1007 LINE",
"225 1076 OFFCURVE",
"325 1137 OFFCURVE",
"448 1137 CURVE SMOOTH",
"605 1137 OFFCURVE",
"680 1031 OFFCURVE",
"680 924 CURVE SMOOTH",
"680 785 OFFCURVE",
"568 707 OFFCURVE",
"426 687 CURVE",
"494 629 LINE"
);
}
);
};
layerId = "785B6CE2-304A-4677-8076-DAC1C502AB09";
paths = (
{
closed = 1;
nodes = (
"708 -24 OFFCURVE",
"869 126 OFFCURVE",
"869 308 CURVE SMOOTH",
"869 535 OFFCURVE",
"713 667 OFFCURVE",
"447 671 CURVE",
"426 687 LINE",
"386 687 OFFCURVE",
"298 679 OFFCURVE",
"262 674 CURVE",
"262 574 LINE",
"302 577 OFFCURVE",
"381 581 OFFCURVE",
"437 581 CURVE SMOOTH",
"631 581 OFFCURVE",
"738 471 OFFCURVE",
"738 322 CURVE SMOOTH",
"738 169 OFFCURVE",
"625 83 OFFCURVE",
"450 83 CURVE SMOOTH",
"310 83 OFFCURVE",
"190 147 OFFCURVE",
"82 233 CURVE",
"166 202 LINE",
"55 202 LINE",
"134 249 LINE",
"83 60 LINE",
"87 96 LINE",
"147 33 OFFCURVE",
"292 -24 OFFCURVE",
"450 -24 CURVE SMOOTH"
);
},
{
closed = 1;
nodes = (
"636 658 OFFCURVE",
"809 744 OFFCURVE",
"809 938 CURVE SMOOTH",
"809 1105 OFFCURVE",
"688 1244 OFFCURVE",
"450 1244 CURVE SMOOTH",
"315 1244 OFFCURVE",
"197 1190 OFFCURVE",
"136 1129 CURVE",
"156 1201 LINE",
"156 978 LINE",
"102 1031 LINE",
"213 1031 LINE",
"129 1007 LINE",
"225 1076 OFFCURVE",
"325 1137 OFFCURVE",
"448 1137 CURVE SMOOTH",
"605 1137 OFFCURVE",
"680 1031 OFFCURVE",
"680 924 CURVE SMOOTH",
"680 785 OFFCURVE",
"568 707 OFFCURVE",
"426 687 CURVE",
"494 629 LINE"
);
}
);
width = 1008;
}
);
unicode = 0033;
},
{
glyphname = four;
lastChange = "2016-11-10 18:25:34 +0000";
layers = (
{
background = {
paths = (
{
closed = 1;
nodes = (
"29 330 LINE",
"921 330 LINE",
"921 435 LINE",
"151 435 LINE",
"171 385 LINE",
"615 1252 LINE",
"596 1150 LINE",
"596 1274 LINE",
"644 1220 LINE",
"412 1220 LINE",
"490 1268 LINE",
"31 357 LINE",
"65 515 LINE",
"65 276 LINE"
);
},
{
closed = 1;
nodes = (
"745 0 LINE",
"745 761 LINE",
"628 761 LINE",
"628 0 LINE"
);
}
);
};
layerId = "785B6CE2-304A-4677-8076-DAC1C502AB09";
paths = (
{
closed = 1;
nodes = (
"29 330 LINE",
"921 330 LINE",
"921 435 LINE",
"151 435 LINE",
"171 385 LINE",
"615 1252 LINE",
"596 1150 LINE",
"596 1274 LINE",
"644 1220 LINE",
"412 1220 LINE",
"490 1268 LINE",
"31 357 LINE",
"65 515 LINE",
"65 276 LINE"
);
},
{
closed = 1;
nodes = (
"745 0 LINE",
"745 761 LINE",
"628 761 LINE",
"628 0 LINE"
);
}
);
width = 1010;
}
);
unicode = 0034;
},
{
glyphname = five;
lastChange = "2016-11-10 18:25:34 +0000";
layers = (
{
background = {
paths = (
{
closed = 1;
nodes = (
"693 -24 OFFCURVE",
"869 127 OFFCURVE",
"869 394 CURVE SMOOTH",
"869 640 OFFCURVE",
"703 771 OFFCURVE",
"496 771 CURVE SMOOTH",
"408 771 OFFCURVE",
"326 748 OFFCURVE",
"264 726 CURVE",
"284 702 LINE",
"284 1165 LINE",
"240 1111 LINE",
"809 1111 LINE",
"809 1220 LINE",
"171 1220 LINE",
"171 571 LINE",
"117 625 LINE",
"264 586 LINE",
"191 586 LINE",
"310 642 OFFCURVE",
"372 665 OFFCURVE",
"482 665 CURVE SMOOTH",
"587 665 OFFCURVE",
"740 601 OFFCURVE",
"740 384 CURVE SMOOTH",
"740 191 OFFCURVE",
"643 83 OFFCURVE",
"448 83 CURVE SMOOTH",
"316 83 OFFCURVE",
"191 133 OFFCURVE",
"97 209 CURVE",
"176 180 LINE",
"111 180 LINE",
"138 215 LINE",
"92 43 LINE",
"92 85 LINE",
"159 16 OFFCURVE",
"309 -24 OFFCURVE",
"458 -24 CURVE SMOOTH"
);
}
);
};
layerId = "785B6CE2-304A-4677-8076-DAC1C502AB09";
paths = (
{
closed = 1;
nodes = (
"693 -24 OFFCURVE",
"869 127 OFFCURVE",
"869 394 CURVE SMOOTH",
"869 640 OFFCURVE",
"703 771 OFFCURVE",
"496 771 CURVE SMOOTH",
"408 771 OFFCURVE",
"326 748 OFFCURVE",
"264 726 CURVE",
"284 702 LINE",
"284 1165 LINE",
"240 1111 LINE",
"809 1111 LINE",
"809 1220 LINE",
"171 1220 LINE",
"171 571 LINE",
"117 625 LINE",
"264 586 LINE",
"191 586 LINE",
"310 642 OFFCURVE",
"372 665 OFFCURVE",
"482 665 CURVE SMOOTH",
"587 665 OFFCURVE",
"740 601 OFFCURVE",
"740 384 CURVE SMOOTH",
"740 191 OFFCURVE",
"643 83 OFFCURVE",
"448 83 CURVE SMOOTH",
"316 83 OFFCURVE",
"191 133 OFFCURVE",
"97 209 CURVE",
"176 180 LINE",
"111 180 LINE",
"138 215 LINE",
"92 43 LINE",
"92 85 LINE",
"159 16 OFFCURVE",
"309 -24 OFFCURVE",
"458 -24 CURVE SMOOTH"
);
}
);
width = 1014;
}
);
unicode = 0035;
},
{
glyphname = six;
lastChange = "2016-11-10 18:50:09 +0000";
layers = (
{
background = {
paths = (
{
closed = 1;
nodes = (
"779 -24 OFFCURVE",
"932 175 OFFCURVE",
"932 403 CURVE SMOOTH",
"932 604 OFFCURVE",
"795 745 OFFCURVE",
"588 745 CURVE SMOOTH",
"380 745 OFFCURVE",
"274 640 OFFCURVE",
"233 584 CURVE",
"233 484 LINE",
"336 598 OFFCURVE",
"454 644 OFFCURVE",
"577 644 CURVE SMOOTH",
"702 644 OFFCURVE",
"805 558 OFFCURVE",
"805 389 CURVE SMOOTH",
"805 213 OFFCURVE",
"706 80 OFFCURVE",
"543 80 CURVE SMOOTH",
"359 80 OFFCURVE",
"259 214 OFFCURVE",
"259 551 CURVE SMOOTH",
"259 930 OFFCURVE",
"381 1140 OFFCURVE",
"605 1140 CURVE SMOOTH",
"727 1140 OFFCURVE",
"805 1100 OFFCURVE",
"889 1045 CURVE",
"812 1064 LINE",
"910 1064 LINE",
"860 1035 LINE",
"905 1202 LINE",
"945 1141 LINE",
"830 1220 OFFCURVE",
"727 1244 OFFCURVE",
"605 1244 CURVE SMOOTH",
"301 1244 OFFCURVE",
"130 969 OFFCURVE",
"130 541 CURVE SMOOTH",
"130 169 OFFCURVE",
"267 -24 OFFCURVE",
"531 -24 CURVE SMOOTH"
);
}
);
};
layerId = "785B6CE2-304A-4677-8076-DAC1C502AB09";
paths = (
{
closed = 1;
nodes = (
"779 -24 OFFCURVE",
"932 175 OFFCURVE",
"932 403 CURVE SMOOTH",
"932 604 OFFCURVE",
"795 745 OFFCURVE",
"588 745 CURVE SMOOTH",
"380 745 OFFCURVE",
"274 640 OFFCURVE",
"233 584 CURVE",
"233 484 LINE",
"336 598 OFFCURVE",
"454 644 OFFCURVE",
"577 644 CURVE SMOOTH",
"702 644 OFFCURVE",
"805 558 OFFCURVE",
"805 389 CURVE SMOOTH",
"805 213 OFFCURVE",
"706 80 OFFCURVE",
"543 80 CURVE SMOOTH",
"359 80 OFFCURVE",
"259 214 OFFCURVE",
"259 551 CURVE SMOOTH",
"259 930 OFFCURVE",
"381 1140 OFFCURVE",
"605 1140 CURVE SMOOTH",
"727 1140 OFFCURVE",
"805 1100 OFFCURVE",
"889 1045 CURVE",
"812 1064 LINE",
"910 1064 LINE",
"860 1035 LINE",
"905 1202 LINE",
"945 1141 LINE",
"830 1220 OFFCURVE",
"727 1244 OFFCURVE",
"605 1244 CURVE SMOOTH",
"301 1244 OFFCURVE",
"130 969 OFFCURVE",
"130 541 CURVE SMOOTH",
"130 169 OFFCURVE",
"267 -24 OFFCURVE",
"531 -24 CURVE SMOOTH"
);
}
);
width = 1062;
}
);
unicode = 0036;
},
{
glyphname = seven;
lastChange = "2016-11-10 18:50:15 +0000";
layers = (
{
background = {
paths = (
{
closed = 1;
nodes = (
"471 0 LINE",
"505 396 OFFCURVE",
"607 770 OFFCURVE",
"865 1156 CURVE",
"845 1056 LINE",
"845 1274 LINE",
"891 1220 LINE",
"110 1220 LINE",
"110 1110 LINE",
"761 1110 LINE",
"735 1156 LINE",
"477 770 OFFCURVE",
"375 396 OFFCURVE",
"341 0 CURVE"
);
}
);
};
layerId = "785B6CE2-304A-4677-8076-DAC1C502AB09";
paths = (
{
closed = 1;
nodes = (
"471 0 LINE",
"505 396 OFFCURVE",
"607 770 OFFCURVE",
"865 1156 CURVE",
"845 1056 LINE",
"845 1274 LINE",
"891 1220 LINE",
"110 1220 LINE",
"110 1110 LINE",
"761 1110 LINE",
"735 1156 LINE",
"477 770 OFFCURVE",
"375 396 OFFCURVE",
"341 0 CURVE"
);
}
);
width = 949;
}
);
unicode = 0037;
},
{
glyphname = eight;
lastChange = "2016-11-10 18:50:27 +0000";
layers = (
{
background = {
paths = (
{
closed = 1;
nodes = (
"802 -24 OFFCURVE",
"957 130 OFFCURVE",
"957 309 CURVE SMOOTH",
"957 422 OFFCURVE",
"870 574 OFFCURVE",
"558 680 CURVE SMOOTH",
"397 735 OFFCURVE",
"302 810 OFFCURVE",
"302 948 CURVE SMOOTH",
"302 1029 OFFCURVE",
"376 1140 OFFCURVE",
"540 1140 CURVE SMOOTH",
"705 1140 OFFCURVE",
"778 1028 OFFCURVE",
"778 947 CURVE SMOOTH",
"778 772 OFFCURVE",
"680 719 OFFCURVE",
"571 638 CURVE",
"649 591 LINE",
"778 670 OFFCURVE",
"905 776 OFFCURVE",
"905 961 CURVE SMOOTH",
"905 1074 OFFCURVE",
"798 1244 OFFCURVE",
"551 1244 CURVE SMOOTH",
"299 1244 OFFCURVE",
"175 1068 OFFCURVE",
"175 938 CURVE SMOOTH",
"175 787 OFFCURVE",
"250 667 OFFCURVE",
"499 575 CURVE SMOOTH",
"725 492 OFFCURVE",
"828 432 OFFCURVE",
"828 295 CURVE SMOOTH",
"828 168 OFFCURVE",
"729 80 OFFCURVE",
"541 80 CURVE SMOOTH",
"352 80 OFFCURVE",
"252 169 OFFCURVE",
"252 296 CURVE SMOOTH",
"252 418 OFFCURVE",
"317 547 OFFCURVE",
"509 634 CURVE",
"430 679 LINE",
"250 615 OFFCURVE",
"123 457 OFFCURVE",
"123 286 CURVE SMOOTH",
"123 118 OFFCURVE",
"248 -24 OFFCURVE",
"529 -24 CURVE SMOOTH"
);
}
);
};
layerId = "785B6CE2-304A-4677-8076-DAC1C502AB09";
paths = (
{
closed = 1;
nodes = (
"802 -24 OFFCURVE",
"957 130 OFFCURVE",
"957 309 CURVE SMOOTH",
"957 422 OFFCURVE",
"870 574 OFFCURVE",
"558 680 CURVE SMOOTH",
"397 735 OFFCURVE",
"302 810 OFFCURVE",
"302 948 CURVE SMOOTH",
"302 1029 OFFCURVE",
"376 1140 OFFCURVE",
"540 1140 CURVE SMOOTH",
"705 1140 OFFCURVE",
"778 1028 OFFCURVE",
"778 947 CURVE SMOOTH",
"778 772 OFFCURVE",
"680 719 OFFCURVE",
"571 638 CURVE",
"649 591 LINE",
"778 670 OFFCURVE",
"905 776 OFFCURVE",
"905 961 CURVE SMOOTH",
"905 1074 OFFCURVE",
"798 1244 OFFCURVE",
"551 1244 CURVE SMOOTH",
"299 1244 OFFCURVE",
"175 1068 OFFCURVE",
"175 938 CURVE SMOOTH",
"175 787 OFFCURVE",
"250 667 OFFCURVE",
"499 575 CURVE SMOOTH",
"725 492 OFFCURVE",
"828 432 OFFCURVE",
"828 295 CURVE SMOOTH",
"828 168 OFFCURVE",
"729 80 OFFCURVE",
"541 80 CURVE SMOOTH",
"352 80 OFFCURVE",
"252 169 OFFCURVE",
"252 296 CURVE SMOOTH",
"252 418 OFFCURVE",
"317 547 OFFCURVE",
"509 634 CURVE",
"430 679 LINE",
"250 615 OFFCURVE",
"123 457 OFFCURVE",
"123 286 CURVE SMOOTH",
"123 118 OFFCURVE",
"248 -24 OFFCURVE",
"529 -24 CURVE SMOOTH"
);
}
);
width = 1080;
}
);
unicode = 0038;
},
{
glyphname = nine;
lastChange = "2016-11-10 18:50:36 +0000";
layers = (
{
background = {
paths = (
{
closed = 1;
nodes = (
"781 -24 OFFCURVE",
"932 251 OFFCURVE",
"932 679 CURVE SMOOTH",
"932 1041 OFFCURVE",
"795 1244 OFFCURVE",
"531 1244 CURVE SMOOTH",
"273 1244 OFFCURVE",
"130 1055 OFFCURVE",
"130 817 CURVE SMOOTH",
"130 616 OFFCURVE",
"267 475 OFFCURVE",
"474 475 CURVE SMOOTH",
"682 475 OFFCURVE",
"788 580 OFFCURVE",
"829 636 CURVE",
"829 736 LINE",
"726 622 OFFCURVE",
"608 576 OFFCURVE",
"485 576 CURVE SMOOTH",
"360 576 OFFCURVE",
"257 662 OFFCURVE",
"257 831 CURVE SMOOTH",
"257 1017 OFFCURVE",
"346 1140 OFFCURVE",
"519 1140 CURVE SMOOTH",
"703 1140 OFFCURVE",
"803 996 OFFCURVE",
"803 669 CURVE SMOOTH",
"803 290 OFFCURVE",
"701 80 OFFCURVE",
"457 80 CURVE SMOOTH",
"330 80 OFFCURVE",
"255 120 OFFCURVE",
"173 175 CURVE",
"253 158 LINE",
"139 158 LINE",
"204 192 LINE",
"157 18 LINE",
"117 79 LINE",
"232 0 OFFCURVE",
"339 -24 OFFCURVE",
"457 -24 CURVE SMOOTH"
);
}
);
};
layerId = "785B6CE2-304A-4677-8076-DAC1C502AB09";
paths = (
{
closed = 1;
nodes = (
"781 -24 OFFCURVE",
"932 251 OFFCURVE",
"932 679 CURVE SMOOTH",
"932 1041 OFFCURVE",
"795 1244 OFFCURVE",
"531 1244 CURVE SMOOTH",
"273 1244 OFFCURVE",
"130 1055 OFFCURVE",
"130 817 CURVE SMOOTH",
"130 616 OFFCURVE",
"267 475 OFFCURVE",
"474 475 CURVE SMOOTH",
"682 475 OFFCURVE",
"788 580 OFFCURVE",
"829 636 CURVE",
"829 736 LINE",
"726 622 OFFCURVE",
"608 576 OFFCURVE",
"485 576 CURVE SMOOTH",
"360 576 OFFCURVE",
"257 662 OFFCURVE",
"257 831 CURVE SMOOTH",
"257 1017 OFFCURVE",
"346 1140 OFFCURVE",
"519 1140 CURVE SMOOTH",
"703 1140 OFFCURVE",
"803 996 OFFCURVE",
"803 669 CURVE SMOOTH",
"803 290 OFFCURVE",
"701 80 OFFCURVE",
"457 80 CURVE SMOOTH",
"330 80 OFFCURVE",
"255 120 OFFCURVE",
"173 175 CURVE",
"253 158 LINE",
"139 158 LINE",
"204 192 LINE",
"157 18 LINE",
"117 79 LINE",
"232 0 OFFCURVE",
"339 -24 OFFCURVE",
"457 -24 CURVE SMOOTH"
);
}
);
width = 1062;
}
);
unicode = 0039;
},
{
glyphname = three.alt;
lastChange = "2016-11-10 18:50:40 +0000";
layers = (
{
background = {
paths = (
{
closed = 1;
nodes = (
"707 -24 OFFCURVE",
"869 119 OFFCURVE",
"869 349 CURVE SMOOTH",
"869 589 OFFCURVE",
"704 731 OFFCURVE",
"495 731 CURVE SMOOTH",
"448 731 OFFCURVE",
"427 724 OFFCURVE",
"377 685 CURVE",
"296 668 LINE",
"310 594 LINE",
"347 603 OFFCURVE",
"405 633 OFFCURVE",
"460 633 CURVE SMOOTH",
"655 633 OFFCURVE",
"738 506 OFFCURVE",
"738 344 CURVE SMOOTH",
"738 172 OFFCURVE",
"630 83 OFFCURVE",
"454 83 CURVE SMOOTH",
"292 83 OFFCURVE",
"169 159 OFFCURVE",
"73 228 CURVE",
"157 197 LINE",
"46 197 LINE",
"125 244 LINE",
"74 59 LINE",
"78 95 LINE",
"141 37 OFFCURVE",
"282 -24 OFFCURVE",
"454 -24 CURVE SMOOTH"
);
},
{
closed = 1;
nodes = (
"856 1195 LINE",
"795 1083 LINE",
"795 1257 LINE",
"847 1220 LINE",
"123 1220 LINE",
"123 1110 LINE",
"714 1110 LINE",
"677 1134 LINE",
"296 668 LINE",
"379 628 LINE"
);
}
);
};
layerId = "785B6CE2-304A-4677-8076-DAC1C502AB09";
paths = (
{
closed = 1;
nodes = (
"707 -24 OFFCURVE",
"869 119 OFFCURVE",
"869 349 CURVE SMOOTH",
"869 589 OFFCURVE",
"704 731 OFFCURVE",
"495 731 CURVE SMOOTH",
"448 731 OFFCURVE",
"427 724 OFFCURVE",
"377 685 CURVE",
"296 668 LINE",
"310 594 LINE",
"347 603 OFFCURVE",
"405 633 OFFCURVE",
"460 633 CURVE SMOOTH",
"655 633 OFFCURVE",
"738 506 OFFCURVE",
"738 344 CURVE SMOOTH",
"738 172 OFFCURVE",
"630 83 OFFCURVE",
"454 83 CURVE SMOOTH",
"292 83 OFFCURVE",
"169 159 OFFCURVE",
"73 228 CURVE",
"157 197 LINE",
"46 197 LINE",
"125 244 LINE",
"74 59 LINE",
"78 95 LINE",
"141 37 OFFCURVE",
"282 -24 OFFCURVE",
"454 -24 CURVE SMOOTH"
);
},
{
closed = 1;
nodes = (
"856 1195 LINE",
"795 1083 LINE",
"795 1257 LINE",
"847 1220 LINE",
"123 1220 LINE",
"123 1110 LINE",
"714 1110 LINE",
"677 1134 LINE",
"296 668 LINE",
"379 628 LINE"
);
}
);
width = 1008;
}
);
},
{
glyphname = asterisk;
lastChange = "2016-11-10 18:25:34 +0000";
layers = (
{
background = {
paths = (
{
closed = 1;
nodes = (
"553 1091 LINE",
"581 1397 LINE",
"451 1397 LINE",
"479 1091 LINE"
);
},
{
closed = 1;
nodes = (
"479 979 LINE",
"451 673 LINE",
"581 673 LINE",
"553 979 LINE"
);
},
{
closed = 1;
nodes = (
"585 1031 LINE",
"862 1160 LINE",
"797 1272 LINE",
"544 1095 LINE"
);
},
{
closed = 1;
nodes = (
"447 1039 LINE",
"170 910 LINE",
"235 798 LINE",
"488 975 LINE"
);
},
{
closed = 1;
nodes = (
"235 1272 LINE",
"170 1160 LINE",
"447 1031 LINE",
"488 1095 LINE"
);
},
{
closed = 1;
nodes = (
"797 798 LINE",
"862 910 LINE",
"585 1039 LINE",
"544 975 LINE"
);
},
{
closed = 1;
nodes = (
"446 970 LINE",
"587 970 LINE",
"587 1102 LINE",
"446 1102 LINE"
);
}
);
};
layerId = "785B6CE2-304A-4677-8076-DAC1C502AB09";
paths = (
{
closed = 1;
nodes = (
"553 1091 LINE",
"581 1397 LINE",
"451 1397 LINE",
"479 1091 LINE"
);
},
{
closed = 1;
nodes = (
"479 979 LINE",
"451 673 LINE",
"581 673 LINE",
"553 979 LINE"
);
},
{
closed = 1;
nodes = (
"585 1031 LINE",
"862 1160 LINE",
"797 1272 LINE",
"544 1095 LINE"
);
},
{
closed = 1;
nodes = (
"447 1039 LINE",
"170 910 LINE",
"235 798 LINE",
"488 975 LINE"
);
},
{
closed = 1;
nodes = (
"235 1272 LINE",
"170 1160 LINE",
"447 1031 LINE",
"488 1095 LINE"
);
},
{
closed = 1;
nodes = (
"797 798 LINE",
"862 910 LINE",
"585 1039 LINE",
"544 975 LINE"
);
},
{
closed = 1;
nodes = (
"446 970 LINE",
"587 970 LINE",
"587 1102 LINE",
"446 1102 LINE"
);
}
);
width = 1032;
}
);
unicode = 002A;
},
{
glyphname = backslash;
lastChange = "2016-11-10 18:25:34 +0000";
layers = (
{
background = {
paths = (
{
closed = 1;
nodes = (
"606 -237 LINE",
"123 1441 LINE",
"0 1441 LINE",
"483 -237 LINE"
);
}
);
};
layerId = "785B6CE2-304A-4677-8076-DAC1C502AB09";
paths = (
{
closed = 1;
nodes = (
"606 -237 LINE",
"123 1441 LINE",
"0 1441 LINE",
"483 -237 LINE"
);
}
);
width = 606;
}
);
unicode = 005C;
},
{
glyphname = comma;
lastChange = "2016-11-10 18:50:59 +0000";
layers = (
{
background = {
paths = (
{
closed = 1;
nodes = (
"175 236 LINE",
"239 31 OFFCURVE",
"195 -134 OFFCURVE",
"28 -326 CURVE",
"28 -251 LINE",
"215 -319 LINE",
"144 -334 LINE",
"299 -133 OFFCURVE",
"370 35 OFFCURVE",
"313 240 CURVE",
"175 242 LINE"
);
}
);
};
layerId = "785B6CE2-304A-4677-8076-DAC1C502AB09";
paths = (
{
closed = 1;
nodes = (
"175 236 LINE",
"239 31 OFFCURVE",
"195 -134 OFFCURVE",
"28 -326 CURVE",
"28 -251 LINE",
"215 -319 LINE",
"144 -334 LINE",
"299 -133 OFFCURVE",
"370 35 OFFCURVE",
"313 240 CURVE",
"175 242 LINE"
);
}
);
width = 497;
}
);
leftKerningGroup = comma;
unicode = 002C;
},
{
glyphname = exclam;
lastChange = "2016-11-10 18:25:34 +0000";
layers = (
{
background = {
paths = (
{
closed = 1;
nodes = (
"453 400 LINE",
"467 1349 LINE",
"331 1349 LINE",
"345 400 LINE"
);
},
{
closed = 1;
nodes = (
"460 -24 OFFCURVE",
"507 16 OFFCURVE",
"507 85 CURVE SMOOTH",
"507 151 OFFCURVE",
"465 190 OFFCURVE",
"401 190 CURVE SMOOTH",
"334 190 OFFCURVE",
"290 150 OFFCURVE",
"290 80 CURVE SMOOTH",
"290 15 OFFCURVE",
"331 -24 OFFCURVE",
"396 -24 CURVE SMOOTH"
);
}
);
};
layerId = "785B6CE2-304A-4677-8076-DAC1C502AB09";
paths = (
{
closed = 1;
nodes = (
"453 400 LINE",
"467 1349 LINE",
"331 1349 LINE",
"345 400 LINE"
);
},
{
closed = 1;
nodes = (
"460 -24 OFFCURVE",
"507 16 OFFCURVE",
"507 85 CURVE SMOOTH",
"507 151 OFFCURVE",
"465 190 OFFCURVE",
"401 190 CURVE SMOOTH",
"334 190 OFFCURVE",
"290 150 OFFCURVE",
"290 80 CURVE SMOOTH",
"290 15 OFFCURVE",
"331 -24 OFFCURVE",
"396 -24 CURVE SMOOTH"
);
}
);
width = 717;
}
);
unicode = 0021;
},
{
glyphname = numbersign;
lastChange = "2016-11-10 18:25:34 +0000";
layers = (
{
background = {
paths = (
{
closed = 1;
nodes = (
"714 0 LINE",
"874 1264 LINE",
"754 1264 LINE",
"594 0 LINE"
);
},
{
closed = 1;
nodes = (
"931 344 LINE",
"931 447 LINE",
"50 447 LINE",
"50 344 LINE"
);
},
{
closed = 1;
nodes = (
"283 0 LINE",
"443 1264 LINE",
"323 1264 LINE",
"163 0 LINE"
);
},
{
closed = 1;
nodes = (
"1000 831 LINE",
"1000 934 LINE",
"119 934 LINE",
"119 831 LINE"
);
}
);
};
layerId = "785B6CE2-304A-4677-8076-DAC1C502AB09";
paths = (
{
closed = 1;
nodes = (
"714 0 LINE",
"874 1264 LINE",
"754 1264 LINE",
"594 0 LINE"
);
},
{
closed = 1;
nodes = (
"931 344 LINE",
"931 447 LINE",
"50 447 LINE",
"50 344 LINE"
);
},
{
closed = 1;
nodes = (
"283 0 LINE",
"443 1264 LINE",
"323 1264 LINE",
"163 0 LINE"
);
},
{
closed = 1;
nodes = (
"1000 831 LINE",
"1000 934 LINE",
"119 934 LINE",
"119 831 LINE"
);
}
);
width = 1053;
}
);
unicode = 0023;
},
{
glyphname = period;
lastChange = "2016-11-10 18:25:34 +0000";
layers = (
{
background = {
paths = (
{
closed = 1;
nodes = (
"345 -24 OFFCURVE",
"392 16 OFFCURVE",
"392 85 CURVE SMOOTH",
"392 151 OFFCURVE",
"350 190 OFFCURVE",
"286 190 CURVE SMOOTH",
"219 190 OFFCURVE",
"175 150 OFFCURVE",
"175 80 CURVE SMOOTH",
"175 15 OFFCURVE",
"216 -24 OFFCURVE",
"281 -24 CURVE SMOOTH"
);
}
);
};
layerId = "785B6CE2-304A-4677-8076-DAC1C502AB09";
paths = (
{
closed = 1;
nodes = (
"345 -24 OFFCURVE",
"392 16 OFFCURVE",
"392 85 CURVE SMOOTH",
"392 151 OFFCURVE",
"350 190 OFFCURVE",
"286 190 CURVE SMOOTH",
"219 190 OFFCURVE",
"175 150 OFFCURVE",
"175 80 CURVE SMOOTH",
"175 15 OFFCURVE",
"216 -24 OFFCURVE",
"281 -24 CURVE SMOOTH"
);
}
);
width = 567;
}
);
unicode = 002E;
},
{
glyphname = question;
lastChange = "2016-11-10 18:25:34 +0000";
layers = (
{
background = {
paths = (
{
closed = 1;
nodes = (
"570 652 OFFCURVE",
"835 743 OFFCURVE",
"835 1008 CURVE SMOOTH",
"835 1229 OFFCURVE",
"680 1349 OFFCURVE",
"436 1349 CURVE SMOOTH",
"301 1349 OFFCURVE",
"178 1312 OFFCURVE",
"120 1253 CURVE",
"140 1325 LINE",
"140 1103 LINE",
"86 1161 LINE",
"197 1161 LINE",
"113 1132 LINE",
"214 1220 OFFCURVE",
"320 1243 OFFCURVE",
"416 1243 CURVE SMOOTH",
"612 1243 OFFCURVE",
"710 1148 OFFCURVE",
"710 995 CURVE SMOOTH",
"710 796 OFFCURVE",
"501 750 OFFCURVE",
"340 750 CURVE",
"361 645 LINE"
);
},
{
closed = 1;
nodes = (
"470 -24 OFFCURVE",
"516 16 OFFCURVE",
"516 85 CURVE SMOOTH",
"516 151 OFFCURVE",
"474 190 OFFCURVE",
"409 190 CURVE SMOOTH",
"343 190 OFFCURVE",
"299 149 OFFCURVE",
"299 81 CURVE SMOOTH",
"299 15 OFFCURVE",
"340 -24 OFFCURVE",
"405 -24 CURVE SMOOTH"
);
},
{
closed = 1;
nodes = (
"462 400 LINE",
"476 750 LINE",
"340 750 LINE",
"354 400 LINE"
);
}
);
};
layerId = "785B6CE2-304A-4677-8076-DAC1C502AB09";
paths = (
{
closed = 1;
nodes = (
"570 652 OFFCURVE",
"835 743 OFFCURVE",
"835 1008 CURVE SMOOTH",
"835 1229 OFFCURVE",
"680 1349 OFFCURVE",
"436 1349 CURVE SMOOTH",
"301 1349 OFFCURVE",
"178 1312 OFFCURVE",
"120 1253 CURVE",
"140 1325 LINE",
"140 1103 LINE",
"86 1161 LINE",
"197 1161 LINE",
"113 1132 LINE",
"214 1220 OFFCURVE",
"320 1243 OFFCURVE",
"416 1243 CURVE SMOOTH",
"612 1243 OFFCURVE",
"710 1148 OFFCURVE",
"710 995 CURVE SMOOTH",
"710 796 OFFCURVE",
"501 750 OFFCURVE",
"340 750 CURVE",
"361 645 LINE"
);
},
{
closed = 1;
nodes = (
"470 -24 OFFCURVE",
"516 16 OFFCURVE",
"516 85 CURVE SMOOTH",
"516 151 OFFCURVE",
"474 190 OFFCURVE",
"409 190 CURVE SMOOTH",
"343 190 OFFCURVE",
"299 149 OFFCURVE",
"299 81 CURVE SMOOTH",
"299 15 OFFCURVE",
"340 -24 OFFCURVE",
"405 -24 CURVE SMOOTH"
);
},
{
closed = 1;
nodes = (
"462 400 LINE",
"476 750 LINE",
"340 750 LINE",
"354 400 LINE"
);
}
);
width = 935;
}
);
unicode = 003F;
},
{
glyphname = quotesingle;
lastChange = "2016-11-10 18:25:34 +0000";
layers = (
{
background = {
paths = (
{
closed = 1;
nodes = (
"175 831 LINE",
"140 872 LINE",
"303 872 LINE",
"263 823 LINE",
"291 1399 LINE",
"147 1399 LINE"
);
}
);
};
layerId = "785B6CE2-304A-4677-8076-DAC1C502AB09";
paths = (
{
closed = 1;
nodes = (
"175 831 LINE",
"140 872 LINE",
"303 872 LINE",
"263 823 LINE",
"291 1399 LINE",
"147 1399 LINE"
);
}
);
width = 438;
}
);
unicode = 0027;
},
{
glyphname = slash;
lastChange = "2016-11-10 18:25:34 +0000";
layers = (
{
background = {
paths = (
{
closed = 1;
nodes = (
"120 -237 LINE",
"603 1441 LINE",
"483 1441 LINE",
"0 -237 LINE"
);
}
);
};
layerId = "785B6CE2-304A-4677-8076-DAC1C502AB09";
paths = (
{
closed = 1;
nodes = (
"120 -237 LINE",
"603 1441 LINE",
"483 1441 LINE",
"0 -237 LINE"
);
}
);
width = 603;
}
);
unicode = 002F;
},
{
glyphname = underscore;
lastChange = "2016-11-10 18:25:34 +0000";
layers = (
{
background = {
paths = (
{
closed = 1;
nodes = (
"1025 -367 LINE",
"1025 -263 LINE",
"-5 -263 LINE",
"-5 -367 LINE"
);
}
);
};
layerId = "785B6CE2-304A-4677-8076-DAC1C502AB09";
paths = (
{
closed = 1;
nodes = (
"1025 -367 LINE",
"1025 -263 LINE",
"-5 -263 LINE",
"-5 -367 LINE"
);
}
);
width = 1020;
}
);
unicode = 005F;
},
{
glyphname = braceleft;
lastChange = "2016-11-10 18:25:34 +0000";
layers = (
{
background = {
paths = (
{
closed = 1;
nodes = (
"343 635 OFFCURVE",
"376 742 OFFCURVE",
"376 869 CURVE SMOOTH",
"376 1154 LINE SMOOTH",
"376 1255 OFFCURVE",
"391 1302 OFFCURVE",
"459 1302 CURVE SMOOTH",
"481 1302 OFFCURVE",
"508 1300 OFFCURVE",
"543 1290 CURVE",
"543 1383 LINE",
"504 1391 OFFCURVE",
"470 1392 OFFCURVE",
"440 1392 CURVE SMOOTH",
"312 1392 OFFCURVE",
"269 1316 OFFCURVE",
"269 1164 CURVE SMOOTH",
"269 908 LINE SMOOTH",
"269 755 OFFCURVE",
"231 671 OFFCURVE",
"100 627 CURVE",
"100 545 LINE",
"231 501 OFFCURVE",
"269 417 OFFCURVE",
"269 264 CURVE SMOOTH",
"269 -32 LINE SMOOTH",
"269 -184 OFFCURVE",
"312 -260 OFFCURVE",
"440 -260 CURVE SMOOTH",
"470 -260 OFFCURVE",
"504 -259 OFFCURVE",
"543 -251 CURVE",
"543 -158 LINE",
"508 -168 OFFCURVE",
"481 -170 OFFCURVE",
"459 -170 CURVE SMOOTH",
"391 -170 OFFCURVE",
"376 -123 OFFCURVE",
"376 -22 CURVE SMOOTH",
"376 303 LINE SMOOTH",
"376 430 OFFCURVE",
"343 537 OFFCURVE",
"200 586 CURVE"
);
}
);
};
layerId = "785B6CE2-304A-4677-8076-DAC1C502AB09";
paths = (
{
closed = 1;
nodes = (
"343 635 OFFCURVE",
"376 742 OFFCURVE",
"376 869 CURVE SMOOTH",
"376 1154 LINE SMOOTH",
"376 1255 OFFCURVE",
"391 1302 OFFCURVE",
"459 1302 CURVE SMOOTH",
"481 1302 OFFCURVE",
"508 1300 OFFCURVE",
"543 1290 CURVE",
"543 1383 LINE",
"504 1391 OFFCURVE",
"470 1392 OFFCURVE",
"440 1392 CURVE SMOOTH",
"312 1392 OFFCURVE",
"269 1316 OFFCURVE",
"269 1164 CURVE SMOOTH",
"269 908 LINE SMOOTH",
"269 755 OFFCURVE",
"231 671 OFFCURVE",
"100 627 CURVE",
"100 545 LINE",
"231 501 OFFCURVE",
"269 417 OFFCURVE",
"269 264 CURVE SMOOTH",
"269 -32 LINE SMOOTH",
"269 -184 OFFCURVE",
"312 -260 OFFCURVE",
"440 -260 CURVE SMOOTH",
"470 -260 OFFCURVE",
"504 -259 OFFCURVE",
"543 -251 CURVE",
"543 -158 LINE",
"508 -168 OFFCURVE",
"481 -170 OFFCURVE",
"459 -170 CURVE SMOOTH",
"391 -170 OFFCURVE",
"376 -123 OFFCURVE",
"376 -22 CURVE SMOOTH",
"376 303 LINE SMOOTH",
"376 430 OFFCURVE",
"343 537 OFFCURVE",
"200 586 CURVE"
);
}
);
width = 603;
}
);
unicode = 007B;
},
{
glyphname = braceright;
lastChange = "2016-11-10 18:25:34 +0000";
layers = (
{
background = {
paths = (
{
closed = 1;
nodes = (
"260 537 OFFCURVE",
"227 410 OFFCURVE",
"227 283 CURVE SMOOTH",
"227 -22 LINE SMOOTH",
"227 -123 OFFCURVE",
"212 -170 OFFCURVE",
"144 -170 CURVE SMOOTH",
"122 -170 OFFCURVE",
"95 -168 OFFCURVE",
"60 -158 CURVE",
"60 -251 LINE",
"99 -259 OFFCURVE",
"133 -260 OFFCURVE",
"163 -260 CURVE SMOOTH",
"291 -260 OFFCURVE",
"334 -184 OFFCURVE",
"334 -32 CURVE SMOOTH",
"334 244 LINE SMOOTH",
"334 397 OFFCURVE",
"372 501 OFFCURVE",
"503 545 CURVE",
"503 627 LINE",
"372 671 OFFCURVE",
"334 735 OFFCURVE",
"334 908 CURVE SMOOTH",
"334 1164 LINE SMOOTH",
"334 1316 OFFCURVE",
"291 1392 OFFCURVE",
"163 1392 CURVE SMOOTH",
"133 1392 OFFCURVE",
"99 1391 OFFCURVE",
"60 1383 CURVE",
"60 1290 LINE",
"95 1300 OFFCURVE",
"122 1302 OFFCURVE",
"144 1302 CURVE SMOOTH",
"212 1302 OFFCURVE",
"227 1255 OFFCURVE",
"227 1154 CURVE SMOOTH",
"227 869 LINE SMOOTH",
"227 722 OFFCURVE",
"260 635 OFFCURVE",
"403 586 CURVE"
);
}
);
};
layerId = "785B6CE2-304A-4677-8076-DAC1C502AB09";
paths = (
{
closed = 1;
nodes = (
"260 537 OFFCURVE",
"227 410 OFFCURVE",
"227 283 CURVE SMOOTH",
"227 -22 LINE SMOOTH",
"227 -123 OFFCURVE",
"212 -170 OFFCURVE",
"144 -170 CURVE SMOOTH",
"122 -170 OFFCURVE",
"95 -168 OFFCURVE",
"60 -158 CURVE",
"60 -251 LINE",
"99 -259 OFFCURVE",
"133 -260 OFFCURVE",
"163 -260 CURVE SMOOTH",
"291 -260 OFFCURVE",
"334 -184 OFFCURVE",
"334 -32 CURVE SMOOTH",
"334 244 LINE SMOOTH",
"334 397 OFFCURVE",
"372 501 OFFCURVE",
"503 545 CURVE",
"503 627 LINE",
"372 671 OFFCURVE",
"334 735 OFFCURVE",
"334 908 CURVE SMOOTH",
"334 1164 LINE SMOOTH",
"334 1316 OFFCURVE",
"291 1392 OFFCURVE",
"163 1392 CURVE SMOOTH",
"133 1392 OFFCURVE",
"99 1391 OFFCURVE",
"60 1383 CURVE",
"60 1290 LINE",
"95 1300 OFFCURVE",
"122 1302 OFFCURVE",
"144 1302 CURVE SMOOTH",
"212 1302 OFFCURVE",
"227 1255 OFFCURVE",
"227 1154 CURVE SMOOTH",
"227 869 LINE SMOOTH",
"227 722 OFFCURVE",
"260 635 OFFCURVE",
"403 586 CURVE"
);
}
);
width = 603;
}
);
unicode = 007D;
},
{
glyphname = bracketleft;
lastChange = "2016-11-10 18:25:34 +0000";
layers = (
{
background = {
paths = (
{
closed = 1;
nodes = (
"512 -244 LINE",
"512 -153 LINE",
"320 -153 LINE",
"320 1286 LINE",
"512 1286 LINE",
"512 1377 LINE",
"206 1377 LINE",
"206 -244 LINE"
);
}
);
};
layerId = "785B6CE2-304A-4677-8076-DAC1C502AB09";
paths = (
{
closed = 1;
nodes = (
"512 -244 LINE",
"512 -153 LINE",
"320 -153 LINE",
"320 1286 LINE",
"512 1286 LINE",
"512 1377 LINE",
"206 1377 LINE",
"206 -244 LINE"
);
}
);
width = 600;
}
);
unicode = 005B;
},
{
glyphname = parenleft;
lastChange = "2016-11-10 18:53:06 +0000";
layers = (
{
background = {
paths = (
{
closed = 1;
nodes = (
"542 -254 LINE",
"493 -298 LINE",
"493 -182 LINE",
"511 -272 LINE",
"317 23 OFFCURVE",
"275 305 OFFCURVE",
"275 571 CURVE SMOOTH",
"275 842 OFFCURVE",
"320 1100 OFFCURVE",
"506 1408 CURVE",
"489 1316 LINE",
"489 1431 LINE",
"538 1387 LINE",
"319 1387 LINE",
"391 1409 LINE",
"243 1140 OFFCURVE",
"146 943 OFFCURVE",
"146 564 CURVE SMOOTH",
"146 200 OFFCURVE",
"235 -15 OFFCURVE",
"396 -275 CURVE",
"323 -254 LINE"
);
}
);
};
layerId = "785B6CE2-304A-4677-8076-DAC1C502AB09";
paths = (
{
closed = 1;
nodes = (
"542 -254 LINE",
"493 -298 LINE",
"493 -182 LINE",
"511 -272 LINE",
"317 23 OFFCURVE",
"275 305 OFFCURVE",
"275 571 CURVE SMOOTH",
"275 842 OFFCURVE",
"320 1100 OFFCURVE",
"506 1408 CURVE",
"489 1316 LINE",
"489 1431 LINE",
"538 1387 LINE",
"319 1387 LINE",
"391 1409 LINE",
"243 1140 OFFCURVE",
"146 943 OFFCURVE",
"146 564 CURVE SMOOTH",
"146 200 OFFCURVE",
"235 -15 OFFCURVE",
"396 -275 CURVE",
"323 -254 LINE"
);
}
);
width = 624;
}
);
unicode = 0028;
},
{
glyphname = emdash;
lastChange = "2016-11-10 18:25:34 +0000";
layers = (
{
background = {
paths = (
{
closed = 1;
nodes = (
"1760 521 LINE",
"1760 634 LINE",
"220 634 LINE",
"220 521 LINE"
);
}
);
};
layerId = "785B6CE2-304A-4677-8076-DAC1C502AB09";
paths = (
{
closed = 1;
nodes = (
"1760 521 LINE",
"1760 634 LINE",
"220 634 LINE",
"220 521 LINE"
);
}
);
width = 1980;
}
);
unicode = 2014;
},
{
glyphname = endash;
lastChange = "2016-11-10 18:25:34 +0000";
layers = (
{
background = {
paths = (
{
closed = 1;
nodes = (
"1030 522 LINE",
"1030 633 LINE",
"-10 633 LINE",
"-10 522 LINE"
);
}
);
};
layerId = "785B6CE2-304A-4677-8076-DAC1C502AB09";
paths = (
{
closed = 1;
nodes = (
"1030 522 LINE",
"1030 633 LINE",
"-10 633 LINE",
"-10 522 LINE"
);
}
);
width = 1025;
}
);
unicode = 2013;
},
{
glyphname = hyphen;
lastChange = "2016-11-10 18:25:34 +0000";
layers = (
{
background = {
paths = (
{
closed = 1;
nodes = (
"590 484 LINE",
"590 584 LINE",
"80 584 LINE",
"80 484 LINE"
);
}
);
};
layerId = "785B6CE2-304A-4677-8076-DAC1C502AB09";
paths = (
{
closed = 1;
nodes = (
"590 484 LINE",
"590 584 LINE",
"80 584 LINE",
"80 484 LINE"
);
}
);
width = 670;
}
);
unicode = 002D;
},
{
glyphname = guillemetleft;
lastChange = "2016-11-10 18:25:34 +0000";
layers = (
{
background = {
paths = (
{
closed = 1;
nodes = (
"513 178 LINE",
"532 85 LINE",
"248 572 LINE",
"248 494 LINE",
"532 985 LINE",
"513 892 LINE",
"513 1018 LINE",
"548 964 LINE",
"398 964 LINE",
"133 532 LINE",
"140 622 LINE",
"140 454 LINE",
"131 542 LINE",
"398 106 LINE",
"548 106 LINE",
"513 52 LINE"
);
},
{
closed = 1;
nodes = (
"861 198 LINE",
"880 105 LINE",
"592 576 LINE",
"592 494 LINE",
"880 965 LINE",
"861 872 LINE",
"861 998 LINE",
"896 944 LINE",
"742 944 LINE",
"477 532 LINE",
"484 622 LINE",
"484 454 LINE",
"475 542 LINE",
"742 126 LINE",
"896 126 LINE",
"861 72 LINE"
);
}
);
};
layerId = "785B6CE2-304A-4677-8076-DAC1C502AB09";
paths = (
{
closed = 1;
nodes = (
"513 178 LINE",
"532 85 LINE",
"248 572 LINE",
"248 494 LINE",
"532 985 LINE",
"513 892 LINE",
"513 1018 LINE",
"548 964 LINE",
"398 964 LINE",
"133 532 LINE",
"140 622 LINE",
"140 454 LINE",
"131 542 LINE",
"398 106 LINE",
"548 106 LINE",
"513 52 LINE"
);
},
{
closed = 1;
nodes = (
"861 198 LINE",
"880 105 LINE",
"592 576 LINE",
"592 494 LINE",
"880 965 LINE",
"861 872 LINE",
"861 998 LINE",
"896 944 LINE",
"742 944 LINE",
"477 532 LINE",
"484 622 LINE",
"484 454 LINE",
"475 542 LINE",
"742 126 LINE",
"896 126 LINE",
"861 72 LINE"
);
}
);
width = 1052;
}
);
unicode = 00AB;
},
{
glyphname = guillemetright;
lastChange = "2016-11-10 18:25:34 +0000";
layers = (
{
background = {
paths = (
{
closed = 1;
nodes = (
"529 892 LINE",
"510 985 LINE",
"794 498 LINE",
"794 576 LINE",
"510 85 LINE",
"529 178 LINE",
"529 52 LINE",
"494 106 LINE",
"644 106 LINE",
"909 538 LINE",
"902 448 LINE",
"902 616 LINE",
"911 528 LINE",
"644 964 LINE",
"494 964 LINE",
"529 1018 LINE"
);
},
{
closed = 1;
nodes = (
"181 872 LINE",
"162 965 LINE",
"450 494 LINE",
"450 576 LINE",
"162 105 LINE",
"181 198 LINE",
"181 72 LINE",
"146 126 LINE",
"300 126 LINE",
"565 538 LINE",
"558 448 LINE",
"558 616 LINE",
"567 528 LINE",
"300 944 LINE",
"146 944 LINE",
"181 998 LINE"
);
}
);
};
layerId = "785B6CE2-304A-4677-8076-DAC1C502AB09";
paths = (
{
closed = 1;
nodes = (
"529 892 LINE",
"510 985 LINE",
"794 498 LINE",
"794 576 LINE",
"510 85 LINE",
"529 178 LINE",
"529 52 LINE",
"494 106 LINE",
"644 106 LINE",
"909 538 LINE",
"902 448 LINE",
"902 616 LINE",
"911 528 LINE",
"644 964 LINE",
"494 964 LINE",
"529 1018 LINE"
);
},
{
closed = 1;
nodes = (
"181 872 LINE",
"162 965 LINE",
"450 494 LINE",
"450 576 LINE",
"162 105 LINE",
"181 198 LINE",
"181 72 LINE",
"146 126 LINE",
"300 126 LINE",
"565 538 LINE",
"558 448 LINE",
"558 616 LINE",
"567 528 LINE",
"300 944 LINE",
"146 944 LINE",
"181 998 LINE"
);
}
);
width = 1042;
}
);
unicode = 00BB;
},
{
glyphname = guilsinglleft;
lastChange = "2016-11-10 18:25:34 +0000";
layers = (
{
background = {
paths = (
{
closed = 1;
nodes = (
"513 178 LINE",
"532 85 LINE",
"248 572 LINE",
"248 494 LINE",
"532 985 LINE",
"513 892 LINE",
"513 1018 LINE",
"548 964 LINE",
"398 964 LINE",
"133 532 LINE",
"140 622 LINE",
"140 454 LINE",
"131 542 LINE",
"398 106 LINE",
"548 106 LINE",
"513 52 LINE"
);
}
);
};
layerId = "785B6CE2-304A-4677-8076-DAC1C502AB09";
paths = (
{
closed = 1;
nodes = (
"513 178 LINE",
"532 85 LINE",
"248 572 LINE",
"248 494 LINE",
"532 985 LINE",
"513 892 LINE",
"513 1018 LINE",
"548 964 LINE",
"398 964 LINE",
"133 532 LINE",
"140 622 LINE",
"140 454 LINE",
"131 542 LINE",
"398 106 LINE",
"548 106 LINE",
"513 52 LINE"
);
}
);
width = 723;
}
);
unicode = 2039;
},
{
glyphname = cent;
lastChange = "2016-11-10 18:25:34 +0000";
layers = (
{
background = {
paths = (
{
closed = 1;
nodes = (
"651 126 OFFCURVE",
"785 160 OFFCURVE",
"845 222 CURVE",
"825 150 LINE",
"825 372 LINE",
"879 314 LINE",
"768 314 LINE",
"852 343 LINE",
"757 259 OFFCURVE",
"646 232 OFFCURVE",
"557 232 CURVE SMOOTH",
"353 232 OFFCURVE",
"257 373 OFFCURVE",
"257 636 CURVE SMOOTH",
"257 930 OFFCURVE",
"377 1051 OFFCURVE",
"532 1051 CURVE SMOOTH",
"637 1051 OFFCURVE",
"765 996 OFFCURVE",
"824 940 CURVE",
"751 957 LINE",
"862 957 LINE",
"808 923 LINE",
"846 1121 LINE",
"856 1048 LINE",
"779 1127 OFFCURVE",
"648 1158 OFFCURVE",
"547 1158 CURVE SMOOTH",
"296 1158 OFFCURVE",
"130 966 OFFCURVE",
"130 623 CURVE SMOOTH",
"130 292 OFFCURVE",
"285 126 OFFCURVE",
"537 126 CURVE SMOOTH"
);
},
{
closed = 1;
nodes = (
"593 -80 LINE",
"593 177 LINE",
"478 177 LINE",
"478 -80 LINE"
);
},
{
closed = 1;
nodes = (
"593 1107 LINE",
"593 1364 LINE",
"478 1364 LINE",
"478 1107 LINE"
);
}
);
};
layerId = "785B6CE2-304A-4677-8076-DAC1C502AB09";
paths = (
{
closed = 1;
nodes = (
"651 126 OFFCURVE",
"785 160 OFFCURVE",
"845 222 CURVE",
"825 150 LINE",
"825 372 LINE",
"879 314 LINE",
"768 314 LINE",
"852 343 LINE",
"757 259 OFFCURVE",
"646 232 OFFCURVE",
"557 232 CURVE SMOOTH",
"353 232 OFFCURVE",
"257 373 OFFCURVE",
"257 636 CURVE SMOOTH",
"257 930 OFFCURVE",
"377 1051 OFFCURVE",
"532 1051 CURVE SMOOTH",
"637 1051 OFFCURVE",
"765 996 OFFCURVE",
"824 940 CURVE",
"751 957 LINE",
"862 957 LINE",
"808 923 LINE",
"846 1121 LINE",
"856 1048 LINE",
"779 1127 OFFCURVE",
"648 1158 OFFCURVE",
"547 1158 CURVE SMOOTH",
"296 1158 OFFCURVE",
"130 966 OFFCURVE",
"130 623 CURVE SMOOTH",
"130 292 OFFCURVE",
"285 126 OFFCURVE",
"537 126 CURVE SMOOTH"
);
},
{
closed = 1;
nodes = (
"593 -80 LINE",
"593 177 LINE",
"478 177 LINE",
"478 -80 LINE"
);
},
{
closed = 1;
nodes = (
"593 1107 LINE",
"593 1364 LINE",
"478 1364 LINE",
"478 1107 LINE"
);
}
);
width = 921;
}
);
unicode = 00A2;
},
{
glyphname = dollar;
lastChange = "2016-11-10 18:25:34 +0000";
layers = (
{
background = {
paths = (
{
closed = 1;
nodes = (
"772 -24 OFFCURVE",
"926 124 OFFCURVE",
"926 322 CURVE SMOOTH",
"926 544 OFFCURVE",
"734 621 OFFCURVE",
"553 705 CURVE SMOOTH",
"365 792 OFFCURVE",
"308 847 OFFCURVE",
"308 936 CURVE SMOOTH",
"308 1043 OFFCURVE",
"371 1152 OFFCURVE",
"540 1152 CURVE SMOOTH",
"649 1152 OFFCURVE",
"769 1108 OFFCURVE",
"897 1021 CURVE",
"828 1050 LINE",
"946 1050 LINE",
"843 1006 LINE",
"900 1188 LINE",
"943 1134 LINE",
"840 1217 OFFCURVE",
"679 1258 OFFCURVE",
"564 1258 CURVE SMOOTH",
"324 1258 OFFCURVE",
"184 1113 OFFCURVE",
"184 921 CURVE SMOOTH",
"184 720 OFFCURVE",
"365 651 OFFCURVE",
"537 578 CURVE SMOOTH",
"716 502 OFFCURVE",
"802 432 OFFCURVE",
"802 303 CURVE SMOOTH",
"802 158 OFFCURVE",
"692 81 OFFCURVE",
"551 81 CURVE SMOOTH",
"377 81 OFFCURVE",
"238 180 OFFCURVE",
"116 268 CURVE",
"223 231 LINE",
"82 231 LINE",
"151 305 LINE",
"151 30 LINE",
"125 121 LINE",
"202 43 OFFCURVE",
"365 -24 OFFCURVE",
"526 -24 CURVE SMOOTH"
);
},
{
closed = 1;
nodes = (
"623 -250 LINE",
"623 27 LINE",
"508 27 LINE",
"508 -250 LINE"
);
},
{
closed = 1;
nodes = (
"623 1207 LINE",
"623 1484 LINE",
"508 1484 LINE",
"508 1207 LINE"
);
}
);
};
layerId = "785B6CE2-304A-4677-8076-DAC1C502AB09";
paths = (
{
closed = 1;
nodes = (
"772 -24 OFFCURVE",
"926 124 OFFCURVE",
"926 322 CURVE SMOOTH",
"926 544 OFFCURVE",
"734 621 OFFCURVE",
"553 705 CURVE SMOOTH",
"365 792 OFFCURVE",
"308 847 OFFCURVE",
"308 936 CURVE SMOOTH",
"308 1043 OFFCURVE",
"371 1152 OFFCURVE",
"540 1152 CURVE SMOOTH",
"649 1152 OFFCURVE",
"769 1108 OFFCURVE",
"897 1021 CURVE",
"828 1050 LINE",
"946 1050 LINE",
"843 1006 LINE",
"900 1188 LINE",
"943 1134 LINE",
"840 1217 OFFCURVE",
"679 1258 OFFCURVE",
"564 1258 CURVE SMOOTH",
"324 1258 OFFCURVE",
"184 1113 OFFCURVE",
"184 921 CURVE SMOOTH",
"184 720 OFFCURVE",
"365 651 OFFCURVE",
"537 578 CURVE SMOOTH",
"716 502 OFFCURVE",
"802 432 OFFCURVE",
"802 303 CURVE SMOOTH",
"802 158 OFFCURVE",
"692 81 OFFCURVE",
"551 81 CURVE SMOOTH",
"377 81 OFFCURVE",
"238 180 OFFCURVE",
"116 268 CURVE",
"223 231 LINE",
"82 231 LINE",
"151 305 LINE",
"151 30 LINE",
"125 121 LINE",
"202 43 OFFCURVE",
"365 -24 OFFCURVE",
"526 -24 CURVE SMOOTH"
);
},
{
closed = 1;
nodes = (
"623 -250 LINE",
"623 27 LINE",
"508 27 LINE",
"508 -250 LINE"
);
},
{
closed = 1;
nodes = (
"623 1207 LINE",
"623 1484 LINE",
"508 1484 LINE",
"508 1207 LINE"
);
}
);
width = 1050;
}
);
unicode = 0024;
},
{
glyphname = euro;
lastChange = "2016-11-10 18:25:34 +0000";
layers = (
{
background = {
paths = (
{
closed = 1;
nodes = (
"860 -24 OFFCURVE",
"972 15 OFFCURVE",
"1046 84 CURVE",
"1021 -7 LINE",
"1021 253 LINE",
"1089 182 LINE",
"948 182 LINE",
"1055 216 LINE",
"949 128 OFFCURVE",
"847 90 OFFCURVE",
"723 90 CURVE SMOOTH",
"478 90 OFFCURVE",
"352 272 OFFCURVE",
"352 629 CURVE SMOOTH",
"352 992 OFFCURVE",
"482 1177 OFFCURVE",
"720 1177 CURVE SMOOTH",
"814 1177 OFFCURVE",
"908 1137 OFFCURVE",
"1004 1070 CURVE",
"948 1085 LINE",
"1042 1085 LINE",
"982 1057 LINE",
"1034 1226 LINE",
"1064 1165 LINE",
"986 1240 OFFCURVE",
"851 1288 OFFCURVE",
"733 1288 CURVE SMOOTH",
"431 1288 OFFCURVE",
"221 1044 OFFCURVE",
"221 608 CURVE SMOOTH",
"221 188 OFFCURVE",
"415 -24 OFFCURVE",
"716 -24 CURVE SMOOTH"
);
},
{
closed = 1;
nodes = (
"872 722 LINE",
"893 833 LINE",
"82 833 LINE",
"61 722 LINE"
);
},
{
closed = 1;
nodes = (
"793 406 LINE",
"814 517 LINE",
"82 517 LINE",
"61 406 LINE"
);
}
);
};
layerId = "785B6CE2-304A-4677-8076-DAC1C502AB09";
paths = (
{
closed = 1;
nodes = (
"860 -24 OFFCURVE",
"972 15 OFFCURVE",
"1046 84 CURVE",
"1021 -7 LINE",
"1021 253 LINE",
"1089 182 LINE",
"948 182 LINE",
"1055 216 LINE",
"949 128 OFFCURVE",
"847 90 OFFCURVE",
"723 90 CURVE SMOOTH",
"478 90 OFFCURVE",
"352 272 OFFCURVE",
"352 629 CURVE SMOOTH",
"352 992 OFFCURVE",
"482 1177 OFFCURVE",
"720 1177 CURVE SMOOTH",
"814 1177 OFFCURVE",
"908 1137 OFFCURVE",
"1004 1070 CURVE",
"948 1085 LINE",
"1042 1085 LINE",
"982 1057 LINE",
"1034 1226 LINE",
"1064 1165 LINE",
"986 1240 OFFCURVE",
"851 1288 OFFCURVE",
"733 1288 CURVE SMOOTH",
"431 1288 OFFCURVE",
"221 1044 OFFCURVE",
"221 608 CURVE SMOOTH",
"221 188 OFFCURVE",
"415 -24 OFFCURVE",
"716 -24 CURVE SMOOTH"
);
},
{
closed = 1;
nodes = (
"872 722 LINE",
"893 833 LINE",
"82 833 LINE",
"61 722 LINE"
);
},
{
closed = 1;
nodes = (
"793 406 LINE",
"814 517 LINE",
"82 517 LINE",
"61 406 LINE"
);
}
);
width = 1125;
}
);
unicode = 20AC;
},
{
glyphname = franc;
lastChange = "2016-11-10 18:25:34 +0000";
layers = (
{
background = {
paths = (
{
closed = 1;
nodes = (
"403 0 LINE",
"403 1264 LINE",
"280 1264 LINE",
"280 0 LINE"
);
},
{
closed = 1;
nodes = (
"939 1154 LINE",
"939 1264 LINE",
"367 1264 LINE",
"367 1154 LINE"
);
},
{
closed = 1;
nodes = (
"763 732 LINE",
"784 837 LINE",
"82 837 LINE",
"61 732 LINE"
);
},
{
closed = 1;
nodes = (
"763 420 LINE",
"784 525 LINE",
"82 525 LINE",
"61 420 LINE"
);
}
);
};
layerId = "785B6CE2-304A-4677-8076-DAC1C502AB09";
paths = (
{
closed = 1;
nodes = (
"403 0 LINE",
"403 1264 LINE",
"280 1264 LINE",
"280 0 LINE"
);
},
{
closed = 1;
nodes = (
"939 1154 LINE",
"939 1264 LINE",
"367 1264 LINE",
"367 1154 LINE"
);
},
{
closed = 1;
nodes = (
"763 732 LINE",
"784 837 LINE",
"82 837 LINE",
"61 732 LINE"
);
},
{
closed = 1;
nodes = (
"763 420 LINE",
"784 525 LINE",
"82 525 LINE",
"61 420 LINE"
);
}
);
width = 959;
}
);
unicode = 20A3;
},
{
glyphname = plus;
lastChange = "2016-11-10 18:25:34 +0000";
layers = (
{
background = {
paths = (
{
closed = 1;
nodes = (
"583 126 LINE",
"583 1058 LINE",
"468 1058 LINE",
"468 126 LINE"
);
},
{
closed = 1;
nodes = (
"960 536 LINE",
"960 649 LINE",
"90 649 LINE",
"90 536 LINE"
);
}
);
};
layerId = "785B6CE2-304A-4677-8076-DAC1C502AB09";
paths = (
{
closed = 1;
nodes = (
"583 126 LINE",
"583 1058 LINE",
"468 1058 LINE",
"468 126 LINE"
);
},
{
closed = 1;
nodes = (
"960 536 LINE",
"960 649 LINE",
"90 649 LINE",
"90 536 LINE"
);
}
);
width = 1050;
}
);
unicode = 002B;
},
{
glyphname = minus;
lastChange = "2016-11-10 18:25:34 +0000";
layers = (
{
background = {
paths = (
{
closed = 1;
nodes = (
"940 536 LINE",
"940 649 LINE",
"90 649 LINE",
"90 536 LINE"
);
}
);
};
layerId = "785B6CE2-304A-4677-8076-DAC1C502AB09";
paths = (
{
closed = 1;
nodes = (
"940 536 LINE",
"940 649 LINE",
"90 649 LINE",
"90 536 LINE"
);
}
);
width = 1035;
}
);
unicode = 2212;
},
{
glyphname = multiply;
lastChange = "2016-11-10 18:25:34 +0000";
layers = (
{
background = {
paths = (
{
closed = 1;
nodes = (
"565 535 LINE",
"484 618 LINE",
"100 234 LINE",
"182 152 LINE"
);
},
{
closed = 1;
nodes = (
"942 234 LINE",
"560 616 LINE",
"478 534 LINE",
"860 152 LINE"
);
},
{
closed = 1;
nodes = (
"564 616 LINE",
"182 998 LINE",
"100 916 LINE",
"482 534 LINE"
);
},
{
closed = 1;
nodes = (
"950 916 LINE",
"868 998 LINE",
"488 618 LINE",
"569 535 LINE"
);
}
);
};
layerId = "785B6CE2-304A-4677-8076-DAC1C502AB09";
paths = (
{
closed = 1;
nodes = (
"565 535 LINE",
"484 618 LINE",
"100 234 LINE",
"182 152 LINE"
);
},
{
closed = 1;
nodes = (
"942 234 LINE",
"560 616 LINE",
"478 534 LINE",
"860 152 LINE"
);
},
{
closed = 1;
nodes = (
"564 616 LINE",
"182 998 LINE",
"100 916 LINE",
"482 534 LINE"
);
},
{
closed = 1;
nodes = (
"950 916 LINE",
"868 998 LINE",
"488 618 LINE",
"569 535 LINE"
);
}
);
width = 1050;
}
);
unicode = 00D7;
},
{
glyphname = divide;
lastChange = "2016-11-10 18:25:34 +0000";
layers = (
{
background = {
paths = (
{
closed = 1;
nodes = (
"967 538 LINE",
"967 649 LINE",
"50 649 LINE",
"50 538 LINE"
);
},
{
closed = 1;
nodes = (
"570 118 OFFCURVE",
"617 158 OFFCURVE",
"617 227 CURVE SMOOTH",
"617 293 OFFCURVE",
"575 332 OFFCURVE",
"511 332 CURVE SMOOTH",
"444 332 OFFCURVE",
"400 292 OFFCURVE",
"400 222 CURVE SMOOTH",
"400 157 OFFCURVE",
"441 118 OFFCURVE",
"506 118 CURVE SMOOTH"
);
},
{
closed = 1;
nodes = (
"570 852 OFFCURVE",
"617 892 OFFCURVE",
"617 961 CURVE SMOOTH",
"617 1027 OFFCURVE",
"575 1066 OFFCURVE",
"511 1066 CURVE SMOOTH",
"444 1066 OFFCURVE",
"400 1026 OFFCURVE",
"400 956 CURVE SMOOTH",
"400 891 OFFCURVE",
"441 852 OFFCURVE",
"506 852 CURVE SMOOTH"
);
}
);
};
layerId = "785B6CE2-304A-4677-8076-DAC1C502AB09";
paths = (
{
closed = 1;
nodes = (
"967 538 LINE",
"967 649 LINE",
"50 649 LINE",
"50 538 LINE"
);
},
{
closed = 1;
nodes = (
"570 118 OFFCURVE",
"617 158 OFFCURVE",
"617 227 CURVE SMOOTH",
"617 293 OFFCURVE",
"575 332 OFFCURVE",
"511 332 CURVE SMOOTH",
"444 332 OFFCURVE",
"400 292 OFFCURVE",
"400 222 CURVE SMOOTH",
"400 157 OFFCURVE",
"441 118 OFFCURVE",
"506 118 CURVE SMOOTH"
);
},
{
closed = 1;
nodes = (
"570 852 OFFCURVE",
"617 892 OFFCURVE",
"617 961 CURVE SMOOTH",
"617 1027 OFFCURVE",
"575 1066 OFFCURVE",
"511 1066 CURVE SMOOTH",
"444 1066 OFFCURVE",
"400 1026 OFFCURVE",
"400 956 CURVE SMOOTH",
"400 891 OFFCURVE",
"441 852 OFFCURVE",
"506 852 CURVE SMOOTH"
);
}
);
width = 1036;
}
);
unicode = 00F7;
},
{
glyphname = equal;
lastChange = "2016-11-10 18:25:34 +0000";
layers = (
{
background = {
paths = (
{
closed = 1;
nodes = (
"930 728 LINE",
"930 841 LINE",
"100 841 LINE",
"100 728 LINE"
);
},
{
closed = 1;
nodes = (
"930 345 LINE",
"930 458 LINE",
"100 458 LINE",
"100 345 LINE"
);
}
);
};
layerId = "785B6CE2-304A-4677-8076-DAC1C502AB09";
paths = (
{
closed = 1;
nodes = (
"930 728 LINE",
"930 841 LINE",
"100 841 LINE",
"100 728 LINE"
);
},
{
closed = 1;
nodes = (
"930 345 LINE",
"930 458 LINE",
"100 458 LINE",
"100 345 LINE"
);
}
);
width = 1030;
}
);
unicode = 003D;
},
{
glyphname = greater;
lastChange = "2016-11-10 18:25:34 +0000";
layers = (
{
background = {
paths = (
{
closed = 1;
nodes = (
"163 90 LINE",
"61 65 LINE",
"987 545 LINE",
"939 466 LINE",
"939 681 LINE",
"987 602 LINE",
"62 1079 LINE",
"164 1055 LINE",
"46 1055 LINE",
"100 1108 LINE",
"100 878 LINE",
"52 956 LINE",
"864 553 LINE",
"864 601 LINE",
"52 190 LINE",
"100 268 LINE",
"100 36 LINE",
"46 90 LINE"
);
}
);
};
layerId = "785B6CE2-304A-4677-8076-DAC1C502AB09";
paths = (
{
closed = 1;
nodes = (
"163 90 LINE",
"61 65 LINE",
"987 545 LINE",
"939 466 LINE",
"939 681 LINE",
"987 602 LINE",
"62 1079 LINE",
"164 1055 LINE",
"46 1055 LINE",
"100 1108 LINE",
"100 878 LINE",
"52 956 LINE",
"864 553 LINE",
"864 601 LINE",
"52 190 LINE",
"100 268 LINE",
"100 36 LINE",
"46 90 LINE"
);
}
);
width = 1009;
}
);
unicode = 003E;
},
{
glyphname = asciitilde;
lastChange = "2016-11-10 18:25:34 +0000";
layers = (
{
background = {
paths = (
{
closed = 1;
nodes = (
"162 838 LINE",
"150 936 OFFCURVE",
"173 1063 OFFCURVE",
"298 1063 CURVE SMOOTH",
"475 1063 OFFCURVE",
"472 807 OFFCURVE",
"710 807 CURVE SMOOTH",
"907 807 OFFCURVE",
"973 972 OFFCURVE",
"960 1119 CURVE",
"858 1119 LINE",
"864 973 OFFCURVE",
"815 905 OFFCURVE",
"726 905 CURVE SMOOTH",
"530 905 OFFCURVE",
"562 1159 OFFCURVE",
"311 1159 CURVE SMOOTH",
"140 1159 OFFCURVE",
"37 1035 OFFCURVE",
"60 838 CURVE"
);
}
);
};
layerId = "785B6CE2-304A-4677-8076-DAC1C502AB09";
paths = (
{
closed = 1;
nodes = (
"162 838 LINE",
"150 936 OFFCURVE",
"173 1063 OFFCURVE",
"298 1063 CURVE SMOOTH",
"475 1063 OFFCURVE",
"472 807 OFFCURVE",
"710 807 CURVE SMOOTH",
"907 807 OFFCURVE",
"973 972 OFFCURVE",
"960 1119 CURVE",
"858 1119 LINE",
"864 973 OFFCURVE",
"815 905 OFFCURVE",
"726 905 CURVE SMOOTH",
"530 905 OFFCURVE",
"562 1159 OFFCURVE",
"311 1159 CURVE SMOOTH",
"140 1159 OFFCURVE",
"37 1035 OFFCURVE",
"60 838 CURVE"
);
}
);
width = 1020;
}
);
unicode = 007E;
},
{
glyphname = percent;
lastChange = "2016-11-10 18:25:34 +0000";
layers = (
{
background = {
paths = (
{
closed = 1;
nodes = (
"326 -30 LINE",
"1258 1337 LINE",
"1138 1337 LINE",
"206 -30 LINE"
);
},
{
closed = 1;
nodes = (
"520 629 OFFCURVE",
"619 772 OFFCURVE",
"619 975 CURVE SMOOTH",
"619 1166 OFFCURVE",
"525 1304 OFFCURVE",
"362 1304 CURVE SMOOTH",
"190 1304 OFFCURVE",
"90 1163 OFFCURVE",
"90 959 CURVE SMOOTH",
"90 768 OFFCURVE",
"185 629 OFFCURVE",
"347 629 CURVE SMOOTH"
);
},
{
closed = 1;
nodes = (
"238 722 OFFCURVE",
"201 823 OFFCURVE",
"201 966 CURVE SMOOTH",
"201 1112 OFFCURVE",
"240 1211 OFFCURVE",
"356 1211 CURVE SMOOTH",
"469 1211 OFFCURVE",
"508 1111 OFFCURVE",
"508 965 CURVE SMOOTH",
"508 823 OFFCURVE",
"473 722 OFFCURVE",
"357 722 CURVE SMOOTH"
);
},
{
closed = 1;
nodes = (
"1269 -15 OFFCURVE",
"1368 128 OFFCURVE",
"1368 331 CURVE SMOOTH",
"1368 522 OFFCURVE",
"1274 660 OFFCURVE",
"1111 660 CURVE SMOOTH",
"939 660 OFFCURVE",
"839 519 OFFCURVE",
"839 315 CURVE SMOOTH",
"839 124 OFFCURVE",
"934 -15 OFFCURVE",
"1096 -15 CURVE SMOOTH"
);
},
{
closed = 1;
nodes = (
"987 78 OFFCURVE",
"950 179 OFFCURVE",
"950 322 CURVE SMOOTH",
"950 468 OFFCURVE",
"989 567 OFFCURVE",
"1105 567 CURVE SMOOTH",
"1218 567 OFFCURVE",
"1257 467 OFFCURVE",
"1257 321 CURVE SMOOTH",
"1257 179 OFFCURVE",
"1222 78 OFFCURVE",
"1106 78 CURVE SMOOTH"
);
}
);
};
layerId = "785B6CE2-304A-4677-8076-DAC1C502AB09";
paths = (
{
closed = 1;
nodes = (
"326 -30 LINE",
"1258 1337 LINE",
"1138 1337 LINE",
"206 -30 LINE"
);
},
{
closed = 1;
nodes = (
"520 629 OFFCURVE",
"619 772 OFFCURVE",
"619 975 CURVE SMOOTH",
"619 1166 OFFCURVE",
"525 1304 OFFCURVE",
"362 1304 CURVE SMOOTH",
"190 1304 OFFCURVE",
"90 1163 OFFCURVE",
"90 959 CURVE SMOOTH",
"90 768 OFFCURVE",
"185 629 OFFCURVE",
"347 629 CURVE SMOOTH"
);
},
{
closed = 1;
nodes = (
"238 722 OFFCURVE",
"201 823 OFFCURVE",
"201 966 CURVE SMOOTH",
"201 1112 OFFCURVE",
"240 1211 OFFCURVE",
"356 1211 CURVE SMOOTH",
"469 1211 OFFCURVE",
"508 1111 OFFCURVE",
"508 965 CURVE SMOOTH",
"508 823 OFFCURVE",
"473 722 OFFCURVE",
"357 722 CURVE SMOOTH"
);
},
{
closed = 1;
nodes = (
"1269 -15 OFFCURVE",
"1368 128 OFFCURVE",
"1368 331 CURVE SMOOTH",
"1368 522 OFFCURVE",
"1274 660 OFFCURVE",
"1111 660 CURVE SMOOTH",
"939 660 OFFCURVE",
"839 519 OFFCURVE",
"839 315 CURVE SMOOTH",
"839 124 OFFCURVE",
"934 -15 OFFCURVE",
"1096 -15 CURVE SMOOTH"
);
},
{
closed = 1;
nodes = (
"987 78 OFFCURVE",
"950 179 OFFCURVE",
"950 322 CURVE SMOOTH",
"950 468 OFFCURVE",
"989 567 OFFCURVE",
"1105 567 CURVE SMOOTH",
"1218 567 OFFCURVE",
"1257 467 OFFCURVE",
"1257 321 CURVE SMOOTH",
"1257 179 OFFCURVE",
"1222 78 OFFCURVE",
"1106 78 CURVE SMOOTH"
);
}
);
width = 1458;
}
);
unicode = 0025;
},
{
glyphname = at;
lastChange = "2016-11-10 18:25:34 +0000";
layers = (
{
background = {
paths = (
{
closed = 1;
nodes = (
"1284 19 LINE",
"1361 38 LINE",
"1217 -83 OFFCURVE",
"1065 -131 OFFCURVE",
"875 -131 CURVE SMOOTH",
"503 -131 OFFCURVE",
"309 36 OFFCURVE",
"309 466 CURVE SMOOTH",
"309 903 OFFCURVE",
"511 1074 OFFCURVE",
"848 1074 CURVE SMOOTH",
"1042 1074 OFFCURVE",
"1128 1004 OFFCURVE",
"1128 847 CURVE SMOOTH",
"1128 351 LINE",
"1142 337 LINE",
"1142 170 LINE",
"1248 170 LINE",
"1248 851 LINE SMOOTH",
"1248 1079 OFFCURVE",
"1116 1178 OFFCURVE",
"863 1178 CURVE SMOOTH",
"437 1178 OFFCURVE",
"191 930 OFFCURVE",
"191 453 CURVE SMOOTH",
"191 11 OFFCURVE",
"410 -234 OFFCURVE",
"859 -234 CURVE SMOOTH",
"1142 -234 OFFCURVE",
"1297 -140 OFFCURVE",
"1352 -97 CURVE",
"1347 -155 LINE",
"1347 73 LINE",
"1401 19 LINE"
);
},
{
closed = 1;
nodes = (
"945 146 OFFCURVE",
"1043 201 OFFCURVE",
"1200 356 CURVE",
"1142 435 LINE",
"1032 317 OFFCURVE",
"949 251 OFFCURVE",
"831 251 CURVE SMOOTH",
"700 251 OFFCURVE",
"639 332 OFFCURVE",
"639 437 CURVE SMOOTH",
"639 581 OFFCURVE",
"729 649 OFFCURVE",
"882 649 CURVE SMOOTH",
"927 649 OFFCURVE",
"1031 643 OFFCURVE",
"1140 634 CURVE",
"1140 733 LINE",
"1000 742 OFFCURVE",
"929 746 OFFCURVE",
"888 746 CURVE SMOOTH",
"673 746 OFFCURVE",
"512 647 OFFCURVE",
"512 431 CURVE SMOOTH",
"512 280 OFFCURVE",
"609 146 OFFCURVE",
"814 146 CURVE SMOOTH"
);
}
);
};
layerId = "785B6CE2-304A-4677-8076-DAC1C502AB09";
paths = (
{
closed = 1;
nodes = (
"1284 19 LINE",
"1361 38 LINE",
"1217 -83 OFFCURVE",
"1065 -131 OFFCURVE",
"875 -131 CURVE SMOOTH",
"503 -131 OFFCURVE",
"309 36 OFFCURVE",
"309 466 CURVE SMOOTH",
"309 903 OFFCURVE",
"511 1074 OFFCURVE",
"848 1074 CURVE SMOOTH",
"1042 1074 OFFCURVE",
"1128 1004 OFFCURVE",
"1128 847 CURVE SMOOTH",
"1128 351 LINE",
"1142 337 LINE",
"1142 170 LINE",
"1248 170 LINE",
"1248 851 LINE SMOOTH",
"1248 1079 OFFCURVE",
"1116 1178 OFFCURVE",
"863 1178 CURVE SMOOTH",
"437 1178 OFFCURVE",
"191 930 OFFCURVE",
"191 453 CURVE SMOOTH",
"191 11 OFFCURVE",
"410 -234 OFFCURVE",
"859 -234 CURVE SMOOTH",
"1142 -234 OFFCURVE",
"1297 -140 OFFCURVE",
"1352 -97 CURVE",
"1347 -155 LINE",
"1347 73 LINE",
"1401 19 LINE"
);
},
{
closed = 1;
nodes = (
"945 146 OFFCURVE",
"1043 201 OFFCURVE",
"1200 356 CURVE",
"1142 435 LINE",
"1032 317 OFFCURVE",
"949 251 OFFCURVE",
"831 251 CURVE SMOOTH",
"700 251 OFFCURVE",
"639 332 OFFCURVE",
"639 437 CURVE SMOOTH",
"639 581 OFFCURVE",
"729 649 OFFCURVE",
"882 649 CURVE SMOOTH",
"927 649 OFFCURVE",
"1031 643 OFFCURVE",
"1140 634 CURVE",
"1140 733 LINE",
"1000 742 OFFCURVE",
"929 746 OFFCURVE",
"888 746 CURVE SMOOTH",
"673 746 OFFCURVE",
"512 647 OFFCURVE",
"512 431 CURVE SMOOTH",
"512 280 OFFCURVE",
"609 146 OFFCURVE",
"814 146 CURVE SMOOTH"
);
}
);
width = 1440;
}
);
unicode = 0040;
},
{
glyphname = ampersand;
lastChange = "2016-11-10 18:54:04 +0000";
layers = (
{
background = {
paths = (
{
closed = 1;
nodes = (
"922 259 LINE",
"867 186 OFFCURVE",
"738 83 OFFCURVE",
"582 83 CURVE SMOOTH",
"454 83 OFFCURVE",
"319 153 OFFCURVE",
"319 334 CURVE SMOOTH",
"319 483 OFFCURVE",
"407 628 OFFCURVE",
"667 628 CURVE",
"563 688 LINE",
"303 691 OFFCURVE",
"190 503 OFFCURVE",
"190 320 CURVE SMOOTH",
"190 103 OFFCURVE",
"350 -24 OFFCURVE",
"573 -24 CURVE SMOOTH",
"801 -24 OFFCURVE",
"916 109 OFFCURVE",
"997 178 CURVE"
);
},
{
closed = 1;
nodes = (
"680 726 LINE",
"461 745 OFFCURVE",
"379 824 OFFCURVE",
"379 964 CURVE SMOOTH",
"379 1075 OFFCURVE",
"431 1181 OFFCURVE",
"616 1181 CURVE SMOOTH",
"751 1181 OFFCURVE",
"867 1125 OFFCURVE",
"927 1070 CURVE",
"854 1087 LINE",
"965 1087 LINE",
"911 1053 LINE",
"949 1251 LINE",
"959 1178 LINE",
"882 1257 OFFCURVE",
"754 1288 OFFCURVE",
"635 1288 CURVE SMOOTH",
"356 1288 OFFCURVE",
"252 1117 OFFCURVE",
"252 952 CURVE SMOOTH",
"252 814 OFFCURVE",
"324 697 OFFCURVE",
"556 671 CURVE",
"663 634 LINE"
);
},
{
closed = 1;
nodes = (
"1233 628 LINE",
"1244 731 LINE",
"538 731 LINE",
"517 628 LINE"
);
},
{
closed = 1;
nodes = (
"1030 0 LINE",
"1030 680 LINE",
"913 680 LINE",
"913 0 LINE"
);
}
);
};
layerId = "785B6CE2-304A-4677-8076-DAC1C502AB09";
paths = (
{
closed = 1;
nodes = (
"922 259 LINE",
"867 186 OFFCURVE",
"738 83 OFFCURVE",
"582 83 CURVE SMOOTH",
"454 83 OFFCURVE",
"319 153 OFFCURVE",
"319 334 CURVE SMOOTH",
"319 483 OFFCURVE",
"407 628 OFFCURVE",
"667 628 CURVE",
"563 688 LINE",
"303 691 OFFCURVE",
"190 503 OFFCURVE",
"190 320 CURVE SMOOTH",
"190 103 OFFCURVE",
"350 -24 OFFCURVE",
"573 -24 CURVE SMOOTH",
"801 -24 OFFCURVE",
"916 109 OFFCURVE",
"997 178 CURVE"
);
},
{
closed = 1;
nodes = (
"680 726 LINE",
"461 745 OFFCURVE",
"379 824 OFFCURVE",
"379 964 CURVE SMOOTH",
"379 1075 OFFCURVE",
"431 1181 OFFCURVE",
"616 1181 CURVE SMOOTH",
"751 1181 OFFCURVE",
"867 1125 OFFCURVE",
"927 1070 CURVE",
"854 1087 LINE",
"965 1087 LINE",
"911 1053 LINE",
"949 1251 LINE",
"959 1178 LINE",
"882 1257 OFFCURVE",
"754 1288 OFFCURVE",
"635 1288 CURVE SMOOTH",
"356 1288 OFFCURVE",
"252 1117 OFFCURVE",
"252 952 CURVE SMOOTH",
"252 814 OFFCURVE",
"324 697 OFFCURVE",
"556 671 CURVE",
"663 634 LINE"
);
},
{
closed = 1;
nodes = (
"1233 628 LINE",
"1244 731 LINE",
"538 731 LINE",
"517 628 LINE"
);
},
{
closed = 1;
nodes = (
"1030 0 LINE",
"1030 680 LINE",
"913 680 LINE",
"913 0 LINE"
);
}
);
width = 1264;
}
);
unicode = 0026;
},
{
glyphname = section;
lastChange = "2016-11-10 18:54:12 +0000";
layers = (
{
background = {
paths = (
{
closed = 1;
nodes = (
"202 346 OFFCURVE",
"717 244 OFFCURVE",
"717 61 CURVE SMOOTH",
"717 3 OFFCURVE",
"661 -81 OFFCURVE",
"522 -81 CURVE SMOOTH",
"445 -81 OFFCURVE",
"351 -53 OFFCURVE",
"276 4 CURVE",
"298 35 LINE",
"298 -220 LINE",
"250 -125 LINE",
"320 -161 OFFCURVE",
"406 -185 OFFCURVE",
"499 -185 CURVE SMOOTH",
"745 -185 OFFCURVE",
"946 88 OFFCURVE",
"946 312 CURVE SMOOTH",
"946 694 OFFCURVE",
"431 804 OFFCURVE",
"431 986 CURVE SMOOTH",
"431 1050 OFFCURVE",
"493 1127 OFFCURVE",
"626 1127 CURVE SMOOTH",
"687 1127 OFFCURVE",
"766 1096 OFFCURVE",
"831 1052 CURVE",
"783 1018 LINE",
"836 1234 LINE",
"854 1170 LINE",
"797 1200 OFFCURVE",
"727 1231 OFFCURVE",
"649 1231 CURVE SMOOTH",
"400 1231 OFFCURVE",
"202 969 OFFCURVE",
"202 736 CURVE SMOOTH"
);
},
{
closed = 1;
nodes = (
"310 809 OFFCURVE",
"319 858 OFFCURVE",
"349 925 CURVE",
"337 915 LINE",
"370 673 OFFCURVE",
"838 589 OFFCURVE",
"838 294 CURVE SMOOTH",
"838 220 OFFCURVE",
"830 152 OFFCURVE",
"802 106 CURVE",
"815 106 LINE",
"780 365 OFFCURVE",
"310 434 OFFCURVE",
"310 760 CURVE SMOOTH"
);
}
);
};
layerId = "785B6CE2-304A-4677-8076-DAC1C502AB09";
paths = (
{
closed = 1;
nodes = (
"202 346 OFFCURVE",
"717 244 OFFCURVE",
"717 61 CURVE SMOOTH",
"717 3 OFFCURVE",
"661 -81 OFFCURVE",
"522 -81 CURVE SMOOTH",
"445 -81 OFFCURVE",
"351 -53 OFFCURVE",
"276 4 CURVE",
"298 35 LINE",
"298 -220 LINE",
"250 -125 LINE",
"320 -161 OFFCURVE",
"406 -185 OFFCURVE",
"499 -185 CURVE SMOOTH",
"745 -185 OFFCURVE",
"946 88 OFFCURVE",
"946 312 CURVE SMOOTH",
"946 694 OFFCURVE",
"431 804 OFFCURVE",
"431 986 CURVE SMOOTH",
"431 1050 OFFCURVE",
"493 1127 OFFCURVE",
"626 1127 CURVE SMOOTH",
"687 1127 OFFCURVE",
"766 1096 OFFCURVE",
"831 1052 CURVE",
"783 1018 LINE",
"836 1234 LINE",
"854 1170 LINE",
"797 1200 OFFCURVE",
"727 1231 OFFCURVE",
"649 1231 CURVE SMOOTH",
"400 1231 OFFCURVE",
"202 969 OFFCURVE",
"202 736 CURVE SMOOTH"
);
},
{
closed = 1;
nodes = (
"310 809 OFFCURVE",
"319 858 OFFCURVE",
"349 925 CURVE",
"337 915 LINE",
"370 673 OFFCURVE",
"838 589 OFFCURVE",
"838 294 CURVE SMOOTH",
"838 220 OFFCURVE",
"830 152 OFFCURVE",
"802 106 CURVE",
"815 106 LINE",
"780 365 OFFCURVE",
"310 434 OFFCURVE",
"310 760 CURVE SMOOTH"
);
}
);
width = 1050;
}
);
unicode = 00A7;
},
{
glyphname = copyright;
lastChange = "2016-11-10 18:54:39 +0000";
layers = (
{
background = {
paths = (
{
closed = 1;
nodes = (
"1256 -24 OFFCURVE",
"1486 229 OFFCURVE",
"1486 692 CURVE SMOOTH",
"1486 1136 OFFCURVE",
"1276 1378 OFFCURVE",
"852 1378 CURVE SMOOTH",
"421 1378 OFFCURVE",
"190 1128 OFFCURVE",
"190 663 CURVE SMOOTH",
"190 221 OFFCURVE",
"400 -24 OFFCURVE",
"824 -24 CURVE SMOOTH"
);
},
{
closed = 1;
nodes = (
"493 70 OFFCURVE",
"299 246 OFFCURVE",
"299 676 CURVE SMOOTH",
"299 1112 OFFCURVE",
"498 1284 OFFCURVE",
"838 1284 CURVE SMOOTH",
"1179 1284 OFFCURVE",
"1377 1110 OFFCURVE",
"1377 674 CURVE SMOOTH",
"1377 245 OFFCURVE",
"1184 70 OFFCURVE",
"840 70 CURVE SMOOTH"
);
},
{
closed = 1;
nodes = (
"954 240 OFFCURVE",
"1068 264 OFFCURVE",
"1128 326 CURVE",
"1108 254 LINE",
"1108 466 LINE",
"1162 408 LINE",
"1051 408 LINE",
"1135 437 LINE",
"1040 353 OFFCURVE",
"949 336 OFFCURVE",
"880 336 CURVE SMOOTH",
"686 336 OFFCURVE",
"610 477 OFFCURVE",
"610 684 CURVE SMOOTH",
"610 898 OFFCURVE",
"710 1019 OFFCURVE",
"855 1019 CURVE SMOOTH",
"940 1019 OFFCURVE",
"1048 971 OFFCURVE",
"1107 915 CURVE",
"1034 932 LINE",
"1145 932 LINE",
"1091 898 LINE",
"1129 1086 LINE",
"1139 1013 LINE",
"1062 1092 OFFCURVE",
"951 1116 OFFCURVE",
"870 1116 CURVE SMOOTH",
"629 1116 OFFCURVE",
"493 924 OFFCURVE",
"493 671 CURVE SMOOTH",
"493 406 OFFCURVE",
"618 240 OFFCURVE",
"860 240 CURVE SMOOTH"
);
}
);
};
layerId = "785B6CE2-304A-4677-8076-DAC1C502AB09";
paths = (
{
closed = 1;
nodes = (
"1256 -24 OFFCURVE",
"1486 229 OFFCURVE",
"1486 692 CURVE SMOOTH",
"1486 1136 OFFCURVE",
"1276 1378 OFFCURVE",
"852 1378 CURVE SMOOTH",
"421 1378 OFFCURVE",
"190 1128 OFFCURVE",
"190 663 CURVE SMOOTH",
"190 221 OFFCURVE",
"400 -24 OFFCURVE",
"824 -24 CURVE SMOOTH"
);
},
{
closed = 1;
nodes = (
"493 70 OFFCURVE",
"299 246 OFFCURVE",
"299 676 CURVE SMOOTH",
"299 1112 OFFCURVE",
"498 1284 OFFCURVE",
"838 1284 CURVE SMOOTH",
"1179 1284 OFFCURVE",
"1377 1110 OFFCURVE",
"1377 674 CURVE SMOOTH",
"1377 245 OFFCURVE",
"1184 70 OFFCURVE",
"840 70 CURVE SMOOTH"
);
},
{
closed = 1;
nodes = (
"954 240 OFFCURVE",
"1068 264 OFFCURVE",
"1128 326 CURVE",
"1108 254 LINE",
"1108 466 LINE",
"1162 408 LINE",
"1051 408 LINE",
"1135 437 LINE",
"1040 353 OFFCURVE",
"949 336 OFFCURVE",
"880 336 CURVE SMOOTH",
"686 336 OFFCURVE",
"610 477 OFFCURVE",
"610 684 CURVE SMOOTH",
"610 898 OFFCURVE",
"710 1019 OFFCURVE",
"855 1019 CURVE SMOOTH",
"940 1019 OFFCURVE",
"1048 971 OFFCURVE",
"1107 915 CURVE",
"1034 932 LINE",
"1145 932 LINE",
"1091 898 LINE",
"1129 1086 LINE",
"1139 1013 LINE",
"1062 1092 OFFCURVE",
"951 1116 OFFCURVE",
"870 1116 CURVE SMOOTH",
"629 1116 OFFCURVE",
"493 924 OFFCURVE",
"493 671 CURVE SMOOTH",
"493 406 OFFCURVE",
"618 240 OFFCURVE",
"860 240 CURVE SMOOTH"
);
}
);
width = 1676;
}
);
unicode = 00A9;
},
{
glyphname = registered;
lastChange = "2016-11-10 18:25:34 +0000";
layers = (
{
background = {
paths = (
{
closed = 1;
nodes = (
"765 625 OFFCURVE",
"900 802 OFFCURVE",
"900 1013 CURVE SMOOTH",
"900 1214 OFFCURVE",
"777 1385 OFFCURVE",
"528 1385 CURVE SMOOTH",
"275 1385 OFFCURVE",
"140 1209 OFFCURVE",
"140 997 CURVE SMOOTH",
"140 798 OFFCURVE",
"263 625 OFFCURVE",
"512 625 CURVE SMOOTH"
);
},
{
closed = 1;
nodes = (
"460 794 LINE",
"460 1224 LINE",
"374 1224 LINE",
"374 794 LINE"
);
},
{
closed = 1;
nodes = (
"318 691 OFFCURVE",
"215 831 OFFCURVE",
"215 1004 CURVE SMOOTH",
"215 1181 OFFCURVE",
"321 1319 OFFCURVE",
"520 1319 CURVE SMOOTH",
"720 1319 OFFCURVE",
"825 1180 OFFCURVE",
"825 1003 CURVE SMOOTH",
"825 831 OFFCURVE",
"723 691 OFFCURVE",
"521 691 CURVE SMOOTH"
);
},
{
closed = 1;
nodes = (
"712 794 LINE",
"571 990 LINE",
"475 995 LINE",
"610 794 LINE"
);
},
{
closed = 1;
nodes = (
"510 965 LINE",
"537 985 LINE",
"621 985 OFFCURVE",
"678 1030 OFFCURVE",
"678 1107 CURVE SMOOTH",
"678 1189 OFFCURVE",
"619 1224 OFFCURVE",
"541 1224 CURVE SMOOTH",
"426 1224 LINE",
"426 1151 LINE",
"510 1151 LINE SMOOTH",
"561 1151 OFFCURVE",
"590 1143 OFFCURVE",
"590 1093 CURVE SMOOTH",
"590 1046 OFFCURVE",
"554 1032 OFFCURVE",
"512 1032 CURVE SMOOTH",
"430 1032 LINE",
"430 965 LINE"
);
}
);
};
layerId = "785B6CE2-304A-4677-8076-DAC1C502AB09";
paths = (
{
closed = 1;
nodes = (
"765 625 OFFCURVE",
"900 802 OFFCURVE",
"900 1013 CURVE SMOOTH",
"900 1214 OFFCURVE",
"777 1385 OFFCURVE",
"528 1385 CURVE SMOOTH",
"275 1385 OFFCURVE",
"140 1209 OFFCURVE",
"140 997 CURVE SMOOTH",
"140 798 OFFCURVE",
"263 625 OFFCURVE",
"512 625 CURVE SMOOTH"
);
},
{
closed = 1;
nodes = (
"460 794 LINE",
"460 1224 LINE",
"374 1224 LINE",
"374 794 LINE"
);
},
{
closed = 1;
nodes = (
"318 691 OFFCURVE",
"215 831 OFFCURVE",
"215 1004 CURVE SMOOTH",
"215 1181 OFFCURVE",
"321 1319 OFFCURVE",
"520 1319 CURVE SMOOTH",
"720 1319 OFFCURVE",
"825 1180 OFFCURVE",
"825 1003 CURVE SMOOTH",
"825 831 OFFCURVE",
"723 691 OFFCURVE",
"521 691 CURVE SMOOTH"
);
},
{
closed = 1;
nodes = (
"712 794 LINE",
"571 990 LINE",
"475 995 LINE",
"610 794 LINE"
);
},
{
closed = 1;
nodes = (
"510 965 LINE",
"537 985 LINE",
"621 985 OFFCURVE",
"678 1030 OFFCURVE",
"678 1107 CURVE SMOOTH",
"678 1189 OFFCURVE",
"619 1224 OFFCURVE",
"541 1224 CURVE SMOOTH",
"426 1224 LINE",
"426 1151 LINE",
"510 1151 LINE SMOOTH",
"561 1151 OFFCURVE",
"590 1143 OFFCURVE",
"590 1093 CURVE SMOOTH",
"590 1046 OFFCURVE",
"554 1032 OFFCURVE",
"512 1032 CURVE SMOOTH",
"430 1032 LINE",
"430 965 LINE"
);
}
);
width = 1040;
}
);
unicode = 00AE;
},
{
glyphname = published;
lastChange = "2016-11-10 18:25:34 +0000";
layers = (
{
background = {
paths = (
{
closed = 1;
nodes = (
"1256 -24 OFFCURVE",
"1486 229 OFFCURVE",
"1486 692 CURVE SMOOTH",
"1486 1136 OFFCURVE",
"1276 1378 OFFCURVE",
"852 1378 CURVE SMOOTH",
"421 1378 OFFCURVE",
"190 1128 OFFCURVE",
"190 663 CURVE SMOOTH",
"190 221 OFFCURVE",
"400 -24 OFFCURVE",
"824 -24 CURVE SMOOTH"
);
},
{
closed = 1;
nodes = (
"493 70 OFFCURVE",
"299 246 OFFCURVE",
"299 676 CURVE SMOOTH",
"299 1112 OFFCURVE",
"498 1284 OFFCURVE",
"838 1284 CURVE SMOOTH",
"1179 1284 OFFCURVE",
"1377 1110 OFFCURVE",
"1377 674 CURVE SMOOTH",
"1377 245 OFFCURVE",
"1184 70 OFFCURVE",
"840 70 CURVE SMOOTH"
);
},
{
closed = 1;
nodes = (
"865 547 LINE SMOOTH",
"1042 547 OFFCURVE",
"1188 655 OFFCURVE",
"1188 840 CURVE SMOOTH",
"1188 1039 OFFCURVE",
"1036 1104 OFFCURVE",
"874 1104 CURVE SMOOTH",
"652 1104 LINE",
"652 1012 LINE",
"848 1012 LINE SMOOTH",
"995 1012 OFFCURVE",
"1068 969 OFFCURVE",
"1068 824 CURVE SMOOTH",
"1068 673 OFFCURVE",
"974 638 OFFCURVE",
"855 638 CURVE SMOOTH",
"664 638 LINE",
"664 547 LINE"
);
},
{
closed = 1;
nodes = (
"688 254 LINE",
"688 1104 LINE",
"575 1104 LINE",
"575 254 LINE"
);
}
);
};
layerId = "785B6CE2-304A-4677-8076-DAC1C502AB09";
paths = (
{
closed = 1;
nodes = (
"1256 -24 OFFCURVE",
"1486 229 OFFCURVE",
"1486 692 CURVE SMOOTH",
"1486 1136 OFFCURVE",
"1276 1378 OFFCURVE",
"852 1378 CURVE SMOOTH",
"421 1378 OFFCURVE",
"190 1128 OFFCURVE",
"190 663 CURVE SMOOTH",
"190 221 OFFCURVE",
"400 -24 OFFCURVE",
"824 -24 CURVE SMOOTH"
);
},
{
closed = 1;
nodes = (
"493 70 OFFCURVE",
"299 246 OFFCURVE",
"299 676 CURVE SMOOTH",
"299 1112 OFFCURVE",
"498 1284 OFFCURVE",
"838 1284 CURVE SMOOTH",
"1179 1284 OFFCURVE",
"1377 1110 OFFCURVE",
"1377 674 CURVE SMOOTH",
"1377 245 OFFCURVE",
"1184 70 OFFCURVE",
"840 70 CURVE SMOOTH"
);
},
{
closed = 1;
nodes = (
"865 547 LINE SMOOTH",
"1042 547 OFFCURVE",
"1188 655 OFFCURVE",
"1188 840 CURVE SMOOTH",
"1188 1039 OFFCURVE",
"1036 1104 OFFCURVE",
"874 1104 CURVE SMOOTH",
"652 1104 LINE",
"652 1012 LINE",
"848 1012 LINE SMOOTH",
"995 1012 OFFCURVE",
"1068 969 OFFCURVE",
"1068 824 CURVE SMOOTH",
"1068 673 OFFCURVE",
"974 638 OFFCURVE",
"855 638 CURVE SMOOTH",
"664 638 LINE",
"664 547 LINE"
);
},
{
closed = 1;
nodes = (
"688 254 LINE",
"688 1104 LINE",
"575 1104 LINE",
"575 254 LINE"
);
}
);
width = 1676;
}
);
unicode = 2117;
},
{
glyphname = trademark;
lastChange = "2016-11-10 18:25:34 +0000";
layers = (
{
background = {
paths = (
{
closed = 1;
nodes = (
"330 717 LINE",
"330 1264 LINE",
"232 1264 LINE",
"232 717 LINE"
);
},
{
closed = 1;
nodes = (
"486 1180 LINE",
"493 1264 LINE",
"70 1264 LINE",
"70 1180 LINE"
);
},
{
closed = 1;
nodes = (
"685 717 LINE",
"712 984 LINE",
"720 1251 LINE",
"688 1234 LINE",
"773 984 LINE",
"841 796 LINE",
"925 796 LINE",
"993 984 LINE",
"1084 1248 LINE",
"1046 1245 LINE",
"1054 984 LINE",
"1083 717 LINE",
"1182 717 LINE",
"1120 1264 LINE",
"1004 1264 LINE",
"852 830 LINE",
"917 830 LINE",
"764 1264 LINE",
"648 1264 LINE",
"589 717 LINE"
);
}
);
};
layerId = "785B6CE2-304A-4677-8076-DAC1C502AB09";
paths = (
{
closed = 1;
nodes = (
"330 717 LINE",
"330 1264 LINE",
"232 1264 LINE",
"232 717 LINE"
);
},
{
closed = 1;
nodes = (
"486 1180 LINE",
"493 1264 LINE",
"70 1264 LINE",
"70 1180 LINE"
);
},
{
closed = 1;
nodes = (
"685 717 LINE",
"712 984 LINE",
"720 1251 LINE",
"688 1234 LINE",
"773 984 LINE",
"841 796 LINE",
"925 796 LINE",
"993 984 LINE",
"1084 1248 LINE",
"1046 1245 LINE",
"1054 984 LINE",
"1083 717 LINE",
"1182 717 LINE",
"1120 1264 LINE",
"1004 1264 LINE",
"852 830 LINE",
"917 830 LINE",
"764 1264 LINE",
"648 1264 LINE",
"589 717 LINE"
);
}
);
width = 1336;
}
);
unicode = 2122;
},
{
glyphname = degree;
lastChange = "2016-11-10 18:25:34 +0000";
layers = (
{
background = {
paths = (
{
closed = 1;
nodes = (
"479 787 OFFCURVE",
"556 889 OFFCURVE",
"556 1010 CURVE SMOOTH",
"556 1125 OFFCURVE",
"485 1223 OFFCURVE",
"343 1223 CURVE SMOOTH",
"197 1223 OFFCURVE",
"120 1122 OFFCURVE",
"120 1000 CURVE SMOOTH",
"120 886 OFFCURVE",
"191 787 OFFCURVE",
"333 787 CURVE SMOOTH"
);
},
{
closed = 1;
nodes = (
"278 869 OFFCURVE",
"219 905 OFFCURVE",
"219 1004 CURVE SMOOTH",
"219 1106 OFFCURVE",
"280 1141 OFFCURVE",
"338 1141 CURVE SMOOTH",
"397 1141 OFFCURVE",
"457 1105 OFFCURVE",
"457 1004 CURVE SMOOTH",
"457 905 OFFCURVE",
"398 869 OFFCURVE",
"339 869 CURVE SMOOTH"
);
}
);
};
layerId = "785B6CE2-304A-4677-8076-DAC1C502AB09";
paths = (
{
closed = 1;
nodes = (
"479 787 OFFCURVE",
"556 889 OFFCURVE",
"556 1010 CURVE SMOOTH",
"556 1125 OFFCURVE",
"485 1223 OFFCURVE",
"343 1223 CURVE SMOOTH",
"197 1223 OFFCURVE",
"120 1122 OFFCURVE",
"120 1000 CURVE SMOOTH",
"120 886 OFFCURVE",
"191 787 OFFCURVE",
"333 787 CURVE SMOOTH"
);
},
{
closed = 1;
nodes = (
"278 869 OFFCURVE",
"219 905 OFFCURVE",
"219 1004 CURVE SMOOTH",
"219 1106 OFFCURVE",
"280 1141 OFFCURVE",
"338 1141 CURVE SMOOTH",
"397 1141 OFFCURVE",
"457 1105 OFFCURVE",
"457 1004 CURVE SMOOTH",
"457 905 OFFCURVE",
"398 869 OFFCURVE",
"339 869 CURVE SMOOTH"
);
}
);
width = 676;
}
);
unicode = 00B0;
},
{
glyphname = bar;
lastChange = "2016-11-10 18:25:34 +0000";
layers = (
{
background = {
paths = (
{
closed = 1;
nodes = (
"532 -367 LINE",
"532 1407 LINE",
"420 1407 LINE",
"420 -367 LINE"
);
}
);
};
layerId = "785B6CE2-304A-4677-8076-DAC1C502AB09";
paths = (
{
closed = 1;
nodes = (
"532 -367 LINE",
"532 1407 LINE",
"420 1407 LINE",
"420 -367 LINE"
);
}
);
width = 952;
}
);
unicode = 007C;
},
{
glyphname = dagger;
lastChange = "2016-11-10 18:25:34 +0000";
layers = (
{
background = {
paths = (
{
closed = 1;
nodes = (
"505 948 LINE",
"880 934 LINE",
"880 1045 LINE",
"505 1029 LINE",
"130 1045 LINE",
"130 934 LINE"
);
},
{
closed = 1;
nodes = (
"547 1026 LINE",
"559 1141 OFFCURVE",
"569 1292 OFFCURVE",
"572 1397 CURVE",
"438 1397 LINE",
"441 1292 OFFCURVE",
"451 1141 OFFCURVE",
"463 1026 CURVE"
);
},
{
closed = 1;
nodes = (
"463 954 LINE",
"437 653 LINE",
"439 495 OFFCURVE",
"450 308 OFFCURVE",
"471 150 CURVE",
"539 150 LINE",
"561 308 OFFCURVE",
"571 495 OFFCURVE",
"573 653 CURVE",
"547 954 LINE"
);
}
);
};
layerId = "785B6CE2-304A-4677-8076-DAC1C502AB09";
paths = (
{
closed = 1;
nodes = (
"505 948 LINE",
"880 934 LINE",
"880 1045 LINE",
"505 1029 LINE",
"130 1045 LINE",
"130 934 LINE"
);
},
{
closed = 1;
nodes = (
"547 1026 LINE",
"559 1141 OFFCURVE",
"569 1292 OFFCURVE",
"572 1397 CURVE",
"438 1397 LINE",
"441 1292 OFFCURVE",
"451 1141 OFFCURVE",
"463 1026 CURVE"
);
},
{
closed = 1;
nodes = (
"463 954 LINE",
"437 653 LINE",
"439 495 OFFCURVE",
"450 308 OFFCURVE",
"471 150 CURVE",
"539 150 LINE",
"561 308 OFFCURVE",
"571 495 OFFCURVE",
"573 653 CURVE",
"547 954 LINE"
);
}
);
width = 1010;
}
);
unicode = 2020;
},
{
glyphname = servicemark;
lastChange = "2016-11-10 18:25:34 +0000";
layers = (
{
anchors = (
{
name = bottom;
position = "{514, 0}";
},
{
name = top;
position = "{514, 1264}";
}
);
background = {
anchors = (
{
name = bottom;
position = "{514, 0}";
},
{
name = top;
position = "{514, 1264}";
}
);
paths = (
{
closed = 1;
nodes = (
"399 706 OFFCURVE",
"465 775 OFFCURVE",
"465 861 CURVE SMOOTH",
"465 967 OFFCURVE",
"392 1000 OFFCURVE",
"314 1036 CURVE SMOOTH",
"233 1073 OFFCURVE",
"199 1093 OFFCURVE",
"199 1135 CURVE SMOOTH",
"199 1182 OFFCURVE",
"226 1196 OFFCURVE",
"280 1196 CURVE SMOOTH",
"337 1196 OFFCURVE",
"388 1177 OFFCURVE",
"445 1139 CURVE",
"414 1152 LINE",
"465 1152 LINE",
"421 1132 LINE",
"446 1245 LINE",
"463 1221 LINE",
"419 1257 OFFCURVE",
"355 1274 OFFCURVE",
"290 1274 CURVE SMOOTH",
"157 1274 OFFCURVE",
"96 1212 OFFCURVE",
"96 1128 CURVE SMOOTH",
"96 1028 OFFCURVE",
"184 993 OFFCURVE",
"258 961 CURVE SMOOTH",
"335 928 OFFCURVE",
"362 908 OFFCURVE",
"362 852 CURVE SMOOTH",
"362 814 OFFCURVE",
"337 786 OFFCURVE",
"274 786 CURVE SMOOTH",
"179 786 OFFCURVE",
"118 830 OFFCURVE",
"65 868 CURVE",
"112 852 LINE",
"51 852 LINE",
"80 884 LINE",
"80 731 LINE",
"70 770 LINE",
"103 736 OFFCURVE",
"169 706 OFFCURVE",
"264 706 CURVE SMOOTH"
);
},
{
closed = 1;
nodes = (
"691 717 LINE",
"718 984 LINE",
"726 1251 LINE",
"694 1234 LINE",
"779 984 LINE",
"847 796 LINE",
"931 796 LINE",
"999 984 LINE",
"1090 1248 LINE",
"1052 1245 LINE",
"1060 984 LINE",
"1089 717 LINE",
"1188 717 LINE",
"1126 1264 LINE",
"1010 1264 LINE",
"858 830 LINE",
"923 830 LINE",
"770 1264 LINE",
"654 1264 LINE",
"595 717 LINE"
);
}
);
};
layerId = "785B6CE2-304A-4677-8076-DAC1C502AB09";
paths = (
{
closed = 1;
nodes = (
"399 706 OFFCURVE",
"465 775 OFFCURVE",
"465 861 CURVE SMOOTH",
"465 967 OFFCURVE",
"392 1000 OFFCURVE",
"314 1036 CURVE SMOOTH",
"233 1073 OFFCURVE",
"199 1093 OFFCURVE",
"199 1135 CURVE SMOOTH",
"199 1182 OFFCURVE",
"226 1196 OFFCURVE",
"280 1196 CURVE SMOOTH",
"337 1196 OFFCURVE",
"388 1177 OFFCURVE",
"445 1139 CURVE",
"414 1152 LINE",
"465 1152 LINE",
"421 1132 LINE",
"446 1245 LINE",
"463 1221 LINE",
"419 1257 OFFCURVE",
"355 1274 OFFCURVE",
"290 1274 CURVE SMOOTH",
"157 1274 OFFCURVE",
"96 1212 OFFCURVE",
"96 1128 CURVE SMOOTH",
"96 1028 OFFCURVE",
"184 993 OFFCURVE",
"258 961 CURVE SMOOTH",
"335 928 OFFCURVE",
"362 908 OFFCURVE",
"362 852 CURVE SMOOTH",
"362 814 OFFCURVE",
"337 786 OFFCURVE",
"274 786 CURVE SMOOTH",
"179 786 OFFCURVE",
"118 830 OFFCURVE",
"65 868 CURVE",
"112 852 LINE",
"51 852 LINE",
"80 884 LINE",
"80 731 LINE",
"70 770 LINE",
"103 736 OFFCURVE",
"169 706 OFFCURVE",
"264 706 CURVE SMOOTH"
);
},
{
closed = 1;
nodes = (
"691 717 LINE",
"718 984 LINE",
"726 1251 LINE",
"694 1234 LINE",
"779 984 LINE",
"847 796 LINE",
"931 796 LINE",
"999 984 LINE",
"1090 1248 LINE",
"1052 1245 LINE",
"1060 984 LINE",
"1089 717 LINE",
"1188 717 LINE",
"1126 1264 LINE",
"1010 1264 LINE",
"858 830 LINE",
"923 830 LINE",
"770 1264 LINE",
"654 1264 LINE",
"595 717 LINE"
);
}
);
width = 1325;
}
);
unicode = 2120;
},
{
glyphname = slashshortcomb;
lastChange = "2016-11-10 18:54:58 +0000";
layers = (
{
anchors = (
{
name = _center;
position = "{335, 572}";
}
);
background = {
anchors = (
{
name = _center;
position = "{335, 572}";
}
);
paths = (
{
closed = 1;
nodes = (
"335 736 LINE",
"698 979 LINE",
"571 859 LINE",
"571 1055 LINE",
"600 1003 LINE",
"509 1003 LINE",
"621 1045 LINE",
"335 849 LINE"
);
},
{
closed = 1;
nodes = (
"335 878 LINE",
"-9 642 LINE",
"88 817 LINE",
"88 504 LINE",
"-26 599 LINE",
"208 599 LINE",
"-3 533 LINE",
"335 765 LINE"
);
}
);
};
layerId = "785B6CE2-304A-4677-8076-DAC1C502AB09";
paths = (
{
closed = 1;
nodes = (
"335 736 LINE",
"698 979 LINE",
"571 859 LINE",
"571 1055 LINE",
"600 1003 LINE",
"509 1003 LINE",
"621 1045 LINE",
"335 849 LINE"
);
},
{
closed = 1;
nodes = (
"335 878 LINE",
"-9 642 LINE",
"88 817 LINE",
"88 504 LINE",
"-26 599 LINE",
"208 599 LINE",
"-3 533 LINE",
"335 765 LINE"
);
}
);
width = 670;
}
);
unicode = 0337;
},
{
glyphname = slashshortcomb.case;
lastChange = "2016-11-10 18:25:34 +0000";
layers = (
{
anchors = (
{
name = _center;
position = "{429, 763}";
}
);
background = {
anchors = (
{
name = _center;
position = "{429, 763}";
}
);
paths = (
{
closed = 1;
nodes = (
"302 710 LINE",
"719 982 LINE",
"633 899 LINE",
"633 1116 LINE",
"704 1035 LINE",
"551 1035 LINE",
"678 1070 LINE",
"302 823 LINE"
);
},
{
closed = 1;
nodes = (
"270 838 LINE",
"-56 622 LINE",
"0 705 LINE",
"0 482 LINE",
"-78 549 LINE",
"110 549 LINE",
"-101 481 LINE",
"270 725 LINE"
);
}
);
};
layerId = "785B6CE2-304A-4677-8076-DAC1C502AB09";
paths = (
{
closed = 1;
nodes = (
"302 710 LINE",
"719 982 LINE",
"633 899 LINE",
"633 1116 LINE",
"704 1035 LINE",
"551 1035 LINE",
"678 1070 LINE",
"302 823 LINE"
);
},
{
closed = 1;
nodes = (
"270 838 LINE",
"-56 622 LINE",
"0 705 LINE",
"0 482 LINE",
"-78 549 LINE",
"110 549 LINE",
"-101 481 LINE",
"270 725 LINE"
);
}
);
width = 673;
}
);
},
{
glyphname = acute;
lastChange = "2016-11-10 18:25:34 +0000";
layers = (
{
anchors = (
{
name = _top;
position = "{228, 997}";
}
);
background = {
anchors = (
{
name = _top;
position = "{228, 997}";
}
);
paths = (
{
closed = 1;
nodes = (
"461 1428 LINE",
"493 1412 LINE",
"313 1412 LINE",
"80 1036 LINE",
"142 1188 LINE",
"142 1099 LINE",
"122 1127 LINE",
"229 1127 LINE",
"493 1442 LINE",
"461 1370 LINE"
);
}
);
};
layerId = "785B6CE2-304A-4677-8076-DAC1C502AB09";
paths = (
{
closed = 1;
nodes = (
"461 1428 LINE",
"493 1412 LINE",
"313 1412 LINE",
"80 1036 LINE",
"142 1188 LINE",
"142 1099 LINE",
"122 1127 LINE",
"229 1127 LINE",
"493 1442 LINE",
"461 1370 LINE"
);
}
);
width = 600;
}
);
unicode = 00B4;
},
{
glyphname = dotaccent;
lastChange = "2016-11-10 18:25:34 +0000";
layers = (
{
anchors = (
{
name = _top;
position = "{260, 984}";
}
);
background = {
anchors = (
{
name = _top;
position = "{260, 984}";
}
);
paths = (
{
closed = 1;
nodes = (
"313 1238 OFFCURVE",
"353 1272 OFFCURVE",
"353 1332 CURVE SMOOTH",
"353 1389 OFFCURVE",
"317 1423 OFFCURVE",
"262 1423 CURVE SMOOTH",
"204 1423 OFFCURVE",
"166 1388 OFFCURVE",
"166 1328 CURVE SMOOTH",
"166 1271 OFFCURVE",
"201 1238 OFFCURVE",
"257 1238 CURVE SMOOTH"
);
}
);
};
layerId = "785B6CE2-304A-4677-8076-DAC1C502AB09";
paths = (
{
closed = 1;
nodes = (
"313 1238 OFFCURVE",
"353 1272 OFFCURVE",
"353 1332 CURVE SMOOTH",
"353 1389 OFFCURVE",
"317 1423 OFFCURVE",
"262 1423 CURVE SMOOTH",
"204 1423 OFFCURVE",
"166 1388 OFFCURVE",
"166 1328 CURVE SMOOTH",
"166 1271 OFFCURVE",
"201 1238 OFFCURVE",
"257 1238 CURVE SMOOTH"
);
}
);
width = 520;
}
);
unicode = 02D9;
},
{
glyphname = ogonek;
lastChange = "2016-11-10 18:25:34 +0000";
layers = (
{
anchors = (
{
name = _ogonek;
position = "{311, 0}";
}
);
background = {
anchors = (
{
name = _ogonek;
position = "{311, 0}";
}
);
paths = (
{
closed = 1;
nodes = (
"210 -54 OFFCURVE",
"114 -151 OFFCURVE",
"114 -255 CURVE SMOOTH",
"114 -345 OFFCURVE",
"181 -391 OFFCURVE",
"282 -391 CURVE SMOOTH",
"350 -391 OFFCURVE",
"402 -370 OFFCURVE",
"425 -362 CURVE",
"425 -267 LINE",
"396 -282 OFFCURVE",
"341 -293 OFFCURVE",
"302 -293 CURVE SMOOTH",
"254 -293 OFFCURVE",
"231 -271 OFFCURVE",
"231 -223 CURVE SMOOTH",
"231 -159 OFFCURVE",
"280 -99 OFFCURVE",
"373 0 CURVE",
"267 0 LINE"
);
}
);
};
layerId = "785B6CE2-304A-4677-8076-DAC1C502AB09";
paths = (
{
closed = 1;
nodes = (
"210 -54 OFFCURVE",
"114 -151 OFFCURVE",
"114 -255 CURVE SMOOTH",
"114 -345 OFFCURVE",
"181 -391 OFFCURVE",
"282 -391 CURVE SMOOTH",
"350 -391 OFFCURVE",
"402 -370 OFFCURVE",
"425 -362 CURVE",
"425 -267 LINE",
"396 -282 OFFCURVE",
"341 -293 OFFCURVE",
"302 -293 CURVE SMOOTH",
"254 -293 OFFCURVE",
"231 -271 OFFCURVE",
"231 -223 CURVE SMOOTH",
"231 -159 OFFCURVE",
"280 -99 OFFCURVE",
"373 0 CURVE",
"267 0 LINE"
);
}
);
width = 600;
}
);
unicode = 02DB;
},
{
glyphname = acute.case;
lastChange = "2016-11-10 18:25:34 +0000";
layers = (
{
anchors = (
{
name = _top;
position = "{169, 1264}";
}
);
background = {
anchors = (
{
name = _top;
position = "{169, 1264}";
}
);
paths = (
{
closed = 1;
nodes = (
"457 1696 LINE",
"487 1680 LINE",
"303 1680 LINE",
"33 1368 LINE",
"70 1437 LINE",
"70 1379 LINE",
"47 1407 LINE",
"177 1407 LINE",
"495 1710 LINE",
"457 1659 LINE"
);
}
);
};
guideLines = (
{
position = "{499, 1407}";
}
);
layerId = "785B6CE2-304A-4677-8076-DAC1C502AB09";
paths = (
{
closed = 1;
nodes = (
"457 1696 LINE",
"487 1680 LINE",
"303 1680 LINE",
"33 1368 LINE",
"70 1437 LINE",
"70 1379 LINE",
"47 1407 LINE",
"177 1407 LINE",
"495 1710 LINE",
"457 1659 LINE"
);
}
);
width = 600;
}
);
},
